<?xml version="1.0" ?><!DOCTYPE svg  PUBLIC '-//W3C//DTD SVG 1.1//EN'  'http://www.w3.org/Graphics/SVG/1.1/DTD/svg11.dtd'><svg enable-background="new 0 0 24 24" height="24px" id="Layer_1" version="1.1" viewBox="0 0 24 24" width="24px" xml:space="preserve" xmlns="http://www.w3.org/2000/svg" xmlns:xlink="http://www.w3.org/1999/xlink"><g><path d="M22.9,6H21V4.1C21,3.5,20.5,3,19.9,3H18V1.1C18,0.5,17.5,0,16.9,0H1.1C0.5,0,0,0.5,0,1.1v15.8C0,17.5,0.5,18,1.1,18H3v1.9   C3,20.5,3.5,21,4.1,21H6v1.9C6,23.5,6.5,24,7.1,24h15.8c0.6,0,1.1-0.5,1.1-1.1V7.1C24,6.5,23.5,6,22.9,6z M3,4.1V16H2V2h14v1H4.1   C3.5,3,3,3.5,3,4.1z M6,7.1V19H5V5h14v1H7.1C6.5,6,6,6.5,6,7.1z M22,22H8V8h14V22z"/><rect height="1" width="8" x="11" y="13"/><rect height="1" width="8" x="11" y="11"/><rect height="1" width="8" x="11" y="17"/><rect height="1" width="8" x="11" y="15"/><rect height="1" width="8" x="11" y="19"/></g></svg>