<?xml version="1.0" encoding="iso-8859-1"?>
<!-- Generator: Adobe Illustrator 19.0.0, SVG Export Plug-In . SVG Version: 6.00 Build 0)  -->
<svg version="1.1" id="Capa_1" xmlns="http://www.w3.org/2000/svg" xmlns:xlink="http://www.w3.org/1999/xlink" x="0px" y="0px"
	 viewBox="0 0 512 512" style="enable-background:new 0 0 512 512;" xml:space="preserve">
<g>
	<g>
		<g>
			<path d="M405.333,0H106.667C83.146,0,64,19.135,64,42.667v192c0,23.531,19.146,42.667,42.667,42.667H160
				c5.896,0,10.667-4.771,10.667-10.667v-32c0-23.531,19.146-42.667,42.667-42.667h85.333c23.521,0,42.667,19.135,42.667,42.667v32
				c0,5.896,4.771,10.667,10.667,10.667h53.333c23.521,0,42.667-19.135,42.667-42.667v-192C448,19.135,428.854,0,405.333,0z
				 M352,149.333H160c-5.896,0-10.667-4.771-10.667-10.667c0-5.896,4.771-10.667,10.667-10.667h192
				c5.896,0,10.667,4.771,10.667,10.667C362.667,144.563,357.896,149.333,352,149.333z M373.333,85.333H138.667
				c-5.896,0-10.667-4.771-10.667-10.667C128,68.771,132.771,64,138.667,64h234.667C379.229,64,384,68.771,384,74.667
				C384,80.563,379.229,85.333,373.333,85.333z"/>
			<path d="M352,469.333h-74.667V320h21.333c11.771,0,21.333-9.573,21.333-21.333v-64c0-11.76-9.563-21.333-21.333-21.333h-85.333
				c-11.771,0-21.333,9.573-21.333,21.333v64c0,11.76,9.563,21.333,21.333,21.333h21.333v149.333H160
				c-5.896,0-10.667,4.771-10.667,10.667v21.333c0,5.896,4.771,10.667,10.667,10.667h192c5.896,0,10.667-4.771,10.667-10.667V480
				C362.667,474.104,357.896,469.333,352,469.333z"/>
		</g>
	</g>
</g>
<g>
</g>
<g>
</g>
<g>
</g>
<g>
</g>
<g>
</g>
<g>
</g>
<g>
</g>
<g>
</g>
<g>
</g>
<g>
</g>
<g>
</g>
<g>
</g>
<g>
</g>
<g>
</g>
<g>
</g>
</svg>
