<?xml version="1.0" encoding="utf-8"?>
<!-- Generator: Adobe Illustrator 23.0.0, SVG Export Plug-In . SVG Version: 6.00 Build 0)  -->
<svg version="1.1" id="Layer_1" xmlns="http://www.w3.org/2000/svg" xmlns:xlink="http://www.w3.org/1999/xlink" x="0px" y="0px"
	 viewBox="0 0 1366 768" style="enable-background:new 0 0 1366 768;" xml:space="preserve">
<g>
	<ellipse transform="matrix(0.9732 -0.2298 0.2298 0.9732 -93.6533 134.123)" cx="529.14" cy="469.24" rx="33.88" ry="33.88"/>
	<path d="M529.14,503.12c-28.24,0-51.14,22.89-51.14,51.14h102.27C580.27,526.01,557.38,503.12,529.14,503.12z"/>
	<ellipse transform="matrix(0.9732 -0.2298 0.2298 0.9732 -34.616 198.8162)" cx="836.46" cy="248.06" rx="33.88" ry="33.88"/>
	<path d="M836.46,281.94c-28.24,0-51.14,22.89-51.14,51.14H887.6C887.6,304.84,864.71,281.94,836.46,281.94z"/>
	<path d="M600.78,368.27L600.78,368.27c-0.94,5.04-1.44,10.22-1.44,15.53c0,6.3,0.7,12.44,2,18.35h45.62v-33.88H611.7H600.78z"/>
	<path d="M714.73,368.27v33.88h53.13c1.3-5.91,2.01-12.05,2.01-18.35c0-5.31-0.5-10.49-1.43-15.53h-0.01h-6.22H714.73z"/>
	<rect x="663.91" y="368.27" width="33.88" height="33.88"/>
	<path d="M663.91,351.33h33.88v-51.78c-4.3-0.67-8.69-1.02-13.18-1.02c-7.14,0-14.08,0.89-20.71,2.55V351.33z"/>
	<path d="M605.76,351.33h41.2v-44.04C628.42,316.44,613.69,332.11,605.76,351.33z"/>
	<path d="M714.73,304.02c-0.59-0.22-1.19-0.44-1.79-0.65C713.54,303.59,714.14,303.81,714.73,304.02L714.73,304.02z"/>
	<polygon points="763.46,351.33 763.46,351.33 763.45,351.33 763.45,351.33 	"/>
	<path d="M763.45,351.33c-8.97-21.75-26.66-38.96-48.72-47.3v47.3H763.45z"/>
	<path d="M714.73,463.54c21.09-7.97,38.2-24.04,47.49-44.45h-47.49V463.54z"/>
	<path d="M607.01,419.09c8.16,17.92,22.33,32.52,39.96,41.21v-41.21h-31.15H607.01z"/>
	<path d="M697.79,468.05v-48.95h-33.88v40.76v6.65c6.63,1.66,13.56,2.56,20.71,2.56C689.09,469.06,693.49,468.71,697.79,468.05z"/>
	<path d="M520.04,386.59l54.24-59.85l-25.22-5.44c24.44-48.25,74.83-79.81,129.59-79.81v-27c-35.43,0-69.46,10.68-98.41,30.9
		c-25.56,17.84-45.55,41.93-58.31,70.06l-26.6-5.74L520.04,386.59z"/>
	<path d="M841.53,384.24l-54.24,59.85l25.22,5.44c-24.44,48.25-74.83,79.81-129.59,79.81v27c35.43,0,69.46-10.68,98.41-30.9
		c25.56-17.84,45.55-41.93,58.31-70.06l26.6,5.74L841.53,384.24z"/>
</g>
</svg>
