<?xml version="1.0" encoding="utf-8"?>
<!-- Generator: Adobe Illustrator 20.1.0, SVG Export Plug-In . SVG Version: 6.00 Build 0)  -->
<svg version="1.1" id="Layer_1" xmlns="http://www.w3.org/2000/svg" xmlns:xlink="http://www.w3.org/1999/xlink" x="0px" y="0px"
	 viewBox="0 0 128 128" style="enable-background:new 0 0 128 128;" xml:space="preserve">
<g>
	<rect x="53" y="68" width="22" height="7"/>
	<path d="M112.9,67.5c-1.5,4.5-5.6,7.5-10.3,7.5H82v3.5c0,2-1.5,3.5-3.5,3.5H49.5c-2,0-3.5-1.5-3.5-3.5V75H25.4
		c-4.7,0-8.9-3-10.3-7.5L2,28.3v79.3c0,6,4.9,11.4,10.9,11.4h102.2c6,0,10.9-5.4,10.9-11.4V28.3L112.9,67.5z"/>
	<path d="M25.4,68H46v-4c0-2,1.5-4,3.5-4h29.1c2,0,3.5,2,3.5,4v4h20.6c1.6,0,3-1.2,3.4-2.7L119.8,24H90v-3.6C90,14.4,84.5,9,78.5,9
		H49.5C43.5,9,38,14.4,38,20.4V24H8.3L22,65.3C22.4,66.8,23.8,68,25.4,68z M46,20.4c0-2,1.5-3.4,3.5-3.4h29.1c2,0,3.5,1.4,3.5,3.4
		V24H46V20.4z"/>
</g>
</svg>
