<?xml version="1.0" encoding="utf-8"?>
<!-- Generator: Adobe Illustrator 23.0.0, SVG Export Plug-In . SVG Version: 6.00 Build 0)  -->
<svg version="1.1" id="Layer_1" xmlns="http://www.w3.org/2000/svg" xmlns:xlink="http://www.w3.org/1999/xlink" x="0px" y="0px"
	 viewBox="0 0 128 128" style="enable-background:new 0 0 128 128;" xml:space="preserve">
<g>
	<path d="M65.94,93.06h15.5v14.41c-2.96,2.18-6.72,3.03-10.35,3.03H18.17C8.48,110.5,2,104.69,2,94.82
		c0-13.68,3.21-34.69,20.95-34.69c0.97,0,1.63,0.42,2.36,1.03c5.93,4.54,11.69,7.38,19.31,7.38s13.38-2.84,19.31-7.38
		c0.73-0.61,1.39-1.03,2.36-1.03c5.15,0,9.69,1.94,13.14,5.81h-13.5c-4.24,0-7.75,3.51-7.75,7.75v11.63
		C58.19,89.55,61.7,93.06,65.94,93.06z M21.38,40.75c0-12.84,10.41-23.25,23.25-23.25s23.25,10.41,23.25,23.25S57.46,64,44.63,64
		S21.38,53.59,21.38,40.75z M124.06,71.75c1.03,0,1.94,0.91,1.94,1.94v11.63c0,1.03-0.91,1.94-1.94,1.94h-21.31v21.31
		c0,1.03-0.91,1.94-1.94,1.94H89.19c-1.03,0-1.94-0.91-1.94-1.94V87.25H65.94c-1.03,0-1.94-0.91-1.94-1.94V73.69
		c0-1.03,0.91-1.94,1.94-1.94h21.31V50.44c0-1.03,0.91-1.94,1.94-1.94h11.63c1.03,0,1.94,0.91,1.94,1.94v21.31H124.06z"/>
</g>
</svg>
