<?xml version="1.0" encoding="utf-8"?>
<!-- Generator: Adobe Illustrator 20.1.0, SVG Export Plug-In . SVG Version: 6.00 Build 0)  -->
<svg version="1.1" id="Layer_1" xmlns="http://www.w3.org/2000/svg" xmlns:xlink="http://www.w3.org/1999/xlink" x="0px" y="0px"
	 viewBox="0 0 128 128" style="enable-background:new 0 0 128 128;" xml:space="preserve">
<style type="text/css">
	.st0{fill:#030104;}
</style>
<g>
	<g>
		<path class="st0" d="M40.3,41.2c0.4,2,1.1,3.2,1.8,4c1.8,12.6,13.1,23.3,22.2,22.9c11.6-0.6,19.7-13,21.6-22.9
			c0.8-0.8,1.5-2.5,1.9-4.4c0.5-2.3,1-5.7-0.3-7.5c-0.1-0.1-0.6-0.6-0.7-0.7c1.3-4.7,4.2-13.1-3-20.6C80,8,74.6,5.9,69.8,4.3
			c-14.3-4.8-24.4,1.9-29,13c-0.3,0.8-2.5,5.8,0.1,15.3c-0.3,0.2-0.5,0.4-0.7,0.7C38.9,35.1,39.8,38.9,40.3,41.2z"/>
		<path class="st0" d="M114.1,110.5c-0.4-8.7-0.9-22.4-8.5-33.7c0,0-2.2-2.9-7.3-4.9c0,0-11.1-3.4-16.3-7.1l-2.3,1.6L80,81.7
			l-14,37.5c-0.3,0.8-1.1,1.4-2,1.4c-0.9,0-1.7-0.5-2-1.4L48,81.7c0,0,0.3-15.2,0.3-15.2c0,0.1-2.3-1.6-2.3-1.6
			c-5.1,3.7-16.2,7.1-16.2,7.1c-5.1,2-7.3,4.9-7.3,4.9c-7.6,11.2-8.1,25-8.5,33.7c-0.3,6,1,8.2,2.6,8.9c19.6,7.9,75.5,7.9,95.1,0
			C113.1,118.7,114.4,116.5,114.1,110.5z"/>
		<path class="st0" d="M64.5,72.9l-0.6,0c-2,0-4.1-0.4-6.1-1.1l5.6,8.5l-5,4.8l5.1,31.2c0,0.3,0.3,0.5,0.5,0.5
			c0.3,0,0.5-0.2,0.5-0.5l5.1-31.2l-5-4.8l5.5-8.4C68.4,72.5,66.5,72.8,64.5,72.9z"/>
	</g>
</g>
</svg>
