<?xml version="1.0" encoding="utf-8"?>
<!-- Generator: Adobe Illustrator 23.0.0, SVG Export Plug-In . SVG Version: 6.00 Build 0)  -->
<svg version="1.1" id="Layer_1" xmlns="http://www.w3.org/2000/svg" xmlns:xlink="http://www.w3.org/1999/xlink" x="0px" y="0px"
	 viewBox="0 0 128 128" style="enable-background:new 0 0 128 128;" xml:space="preserve">
<g>
	<g id="notifications-none">
		<path d="M64,126c6.82,0,12.4-5.58,12.4-12.4H51.6C51.6,120.42,57.18,126,64,126z M104.3,88.8V54.7c0-19.22-13.02-34.72-31-39.06
			V11.3C73.3,6.34,68.96,2,64,2s-9.3,4.34-9.3,9.3v4.34c-17.98,4.34-31,19.84-31,39.06v34.1l-12.4,12.4v6.2h105.4v-6.2L104.3,88.8z
			 M91.9,95H36.1V54.7c0-15.5,12.4-27.9,27.9-27.9s27.9,12.4,27.9,27.9V95z"/>
	</g>
</g>
</svg>
