<?xml version="1.0" encoding="utf-8"?>
<!-- Generator: Adobe Illustrator 23.0.0, SVG Export Plug-In . SVG Version: 6.00 Build 0)  -->
<svg version="1.1" id="Layer_1" xmlns="http://www.w3.org/2000/svg" xmlns:xlink="http://www.w3.org/1999/xlink" x="0px" y="0px"
	 viewBox="0 0 128 128" style="enable-background:new 0 0 128 128;" xml:space="preserve">
<g>
	<path d="M42.2,46.08H85.8c6.01,0,10.9-4.89,10.9-10.9V12.9C96.7,6.89,91.81,2,85.8,2H42.2c-6.01,0-10.9,4.89-10.9,10.9v22.28
		C31.3,41.19,36.19,46.08,42.2,46.08z"/>
	<path d="M118.73,89.67h-7.27v-3.63c0-6.01-4.89-10.9-10.9-10.9H67.63v-7.29c0.68,0,10.25,0,10.9,0c2.01,0,3.63-1.6,3.63-3.61
		c0-2.01-1.62-3.63-3.63-3.63H74.9v-7.27H53.1v7.27h-3.63c-2.01,0-3.63,1.62-3.63,3.63c0,2.01,1.62,3.61,3.63,3.61
		c0.68,0,10.25,0,10.9,0v7.29H27.43c-6.01,0-10.9,4.89-10.9,10.9v3.63H9.27C5.25,89.67,2,92.92,2,96.94v7.27
		c0,4.01,3.25,7.27,7.27,7.27h7.27v7.27H12.9c-2.01,0-3.63,1.62-3.63,3.63c0,2.01,1.62,3.63,3.63,3.63h14.53
		c2.01,0,3.63-1.62,3.63-3.63c0-2.01-1.62-3.63-3.63-3.63H23.8v-7.27h7.27c4.01,0,7.27-3.25,7.27-7.27v-7.27
		c0-4.01-3.25-7.27-7.27-7.27H23.8v-3.63c0-2,1.63-3.63,3.63-3.63h32.94v7.27H53.1c-4.01,0-7.27,3.25-7.27,7.27v7.27
		c0,4.01,3.25,7.27,7.27,7.27h7.27v7.27h-3.63c-2.01,0-3.63,1.62-3.63,3.63c0,2.01,1.62,3.63,3.63,3.63h14.53
		c2.01,0,3.63-1.62,3.63-3.63c0-2.01-1.62-3.63-3.63-3.63h-3.63v-7.27h7.27c4.01,0,7.27-3.25,7.27-7.27v-7.27
		c0-4.01-3.25-7.27-7.27-7.27h-7.27v-7.27h32.94c2,0,3.63,1.63,3.63,3.63v3.63h-7.27c-4.01,0-7.27,3.25-7.27,7.27v7.27
		c0,4.01,3.25,7.27,7.27,7.27h7.27v7.27h-3.63c-2.01,0-3.63,1.62-3.63,3.63c0,2.01,1.62,3.63,3.63,3.63h14.53
		c2.01,0,3.63-1.62,3.63-3.63c0-2.01-1.62-3.63-3.63-3.63h-3.63v-7.27h7.27c4.01,0,7.27-3.25,7.27-7.27v-7.27
		C126,92.92,122.75,89.67,118.73,89.67z"/>
</g>
</svg>
