<?xml version="1.0" encoding="utf-8"?>
<!-- Generator: Adobe Illustrator 20.1.0, SVG Export Plug-In . SVG Version: 6.00 Build 0)  -->
<svg version="1.1" id="Layer_1" xmlns="http://www.w3.org/2000/svg" xmlns:xlink="http://www.w3.org/1999/xlink" x="0px" y="0px"
	 viewBox="0 0 128 128" style="enable-background:new 0 0 128 128;" xml:space="preserve">
<path d="M72.4,64l51.8-51.8c2.3-2.3,2.3-6.1,0-8.4s-6.1-2.3-8.4,0L64,55.6L12.2,3.7c-2.3-2.3-6.1-2.3-8.4,0s-2.3,6.1,0,8.4L55.6,64
	L3.7,115.8c-2.3,2.3-2.3,6.1,0,8.4c1.2,1.2,2.7,1.7,4.2,1.7s3-0.6,4.2-1.7L64,72.4l51.8,51.8c1.2,1.2,2.7,1.7,4.2,1.7s3-0.6,4.2-1.7
	c2.3-2.3,2.3-6.1,0-8.4L72.4,64z"/>
</svg>
