<?xml version="1.0" encoding="utf-8"?>
<!-- Generator: Adobe Illustrator 23.0.0, SVG Export Plug-In . SVG Version: 6.00 Build 0)  -->
<svg version="1.1" id="Layer_1" xmlns="http://www.w3.org/2000/svg" xmlns:xlink="http://www.w3.org/1999/xlink" x="0px" y="0px"
	 viewBox="0 0 128 128" style="enable-background:new 0 0 128 128;" xml:space="preserve">
<g>
	<path d="M126,102.75c0,12.83-10.41,23.25-23.25,23.25H25.25C12.41,126,2,115.59,2,102.75V25.25C2,12.41,12.41,2,25.25,2h77.51
		C115.59,2,126,12.41,126,25.25V102.75z M105.33,58.83c0-2.83-2.34-5.17-5.17-5.17H27.83c-2.83,0-5.17,2.34-5.17,5.17v10.33
		c0,2.83,2.34,5.17,5.17,5.17h72.33c2.83,0,5.17-2.34,5.17-5.17V58.83z"/>
</g>
</svg>
