<?xml version="1.0" encoding="utf-8"?>
<!-- Generator: Adobe Illustrator 20.1.0, SVG Export Plug-In . SVG Version: 6.00 Build 0)  -->
<svg version="1.1" id="Layer_1" xmlns="http://www.w3.org/2000/svg" xmlns:xlink="http://www.w3.org/1999/xlink" x="0px" y="0px"
	 viewBox="0 0 128 128" style="enable-background:new 0 0 128 128;" xml:space="preserve">
<g>
	<g>
		<path d="M115.3,29.6l-1.8,0.6l-9.8,0.9l-2.8,4.4l-2-0.6L91,27.8l-1.1-3.7l-1.5-3.9l-4.9-4.4l-5.8-1.1l-0.1,2.7l5.7,5.6l2.8,3.3
			l-3.1,1.6l-2.5-0.8l-3.8-1.6l0.1-3.1l-5-2.1l-1.7,7.2l-5,1.1l0.5,4l6.6,1.3l1.1-6.5l5.4,0.8l2.5,1.5h4l2.8,5.6l7.3,7.5l-0.5,2.9
			L88.7,45l-10.2,5.2L71.1,59l-1,3.9h-2.6l-4.9-2.3l-4.8,2.3L59,68l2.1-2.4l3.7-0.1L64.5,70l3,0.9l3,3.4l4.9-1.4l5.7,0.9l6.6,1.8
			l3.3,0.4l5.6,6.3l10.7,6.3l-6.9,13.3l-7.3,3.4l-2.8,7.6l-10.6,7.1l-1.1,4.1c27.1-6.5,47.2-30.9,47.2-60
			C125.7,51.3,121.9,39.5,115.3,29.6z"/>
		<path d="M71.1,96.3l-4.5-8.3l4.1-8.6l-4.1-1.2L62,73.4l-10.3-2.3L48.3,64v4.2h-1.5l-8.8-12v-9.9l-6.5-10.5l-10.3,1.8h-6.9
			l-3.5-2.3l4.5-3.5l-4.4,1C5.4,42,2.3,52.6,2.3,64c0,34.1,27.6,61.7,61.7,61.7c2.6,0,5.2-0.2,7.7-0.5l-0.6-7.5
			c0,0,2.8-11.1,2.8-11.5C73.9,105.9,71.1,96.3,71.1,96.3z"/>
		<path d="M25.2,22.2l11-1.5l5.1-2.8l5.7,1.6L56,19l3.1-4.9l4.5,0.7l11-1l3-3.3L82,7.6l6.1,0.9l2.2-0.3c-8-3.8-16.9-5.9-26.3-5.9
			c-19.2,0-36.3,8.7-47.6,22.5h0L25.2,22.2z M66.6,8.4l6.3-3.5l4,2.3l-5.9,4.5l-5.6,0.6L63,10.6L66.6,8.4z M47.9,8.9l2.8,1.2
			l3.6-1.2l2,3.4l-8.4,2.2l-4-2.4C43.9,12.2,47.8,9.6,47.9,8.9z"/>
	</g>
</g>
</svg>
