<?xml version="1.0" encoding="utf-8"?>
<!-- Generator: Adobe Illustrator 20.1.0, SVG Export Plug-In . SVG Version: 6.00 Build 0)  -->
<svg version="1.1" id="Layer_1" xmlns="http://www.w3.org/2000/svg" xmlns:xlink="http://www.w3.org/1999/xlink" x="0px" y="0px"
	 viewBox="0 0 128 128" style="enable-background:new 0 0 128 128;" xml:space="preserve">
<g>
	<path d="M120.3,33h-9.8v-9.8c0-3.1-2.6-5.7-5.7-5.7H95V7.7C95,4.6,92.4,2,89.3,2H7.7C4.6,2,2,4.6,2,7.7v81.6C2,92.4,4.6,95,7.7,95
		h9.8v9.8c0,3.1,2.6,5.7,5.7,5.7H33v9.8c0,3.1,2.6,5.7,5.7,5.7h81.6c3.1,0,5.7-2.6,5.7-5.7V38.7C126,35.6,123.4,33,120.3,33z
		 M17.5,23.2v61.5h-5.2V12.3h72.3v5.2H23.2C20.1,17.5,17.5,20.1,17.5,23.2z M33,38.7v61.5h-5.2V27.8h72.3V33H38.7
		C35.6,33,33,35.6,33,38.7z M115.7,115.7H43.3V43.3h72.3V115.7z"/>
	<rect x="58.8" y="69.2" width="41.3" height="5.2"/>
	<rect x="58.8" y="58.8" width="41.3" height="5.2"/>
	<rect x="58.8" y="89.8" width="41.3" height="5.2"/>
	<rect x="58.8" y="79.5" width="41.3" height="5.2"/>
	<rect x="58.8" y="100.2" width="41.3" height="5.2"/>
</g>
</svg>
