<?xml version="1.0" encoding="utf-8"?>
<!-- Generator: Adobe Illustrator 20.1.0, SVG Export Plug-In . SVG Version: 6.00 Build 0)  -->
<svg version="1.1" id="Layer_1" xmlns="http://www.w3.org/2000/svg" xmlns:xlink="http://www.w3.org/1999/xlink" x="0px" y="0px"
	 viewBox="0 0 128 128" style="enable-background:new 0 0 128 128;" xml:space="preserve">
<g>
	<g>
		<path d="M35.9,113.5h21.6V91.4h13v22.1h21.6v-99H35.9V113.5z M67.9,26.2h13v13h-13V26.2z M67.9,47.1h13v13h-13V47.1z M67.9,67.9
			h13v13h-13V67.9z M47.1,26.2h13v13h-13V26.2z M47.1,47.1h13v13h-13V47.1z M47.1,67.9h13v13h-13V67.9z"/>
		<path d="M97.2,23.4v70h8.3v20.1h19.7V23.4H97.2z M115,83.9h-11.8V72H115L115,83.9L115,83.9z M115,64.8h-11.8V53H115L115,64.8
			L115,64.8z M115,45.8h-11.8V34H115L115,45.8L115,45.8z"/>
		<path d="M2.8,113.5h19.7V93.4h8.3v-70h-28V113.5z M13,34h11.8v11.8H13V34z M13,53h11.8v11.8H13V53z M13,72h11.8v11.8H13V72z"/>
	</g>
</g>
</svg>
