<?xml version="1.0" encoding="utf-8"?>
<!-- Generator: Adobe Illustrator 23.0.0, SVG Export Plug-In . SVG Version: 6.00 Build 0)  -->
<svg version="1.1" id="Layer_1" xmlns="http://www.w3.org/2000/svg" xmlns:xlink="http://www.w3.org/1999/xlink" x="0px" y="0px"
	 viewBox="0 0 128 128" style="enable-background:new 0 0 128 128;" xml:space="preserve">
<g>
	<path d="M126,100.64c0,14-11.36,25.36-25.36,25.36H27.36C13.36,126,2,114.64,2,100.64V27.36C2,13.36,13.36,2,27.36,2h73.28
		c14,0,25.36,11.36,25.36,25.36V100.64z M114.73,27.36c0-7.75-6.34-14.09-14.09-14.09H27.36c-7.75,0-14.09,6.34-14.09,14.09v73.28
		c0,7.75,6.34,14.09,14.09,14.09h73.28c7.75,0,14.09-6.34,14.09-14.09V27.36z M103.45,66.82c0,1.58-1.23,2.82-2.82,2.82H27.36
		c-1.58,0-2.82-1.23-2.82-2.82v-5.64c0-1.58,1.23-2.82,2.82-2.82h73.28c1.58,0,2.82,1.23,2.82,2.82V66.82z"/>
</g>
</svg>
