<?xml version="1.0" encoding="utf-8"?>
<!-- Generator: Adobe Illustrator 23.0.0, SVG Export Plug-In . SVG Version: 6.00 Build 0)  -->
<svg version="1.1" id="Layer_1" xmlns="http://www.w3.org/2000/svg" xmlns:xlink="http://www.w3.org/1999/xlink" x="0px" y="0px"
	 viewBox="0 0 128 128" style="enable-background:new 0 0 128 128;" xml:space="preserve">
<g>
	<path d="M9.94,97.83c-0.98,0.98-2.48,0.98-3.46,0l-3.75-3.76c-0.98-0.98-0.98-2.48,0-3.45L32.25,61.1L2.73,31.58
		c-0.98-0.98-0.98-2.48,0-3.45l3.75-3.76c0.98-0.98,2.48-0.98,3.46,0l35,35c0.98,0.98,0.98,2.48,0,3.46L9.94,97.83z M126,101.96
		c0,1.35-1.05,2.4-2.4,2.4H51.48c-1.35,0-2.4-1.05-2.4-2.4v-4.81c0-1.35,1.05-2.4,2.4-2.4h72.12c1.35,0,2.4,1.05,2.4,2.4V101.96z"/>
</g>
</svg>
