<?xml version="1.0" encoding="utf-8"?>
<!-- Generator: Adobe Illustrator 23.0.0, SVG Export Plug-In . SVG Version: 6.00 Build 0)  -->
<svg version="1.1" id="Layer_1" xmlns="http://www.w3.org/2000/svg" xmlns:xlink="http://www.w3.org/1999/xlink" x="0px" y="0px"
	 viewBox="0 0 128 128" style="enable-background:new 0 0 128 128;" xml:space="preserve">
<g>
	<path d="M37.36,97.14c-0.88,0.88-2.24,0.88-3.12,0L2.66,65.56c-0.88-0.88-0.88-2.24,0-3.12l31.58-31.58c0.88-0.88,2.24-0.88,3.12,0
		l3.39,3.39c0.88,0.88,0.88,2.24,0,3.12L14.12,64l26.64,26.64c0.88,0.88,0.88,2.24,0,3.12L37.36,97.14z M55.53,108.94
		c-0.34,1.15-1.56,1.83-2.64,1.49l-4.2-1.15c-1.15-0.34-1.83-1.56-1.49-2.71l25.28-87.5c0.34-1.15,1.56-1.83,2.64-1.49l4.2,1.15
		c1.15,0.34,1.83,1.56,1.49,2.71L55.53,108.94z M93.76,97.14c-0.88,0.88-2.24,0.88-3.12,0l-3.39-3.39c-0.88-0.88-0.88-2.24,0-3.12
		L113.88,64L87.25,37.36c-0.88-0.88-0.88-2.24,0-3.12l3.39-3.39c0.88-0.88,2.24-0.88,3.12,0l31.58,31.58c0.88,0.88,0.88,2.24,0,3.12
		L93.76,97.14z"/>
</g>
</svg>
