<?xml version="1.0" encoding="utf-8"?>
<!-- Generator: Adobe Illustrator 23.0.0, SVG Export Plug-In . SVG Version: 6.00 Build 0)  -->
<svg version="1.1" id="Layer_1" xmlns="http://www.w3.org/2000/svg" xmlns:xlink="http://www.w3.org/1999/xlink" x="0px" y="0px"
	 viewBox="0 0 128 128" style="enable-background:new 0 0 128 128;" xml:space="preserve">
<g>
	<g>
		<path d="M81.89,42c5.96,0,10.81-4.85,10.81-10.81c0-5.96-4.85-10.81-10.81-10.81c-5.96,0-10.81,4.85-10.81,10.81
			C71.08,37.15,75.93,42,81.89,42z"/>
		<path d="M125.31,68.98l-7.79-7.79c-0.44-0.44-1.04-0.69-1.67-0.69c-0.63,0-1.23,0.25-1.67,0.69l-2.28,2.28
			c-0.09-0.11-0.19-0.22-0.29-0.32c-1.05-1.05-2.46-1.62-3.97-1.62l-3.69-5.04c-0.98-1.34-2.64-3.21-3.86-4.34l-7.61-7.09
			c-0.55-0.51-1.63-1.23-2.89-1.23c0,0-13.27,0-13.34,0c-1.75,0-3.32,0.97-4.1,2.53l-5.56,11.13c-0.41,0.82-1.43,2.28-2.06,2.95
			l-3.93,4.18c-0.84,0.89-1.28,2.05-1.24,3.27c0.04,1.22,0.55,2.36,1.44,3.19c0.85,0.8,1.96,1.24,3.13,1.24
			c1.26,0,2.47-0.52,3.33-1.44l3.93-4.18c1.23-1.31,2.77-3.51,3.58-5.13l0.83-1.66c0,0,1.16,6.55,1.49,8.74
			c0.02,0.11,0.02,0.24,0.02,0.27L75.8,83.33c-0.14,1.56-0.2,4-0.15,5.56l0.51,14.68c0.09,2.61,2.21,4.66,4.82,4.66
			c0.06,0,0.11,0,0.17,0c2.66-0.09,4.75-2.33,4.65-4.99l-0.51-14.68c-0.04-1.17,0.01-3.21,0.12-4.37l0.86-9.66h1.82l2.65,11.07
			c0.39,1.62,1.18,3.98,1.84,5.5l5.58,12.79c0.77,1.76,2.5,2.9,4.42,2.9c0.04,0,0.09,0,0.13,0c0.62-0.02,1.22-0.15,1.79-0.4
			c1.18-0.52,2.09-1.46,2.56-2.66c0.47-1.2,0.45-2.51-0.07-3.69l-5.58-12.79c-0.44-1.01-1.05-2.82-1.3-3.89l-4.86-23.03
			c0.5,0.56,0.98,1.14,1.3,1.58l3.71,5.06c0.32,0.44,0.72,0.81,1.16,1.11c0.08,1.39,0.64,2.66,1.61,3.63c0.1,0.1,0.21,0.2,0.32,0.29
			l-2.28,2.28c-0.44,0.44-0.69,1.04-0.69,1.67s0.25,1.23,0.69,1.67l7.79,7.79c0.44,0.44,1.04,0.69,1.67,0.69
			c0.63,0,1.23-0.25,1.67-0.69l13.09-13.09c0.44-0.44,0.69-1.04,0.69-1.67C126,70.01,125.75,69.42,125.31,68.98z M105.03,69.71
			c-0.26-0.26-0.46-0.57-0.6-0.91c0.81-0.08,1.57-0.37,2.23-0.86c0.99-0.72,1.63-1.79,1.82-2.99c0.02-0.16,0.04-0.32,0.05-0.48
			c0.41,0.13,0.78,0.35,1.09,0.66c0.1,0.1,0.19,0.22,0.28,0.33l-4.53,4.53C105.25,69.91,105.13,69.82,105.03,69.71z"/>
	</g>
	<path d="M57.27,79.78h-2.43V28.57c0-1.29-1.05-2.34-2.34-2.34h-6.36v-4.11c0-1.29-1.05-2.34-2.34-2.34h-26.1
		c-1.29,0-2.34,1.05-2.34,2.34v4.11H9.01c-1.29,0-2.34,1.05-2.34,2.34v51.21H4.24C3,79.78,2,80.78,2,82.02v7.68
		c0,1.23,1,2.24,2.24,2.24h53.03c1.23,0,2.24-1,2.24-2.24v-7.68C59.51,80.78,58.51,79.78,57.27,79.78z M21.83,70.14
		c0,0.36-0.29,0.65-0.65,0.65h-8.5c-0.36,0-0.65-0.29-0.65-0.65v-8.5c0-0.36,0.29-0.65,0.65-0.65h8.5c0.36,0,0.65,0.29,0.65,0.65
		V70.14z M21.83,56.56c0,0.36-0.29,0.65-0.65,0.65h-8.5c-0.36,0-0.65-0.29-0.65-0.65v-8.5c0-0.36,0.29-0.65,0.65-0.65h8.5
		c0.36,0,0.65,0.29,0.65,0.65V56.56z M21.83,42.84c0,0.36-0.29,0.65-0.65,0.65h-8.5c-0.36,0-0.65-0.29-0.65-0.65v-8.5
		c0-0.36,0.29-0.65,0.65-0.65h8.5c0.36,0,0.65,0.29,0.65,0.65V42.84z M35.66,81.62c0,0.36-0.29,0.65-0.65,0.65h-8.5
		c-0.36,0-0.65-0.29-0.65-0.65V61.64c0-0.36,0.29-0.65,0.65-0.65h8.5c0.36,0,0.65,0.29,0.65,0.65V81.62z M35.66,56.56
		c0,0.36-0.29,0.65-0.65,0.65h-8.5c-0.36,0-0.65-0.29-0.65-0.65v-8.5c0-0.36,0.29-0.65,0.65-0.65h8.5c0.36,0,0.65,0.29,0.65,0.65
		V56.56z M35.66,42.84c0,0.36-0.29,0.65-0.65,0.65h-8.5c-0.36,0-0.65-0.29-0.65-0.65v-8.5c0-0.36,0.29-0.65,0.65-0.65h8.5
		c0.36,0,0.65,0.29,0.65,0.65V42.84z M49.52,70.14c0,0.36-0.29,0.65-0.65,0.65h-8.5c-0.36,0-0.65-0.29-0.65-0.65v-8.5
		c0-0.36,0.29-0.65,0.65-0.65h8.5c0.36,0,0.65,0.29,0.65,0.65V70.14z M49.52,56.56c0,0.36-0.29,0.65-0.65,0.65h-8.5
		c-0.36,0-0.65-0.29-0.65-0.65v-8.5c0-0.36,0.29-0.65,0.65-0.65h8.5c0.36,0,0.65,0.29,0.65,0.65V56.56z M49.52,42.84
		c0,0.36-0.29,0.65-0.65,0.65h-8.5c-0.36,0-0.65-0.29-0.65-0.65v-8.5c0-0.36,0.29-0.65,0.65-0.65h8.5c0.36,0,0.65,0.29,0.65,0.65
		V42.84z"/>
</g>
</svg>
