<?xml version="1.0" encoding="utf-8"?>
<!-- Generator: Adobe Illustrator 20.1.0, SVG Export Plug-In . SVG Version: 6.00 Build 0)  -->
<svg version="1.1" id="Layer_1" xmlns="http://www.w3.org/2000/svg" xmlns:xlink="http://www.w3.org/1999/xlink" x="0px" y="0px"
	 viewBox="0 0 128 128" style="enable-background:new 0 0 128 128;" xml:space="preserve">
<g>
	<g>
		<path d="M124.7,23.9c-0.8-0.8-1.8-1.2-2.9-1.2H6.2c-1.1,0-2.1,0.4-2.9,1.2c-0.8,0.8-1.2,1.8-1.2,2.9v74.3c0,1.1,0.4,2.1,1.2,2.9
			c0.8,0.8,1.8,1.2,2.9,1.2h115.6c1.1,0,2.1-0.4,2.9-1.2c0.8-0.8,1.2-1.8,1.2-2.9V26.8C125.9,25.7,125.5,24.8,124.7,23.9z
			 M117.7,80.5c-4.6,0-8.4,1.6-11.7,4.8c-3.2,3.2-4.8,7.1-4.8,11.7H26.8c0-4.6-1.6-8.5-4.8-11.7c-3.2-3.2-7.1-4.8-11.7-4.8v-33
			c4.6,0,8.5-1.6,11.7-4.8c3.2-3.2,4.8-7.1,4.8-11.7h74.3c0,4.6,1.6,8.5,4.8,11.7c3.2,3.2,7.1,4.8,11.7,4.8L117.7,80.5L117.7,80.5z"
			/>
		<path d="M79.4,46.2c-1.7-2.7-3.8-4.8-6.5-6.5c-2.7-1.7-5.7-2.5-8.9-2.5c-3.2,0-6.2,0.8-8.9,2.5c-2.7,1.7-4.9,3.8-6.5,6.5
			c-1.7,2.7-2.9,5.5-3.8,8.6c-0.9,3.1-1.4,6.2-1.4,9.2c0,3,0.5,6.1,1.4,9.2c0.9,3.1,2.2,6,3.8,8.6c1.7,2.7,3.8,4.8,6.5,6.5
			c2.7,1.7,5.7,2.5,8.9,2.5s6.2-0.8,8.9-2.5c2.7-1.7,4.9-3.8,6.5-6.5c1.7-2.7,2.9-5.5,3.8-8.6c0.9-3.1,1.4-6.2,1.4-9.2
			c0-3-0.4-6.1-1.4-9.2C82.4,51.7,81.1,48.9,79.4,46.2z M76.4,80.5H51.6v-6.2h8.3V55.7h-0.1c-0.6,0.9-1.7,2.1-3.5,3.7l-5-5.2
			l9.5-8.8h7.4v28.9h8.3V80.5z"/>
	</g>
</g>
</svg>
