<?xml version="1.0" encoding="utf-8"?>
<!-- Generator: Adobe Illustrator 23.0.0, SVG Export Plug-In . SVG Version: 6.00 Build 0)  -->
<svg version="1.1" id="Layer_1" xmlns="http://www.w3.org/2000/svg" xmlns:xlink="http://www.w3.org/1999/xlink" x="0px" y="0px"
	 viewBox="0 0 128 128" style="enable-background:new 0 0 128 128;" xml:space="preserve">
<path d="M94.01,48.18c-1.93,7.38-6.44,9.01-8.84,9.33c-1.48,2.96-4.74,9.01-7.99,12.05c-1.3,1.21-2.99,2.24-5.03,3.05
	c-2.6,1.03-5.34,1.55-8.15,1.55c-2.81,0-5.55-0.52-8.15-1.55c-2.03-0.81-3.72-1.83-5.03-3.05c-3.26-3.04-6.51-9.09-7.99-12.05
	c-2.4-0.33-6.91-1.95-8.84-9.33c-1.03-3.95-0.77-7.16,0.79-9.56c0.69-1.06,1.52-1.78,2.3-2.27c0-0.79,0.04-1.77,0.13-2.9
	c-1.4-1.94-3.29-6.13-0.94-12.9c2.48-7.16,8.1-8.27,10.81-8.37c0.92-1.7,2.65-4.12,5.79-6.35C56.36,3.36,60.92,2,65.7,2
	c5.89,0,11.82,2.07,17.14,5.99c8.63,6.36,7.89,20.46,7.68,23.02c0.31,2.15,0.4,4.01,0.4,5.32c0.78,0.49,1.61,1.21,2.3,2.27
	C94.77,41.01,95.04,44.23,94.01,48.18z M119.24,103.14v20.02c0,1.57-1.27,2.84-2.84,2.84H11.59c-1.57,0-2.84-1.27-2.84-2.84v-20.02
	c0-8.2,4.92-15.47,12.54-18.52l24.8-9.92c0.71-0.28,1.51-0.27,2.21,0.05c0.7,0.31,1.25,0.9,1.51,1.62l6.23,17.24l1.23-3.55
	l-1.96-4.8c-0.36-0.87-0.26-1.87,0.27-2.65c0.53-0.78,1.41-1.26,2.35-1.26h12.11c0.95,0,1.83,0.47,2.35,1.26
	c0.53,0.78,0.63,1.78,0.27,2.65l-1.96,4.8l1.23,3.55l6.23-17.24c0.26-0.72,0.81-1.31,1.51-1.62c0.7-0.31,1.5-0.33,2.21-0.05
	l24.8,9.92C114.32,87.67,119.24,94.94,119.24,103.14z M104.14,105.32c0-1.57-1.27-2.84-2.84-2.84H82.26c-1.57,0-2.84,1.27-2.84,2.84
	v8.84c0,1.57,1.27,2.84,2.84,2.84h19.04c1.57,0,2.84-1.27,2.84-2.84L104.14,105.32L104.14,105.32z"/>
</svg>
