<?xml version="1.0" encoding="utf-8"?>
<!-- Generator: Adobe Illustrator 23.0.0, SVG Export Plug-In . SVG Version: 6.00 Build 0)  -->
<svg version="1.1" id="Layer_1" xmlns="http://www.w3.org/2000/svg" xmlns:xlink="http://www.w3.org/1999/xlink" x="0px" y="0px"
	 viewBox="0 0 128 128" style="enable-background:new 0 0 128 128;" xml:space="preserve">
<g>
	<path d="M117.14,19.71v8.86c0,9.76-23.8,17.71-53.14,17.71s-53.14-7.96-53.14-17.71v-8.86C10.86,9.96,34.66,2,64,2
		S117.14,9.96,117.14,19.71z M117.14,43.38v11.76c0,9.76-23.8,17.71-53.14,17.71S10.86,64.9,10.86,55.14V43.38
		C22.28,51.41,43.17,55.14,64,55.14S105.72,51.41,117.14,43.38z M117.14,69.95v11.76c0,9.76-23.8,17.71-53.14,17.71
		s-53.14-7.96-53.14-17.71V69.95C22.28,77.98,43.17,81.71,64,81.71S105.72,77.98,117.14,69.95z M117.14,96.52v11.76
		c0,9.76-23.8,17.71-53.14,17.71s-53.14-7.96-53.14-17.71V96.52c11.42,8.03,32.32,11.76,53.14,11.76S105.72,104.55,117.14,96.52z"/>
</g>
</svg>
