<?xml version="1.0" encoding="utf-8"?>
<!-- Generator: Adobe Illustrator 23.0.0, SVG Export Plug-In . SVG Version: 6.00 Build 0)  -->
<svg version="1.1" id="Layer_1" xmlns="http://www.w3.org/2000/svg" xmlns:xlink="http://www.w3.org/1999/xlink" x="0px" y="0px"
	 viewBox="0 0 128 128" style="enable-background:new 0 0 128 128;" xml:space="preserve">
<g>
	<path d="M98.45,10.13h-8.71c0.1,0.56,0.15,1.14,0.15,1.73v7.6c0,5.42-4.41,9.83-9.83,9.83H47.93c-5.42,0-9.83-4.41-9.83-9.83v-7.6
		c0-0.59,0.05-1.17,0.16-1.73h-8.71c-6.01,0-10.9,4.89-10.9,10.9v94.08c0,6.01,4.89,10.9,10.9,10.9h68.9c6.01,0,10.9-4.89,10.9-10.9
		V21.03C109.34,15.02,104.46,10.13,98.45,10.13z M36.53,45.11c1.73-1.01,3.96-0.43,4.97,1.3l1.71,2.92l8.12-11.74
		c1.14-1.65,3.4-2.06,5.05-0.92c1.65,1.14,2.06,3.4,0.92,5.05L45.94,58.16c-0.68,0.98-1.8,1.57-2.99,1.57c-0.05,0-0.09,0-0.14,0
		c-1.24-0.05-2.37-0.72-3-1.79l-4.59-7.84C34.22,48.35,34.8,46.13,36.53,45.11z M57.3,68.56L45.94,84.99
		c-0.68,0.98-1.8,1.57-2.99,1.57c-0.05,0-0.09,0-0.14,0c-1.24-0.05-2.37-0.72-3-1.79l-4.59-7.84c-1.01-1.73-0.43-3.96,1.3-4.97
		c1.73-1.01,3.96-0.43,4.97,1.3l1.71,2.92l8.12-11.74c1.14-1.65,3.4-2.06,5.05-0.92C58.03,64.65,58.45,66.91,57.3,68.56z
		 M89.87,83.26h-24.6c-2.01,0-3.63-1.63-3.63-3.63S63.26,76,65.27,76h24.6c2.01,0,3.63,1.63,3.63,3.63S91.88,83.26,89.87,83.26z
		 M89.87,69.68h-24.6c-2.01,0-3.63-1.63-3.63-3.63s1.63-3.63,3.63-3.63h24.6c2.01,0,3.63,1.63,3.63,3.63
		C93.5,68.06,91.88,69.68,89.87,69.68z M89.87,56.43h-24.6c-2.01,0-3.63-1.63-3.63-3.63c0-2.01,1.63-3.63,3.63-3.63h24.6
		c2.01,0,3.63,1.63,3.63,3.63C93.5,54.8,91.88,56.43,89.87,56.43z"/>
	<path d="M47.93,22.02h32.13c1.41,0,2.57-1.15,2.57-2.57V4.57c0-1.41-1.15-2.57-2.57-2.57H47.93c-1.41,0-2.57,1.15-2.57,2.57v14.89
		h0C45.37,20.87,46.52,22.02,47.93,22.02z"/>
</g>
</svg>
