<?xml version="1.0" encoding="utf-8"?>
<!-- Generator: Adobe Illustrator 23.0.0, SVG Export Plug-In . SVG Version: 6.00 Build 0)  -->
<svg version="1.1" id="Layer_1" xmlns="http://www.w3.org/2000/svg" xmlns:xlink="http://www.w3.org/1999/xlink" x="0px" y="0px"
	 viewBox="0 0 128 128" style="enable-background:new 0 0 128 128;" xml:space="preserve">
<g>
	<path d="M104.2,114.86h10.9c2.01,0,3.63-1.63,3.63-3.63V96.7H104.2V114.86z"/>
	<path d="M79.2,70.55c1.72-8.85,9.06-15.29,17.74-16.98V34.94H5.63C3.63,34.94,2,36.56,2,38.57v72.66c0,2.01,1.63,3.63,3.63,3.63
		h91.3V96.28C85.3,94.31,76.74,83.18,79.2,70.55z M53.1,92.39v4.01c0,2.01-1.63,3.63-3.63,3.63s-3.63-1.63-3.63-3.63v-4.05
		c-2.4-0.86-4.5-2.47-5.8-4.74c-1.01-1.74-0.41-3.96,1.32-4.96c1.74-1.02,3.96-0.42,4.96,1.32c0.65,1.12,1.86,1.82,3.15,1.82
		c2,0,3.63-1.63,3.63-3.63s-1.63-3.63-3.63-3.63c-6.01,0-10.9-4.89-10.9-10.9c0-4.73,3.05-8.72,7.27-10.23v-4.16
		c0-2.01,1.63-3.63,3.63-3.63s3.63,1.62,3.63,3.63v4.2c2.4,0.86,4.5,2.47,5.8,4.74c1.01,1.74,0.41,3.96-1.32,4.96
		c-1.75,1.01-3.97,0.41-4.96-1.32C51.97,64.7,50.76,64,49.47,64c-2,0-3.63,1.63-3.63,3.63s1.63,3.63,3.63,3.63
		c6.01,0,10.9,4.89,10.9,10.9C60.37,86.89,57.32,90.89,53.1,92.39z"/>
	<path d="M118.73,38.57c0-2.01-1.63-3.63-3.63-3.63h-10.9V53.1h14.53V38.57z"/>
	<path d="M122.37,60.37h-21.8c-8.82,0-15.82,7.89-14.33,16.99c1.17,7.15,7.9,12.08,15.14,12.08h20.98c2.01,0,3.63-1.63,3.63-3.63V64
		C126,61.99,124.37,60.37,122.37,60.37z M100.57,78.53c-2.01,0-3.63-1.63-3.63-3.63s1.63-3.63,3.63-3.63s3.63,1.63,3.63,3.63
		S102.58,78.53,100.57,78.53z"/>
	<path d="M51.6,21.03l-6.83-6.83c-1.42-1.42-3.72-1.42-5.14,0L26.17,27.67h18.79L51.6,21.03z"/>
	<path d="M73.83,14.2c-1.42-1.42-3.72-1.42-5.14,0L55.23,27.67H87.3L73.83,14.2z"/>
</g>
</svg>
