<?xml version="1.0" encoding="utf-8"?>
<!-- Generator: Adobe Illustrator 23.0.0, SVG Export Plug-In . SVG Version: 6.00 Build 0)  -->
<svg version="1.1" id="Layer_1" xmlns="http://www.w3.org/2000/svg" xmlns:xlink="http://www.w3.org/1999/xlink" x="0px" y="0px"
	 viewBox="0 0 128 128" style="enable-background:new 0 0 128 128;" xml:space="preserve">
<g>
	<g>
		<path d="M119.76,60.13L64.87,5.24C62.71,3.08,59.88,2,57.04,2c-2.83,0-5.67,1.08-7.83,3.24L19.16,35.3
			c-4.32,4.32-4.32,11.47,0,15.8l4.98,5.12h11.49L24.91,45.35c-0.75-0.75-0.86-1.7-0.86-2.15c0-0.46,0.11-1.37,0.86-2.12l3.97-3.85
			l18.86,18.98h18.09L37.92,28.16l17.04-17.11c0.75-0.75,1.63-0.89,2.08-0.89c0.46,0,1.33,0.09,2.08,0.84l54.89,54.88
			c0.75,0.75,0.87,1.62,0.87,2.08c0,0.46-0.19,1.33-0.95,2.08l-3.11,3.04v11.49l8.86-8.78C124.01,71.47,124.08,64.46,119.76,60.13z"
			/>
		<path d="M94.01,61.36H16.38c-6.11,0-11.34,4.93-11.34,11.04v29.36h99.9V72.4C104.94,66.28,100.12,61.36,94.01,61.36z M32.16,91.76
			c-2.17,0-4.13-0.86-5.58-2.25c-1.45,1.39-3.41,2.25-5.57,2.25c-4.45,0-8.06-3.6-8.06-8.06c0-4.45,3.61-8.06,8.06-8.06
			c2.17,0,4.13,0.86,5.57,2.25c1.45-1.39,3.41-2.25,5.58-2.25c4.45,0,8.06,3.61,8.06,8.06C40.22,88.16,36.61,91.76,32.16,91.76z"/>
		<path d="M5.04,114.9c0,6.11,5.23,11.1,11.34,11.1h77.63c6.11,0,10.94-4.99,10.94-11.1v-0.65H5.04V114.9z"/>
	</g>
</g>
</svg>
