<?xml version="1.0" encoding="utf-8"?>
<!-- Generator: Adobe Illustrator 23.0.0, SVG Export Plug-In . SVG Version: 6.00 Build 0)  -->
<svg version="1.1" id="Layer_1" xmlns="http://www.w3.org/2000/svg" xmlns:xlink="http://www.w3.org/1999/xlink" x="0px" y="0px"
	 viewBox="0 0 128 128" style="enable-background:new 0 0 128 128;" xml:space="preserve">
<g>
	<g>
		<circle cx="47.52" cy="53.47" r="5.18"/>
		<circle cx="80.45" cy="74.51" r="5.18"/>
		<path d="M123.19,70.85l-1.88-2.57c-2.03-2.79-2.08-6.58-0.08-9.43l1.83-2.59c2.79-3.96,1.5-9.48-2.79-11.79l-2.79-1.5
			c-3.05-1.63-4.73-5.03-4.14-8.46l0.53-3.13c0.81-4.78-2.77-9.2-7.62-9.4l-3.18-0.13c-3.46-0.15-6.45-2.49-7.42-5.82l-0.89-3.05
			c-1.35-4.68-6.48-7.09-10.95-5.16l-2.92,1.25c-3.18,1.37-6.89,0.56-9.2-2.03l-2.11-2.36c-3.23-3.61-8.89-3.58-12.09,0.1L55.4,7.17
			c-2.29,2.62-5.97,3.48-9.17,2.16l-2.95-1.22c-4.5-1.85-9.58,0.66-10.87,5.34l-0.84,3.07c-0.91,3.35-3.86,5.74-7.32,5.92
			l-3.18,0.18c-4.85,0.28-8.36,4.75-7.47,9.53l0.58,3.13c0.64,3.4-0.99,6.83-4.01,8.51L7.4,45.34c-4.24,2.36-5.46,7.9-2.59,11.81
			l1.88,2.57c2.03,2.79,2.08,6.58,0.08,9.43l-1.83,2.59c-2.79,3.96-1.5,9.48,2.79,11.79l2.79,1.5c3.05,1.63,4.73,5.03,4.14,8.46
			l-0.53,3.13c-0.81,4.78,2.77,9.2,7.62,9.4l3.18,0.13c3.46,0.15,6.45,2.49,7.42,5.82l0.89,3.05c1.35,4.68,6.48,7.09,10.95,5.16
			l2.92-1.25c3.18-1.37,6.89-0.56,9.2,2.03l2.11,2.36c3.25,3.61,8.92,3.58,12.09-0.1l2.08-2.39c2.29-2.62,5.97-3.48,9.17-2.16
			l2.95,1.22c4.5,1.85,9.58-0.66,10.87-5.34l0.84-3.07c0.91-3.35,3.86-5.74,7.32-5.92l3.18-0.18c4.85-0.28,8.36-4.75,7.47-9.53
			l-0.58-3.13c-0.64-3.4,0.99-6.83,4.01-8.51l2.77-1.55C124.84,80.32,126.06,74.79,123.19,70.85z M35,53.47
			c0-6.91,5.59-12.5,12.5-12.5S60,46.56,60,53.47s-5.59,12.5-12.5,12.5S35,60.35,35,53.47z M49.91,85.71c-1.07,1.3-3,1.47-4.29,0.41
			l0,0c-1.3-1.07-1.47-3-0.41-4.29l32.8-39.51c1.07-1.3,3-1.47,4.29-0.41c1.3,1.07,1.47,3,0.41,4.29L49.91,85.71z M80.45,87.01
			c-6.91,0-12.5-5.59-12.5-12.5s5.59-12.5,12.5-12.5s12.5,5.59,12.5,12.5S87.36,87.01,80.45,87.01z"/>
	</g>
</g>
</svg>
