<?xml version="1.0" encoding="utf-8"?>
<!-- Generator: Adobe Illustrator 23.0.0, SVG Export Plug-In . SVG Version: 6.00 Build 0)  -->
<svg version="1.1" id="Layer_1" xmlns="http://www.w3.org/2000/svg" xmlns:xlink="http://www.w3.org/1999/xlink" x="0px" y="0px"
	 viewBox="0 0 128 128" style="enable-background:new 0 0 128 128;" xml:space="preserve">
<g>
	<circle cx="64" cy="17.5" r="15.5"/>
	<path d="M83.7,47.73c-0.4-3.98-3.71-6.97-7.7-6.97h-4.25c-1.03,0-2.01,0.41-2.74,1.13L64,46.89l-5.01-5.01
		c-0.73-0.72-1.71-1.13-2.74-1.13h-4.24c-4,0-7.32,3-7.7,6.87l-3.53,27.51c-0.14,1.1,0.2,2.22,0.94,3.05
		c0.74,0.84,1.79,1.32,2.91,1.32h4.18l3.24,39.52c0.39,3.97,3.71,6.97,7.71,6.97h8.49c4,0,7.32-3.01,7.72-7.04L79.2,79.5h4.18
		c1.12,0,2.17-0.48,2.91-1.32c0.74-0.83,1.08-1.95,0.94-3.05L83.7,47.73z"/>
	<circle cx="102.75" cy="17.5" r="15.5"/>
	<circle cx="25.25" cy="17.5" r="15.5"/>
	<path d="M125.97,75.13l-3.52-27.4c-0.4-3.98-3.7-6.98-7.7-6.98h-4.25c-1.03,0-2.01,0.41-2.74,1.13l-5.01,5.01l-5.01-5.01
		c-0.73-0.72-1.71-1.13-2.74-1.13h-4.25c-0.48,0-0.91,0.17-1.37,0.26c1,1.77,1.78,3.68,2.01,5.83l3.51,27.31
		c0.43,3.32-0.6,6.67-2.84,9.19c-1.05,1.21-2.4,2.06-3.84,2.73l2.57,25.21c0.4,3.98,3.71,6.97,7.71,6.97H107
		c4,0,7.32-3.01,7.72-7.04l3.22-31.7h4.18c1.12,0,2.17-0.48,2.91-1.32C125.77,77.35,126.11,76.24,125.97,75.13z"/>
	<path d="M35.9,83.3c-2.2-2.49-3.22-5.83-2.81-9.14l3.53-27.52c0.2-2.06,0.96-3.92,1.93-5.64c-0.43-0.08-0.84-0.25-1.3-0.25H33
		c-1.03,0-2.01,0.41-2.74,1.13l-5.01,5.01l-5.01-5.01c-0.73-0.72-1.71-1.13-2.74-1.13h-4.25c-4,0-7.32,3-7.7,6.87L2.03,75.14
		c-0.14,1.1,0.2,2.22,0.94,3.05c0.74,0.84,1.8,1.32,2.91,1.32h4.18l3.24,31.77c0.39,3.97,3.71,6.97,7.71,6.97h8.49
		c4,0,7.32-3.01,7.72-7.04l2.57-25.15C38.34,85.38,36.98,84.52,35.9,83.3z"/>
</g>
</svg>
