<?xml version="1.0" encoding="utf-8"?>
<!-- Generator: Adobe Illustrator 23.0.0, SVG Export Plug-In . SVG Version: 6.00 Build 0)  -->
<svg version="1.1" id="Layer_1" xmlns="http://www.w3.org/2000/svg" xmlns:xlink="http://www.w3.org/1999/xlink" x="0px" y="0px"
	 viewBox="0 0 128 128" style="enable-background:new 0 0 128 128;" xml:space="preserve">
<g>
	<path d="M126,27.4v73.3c0,7-2.5,13-7.4,17.9c-5,5-10.9,7.4-17.9,7.4H27.4c-7,0-13-2.5-17.9-7.4c-5-5-7.4-10.9-7.4-17.9V27.4
		c0-7,2.5-13,7.4-17.9c5-5,10.9-7.4,17.9-7.4h73.3c7,0,13,2.5,17.9,7.4C123.5,14.4,126,20.4,126,27.4z M114.7,100.6V27.4
		c0-3.9-1.4-7.2-4.1-10c-2.8-2.8-6.1-4.1-10-4.1H27.4c-3.9,0-7.2,1.4-10,4.1c-2.8,2.8-4.1,6.1-4.1,10v73.3c0,3.9,1.4,7.2,4.1,10
		c2.8,2.8,6.1,4.1,10,4.1h73.3c3.9,0,7.2-1.4,10-4.1C113.3,107.8,114.7,104.5,114.7,100.6z M103.4,61.2v5.6c0,0.8-0.3,1.5-0.8,2
		c-0.5,0.5-1.2,0.8-2,0.8h-31v31c0,0.8-0.3,1.5-0.8,2c-0.5,0.5-1.2,0.8-2,0.8h-5.6c-0.8,0-1.5-0.3-2-0.8c-0.5-0.5-0.8-1.2-0.8-2v-31
		h-31c-0.8,0-1.5-0.3-2-0.8c-0.5-0.5-0.8-1.2-0.8-2v-5.6c0-0.8,0.3-1.5,0.8-2c0.5-0.5,1.2-0.8,2-0.8h31v-31c0-0.8,0.3-1.5,0.8-2
		c0.5-0.5,1.2-0.8,2-0.8h5.6c0.8,0,1.5,0.3,2,0.8c0.5,0.5,0.8,1.2,0.8,2v31h31c0.8,0,1.5,0.3,2,0.8
		C103.2,59.7,103.4,60.4,103.4,61.2z"/>
</g>
</svg>
