<?xml version="1.0" encoding="utf-8"?>
<!-- Generator: Adobe Illustrator 23.0.0, SVG Export Plug-In . SVG Version: 6.00 Build 0)  -->
<svg version="1.1" id="Layer_1" xmlns="http://www.w3.org/2000/svg" xmlns:xlink="http://www.w3.org/1999/xlink" x="0px" y="0px"
	 viewBox="0 0 128 128" style="enable-background:new 0 0 128 128;" xml:space="preserve">
<g>
	<path d="M126,25.2v77.5c0,6.4-2.3,11.9-6.8,16.4c-4.5,4.5-10,6.8-16.4,6.8H25.3c-6.4,0-11.9-2.3-16.4-6.8c-4.5-4.5-6.8-10-6.8-16.4
		V25.2c0-6.4,2.3-11.9,6.8-16.4C13.4,4.3,18.8,2,25.3,2h77.5c6.4,0,11.9,2.3,16.4,6.8C123.7,13.4,126,18.8,126,25.2z M105.3,69.2
		V58.8c0-1.4-0.5-2.6-1.5-3.6c-1-1-2.2-1.5-3.6-1.5H74.3V27.8c0-1.4-0.5-2.6-1.5-3.6c-1-1-2.2-1.5-3.6-1.5H58.8
		c-1.4,0-2.6,0.5-3.6,1.5c-1,1-1.5,2.2-1.5,3.6v25.8H27.8c-1.4,0-2.6,0.5-3.6,1.5c-1,1-1.5,2.2-1.5,3.6v10.3c0,1.4,0.5,2.6,1.5,3.6
		c1,1,2.2,1.5,3.6,1.5h25.8v25.8c0,1.4,0.5,2.6,1.5,3.6c1,1,2.2,1.5,3.6,1.5h10.3c1.4,0,2.6-0.5,3.6-1.5c1-1,1.5-2.2,1.5-3.6V74.3
		h25.8c1.4,0,2.6-0.5,3.6-1.5C104.8,71.8,105.3,70.6,105.3,69.2z"/>
</g>
</svg>
