<?xml version="1.0" encoding="utf-8"?>
<!-- Generator: Adobe Illustrator 23.0.0, SVG Export Plug-In . SVG Version: 6.00 Build 0)  -->
<svg version="1.1" id="Layer_1" xmlns="http://www.w3.org/2000/svg" xmlns:xlink="http://www.w3.org/1999/xlink" x="0px" y="0px"
	 viewBox="0 0 128 128" style="enable-background:new 0 0 128 128;" xml:space="preserve">
<g>
	<path d="M117.14,46.29v73.07c0,3.67-2.98,6.65-6.64,6.65h-93c-3.67,0-6.64-2.98-6.64-6.65V8.65C10.86,4.98,13.83,2,17.5,2h55.36
		v37.64c0,3.67,2.98,6.65,6.64,6.65H117.14z M90.57,57.35c0-1.24-0.97-2.21-2.21-2.21H39.64c-1.25,0-2.21,0.97-2.21,2.21v4.43
		c0,1.24,0.97,2.21,2.21,2.21h48.71c1.25,0,2.21-0.97,2.21-2.21V57.35z M90.57,75.07c0-1.24-0.97-2.21-2.21-2.21H39.64
		c-1.25,0-2.21,0.97-2.21,2.21v4.43c0,1.24,0.97,2.21,2.21,2.21h48.71c1.25,0,2.21-0.97,2.21-2.21V75.07z M90.57,92.78
		c0-1.24-0.97-2.21-2.21-2.21H39.64c-1.25,0-2.21,0.97-2.21,2.21v4.43c0,1.24,0.97,2.21,2.21,2.21h48.71c1.25,0,2.21-0.97,2.21-2.21
		V92.78z M114.37,37.43H81.71V4.77c0.97,0.62,1.8,1.25,2.49,1.94l28.23,28.23C113.13,35.63,113.75,36.46,114.37,37.43z"/>
</g>
</svg>
