<?xml version="1.0" encoding="utf-8"?>
<!-- Generator: Adobe Illustrator 20.1.0, SVG Export Plug-In . SVG Version: 6.00 Build 0)  -->
<svg version="1.1" id="Layer_1" xmlns="http://www.w3.org/2000/svg" xmlns:xlink="http://www.w3.org/1999/xlink" x="0px" y="0px"
	 viewBox="0 0 128 128" style="enable-background:new 0 0 128 128;" xml:space="preserve">
<g>
	<g>
		<g>
			<g>
				<rect x="42.6" y="42.9" width="16.5" height="16.5"/>
				<rect x="68.8" y="42.9" width="16.5" height="16.5"/>
				<rect x="95" y="42.9" width="16.5" height="16.5"/>
			</g>
			<g>
				<rect x="16.4" y="67.7" width="16.5" height="16.5"/>
				<rect x="42.6" y="67.7" width="16.5" height="16.5"/>
				<rect x="68.8" y="67.7" width="16.5" height="16.5"/>
				<rect x="95" y="67.7" width="16.5" height="16.5"/>
			</g>
			<g>
				<rect x="16.4" y="92.5" width="16.5" height="16.5"/>
				<rect x="42.6" y="92.5" width="16.5" height="16.5"/>
				<rect x="68.8" y="92.5" width="16.5" height="16.5"/>
			</g>
		</g>
		<g>
			<path d="M117.7,6.4H10.3C5.7,6.4,2,10.1,2,14.7v19.5h124V14.7C126,10.1,122.3,6.4,117.7,6.4z M33.3,27.7c-3.4,0-6.2-2.8-6.2-6.2
				c0-3.4,2.8-6.2,6.2-6.2c3.4,0,6.2,2.8,6.2,6.2C39.5,25,36.7,27.7,33.3,27.7z M94.7,27.7c-3.4,0-6.2-2.8-6.2-6.2
				c0-3.4,2.8-6.2,6.2-6.2c3.4,0,6.2,2.8,6.2,6.2C100.9,25,98.2,27.7,94.7,27.7z"/>
		</g>
		<path d="M120.5,113.3c0,1.5-1.2,2.8-2.8,2.8H10.3c-1.5,0-2.8-1.2-2.8-2.8V42.2H2v71.1c0,4.6,3.7,8.3,8.3,8.3h107.5
			c4.6,0,8.3-3.7,8.3-8.3V42.2h-5.5L120.5,113.3L120.5,113.3z"/>
	</g>
</g>
</svg>
