<?xml version="1.0" encoding="utf-8"?>
<!-- Generator: Adobe Illustrator 20.1.0, SVG Export Plug-In . SVG Version: 6.00 Build 0)  -->
<svg version="1.1" id="Layer_1" xmlns="http://www.w3.org/2000/svg" xmlns:xlink="http://www.w3.org/1999/xlink" x="0px" y="0px"
	 viewBox="0 0 128 128" style="enable-background:new 0 0 128 128;" xml:space="preserve">
<g>
	<path d="M20.4,60.2c2.9,0,5.6-1.2,7.5-3.1l10.8,5.4c-0.1,0.4-0.1,0.9-0.1,1.3c0,6,4.9,10.9,10.9,10.9s10.9-4.9,10.9-10.9
		c0-1.7-0.4-3.2-1.1-4.7l14.6-14.6c1.4,0.7,3,1.1,4.7,1.1c6,0,10.9-4.9,10.9-10.9c0-1.1-0.2-2.2-0.5-3.2l12.7-9.5
		c1.7,1.2,3.8,1.8,6,1.8c6,0,10.9-4.9,10.9-10.9S113.6,2,107.6,2S96.7,6.9,96.7,12.9c0,1.1,0.2,2.2,0.5,3.2l-12.7,9.5
		c-1.7-1.2-3.8-1.8-6-1.8c-6,0-10.9,4.9-10.9,10.9c0,1.7,0.4,3.2,1.1,4.7L54.1,54c-1.4-0.7-3-1.1-4.7-1.1c-2.9,0-5.6,1.2-7.5,3.1
		l-10.8-5.4c0.1-0.4,0.1-0.9,0.1-1.3c0-6-4.9-10.9-10.9-10.9S9.5,43.2,9.5,49.3S14.4,60.2,20.4,60.2z"/>
	<path d="M122.4,119H118V42c0-2-1.1-4-3.1-4h-14.5c-2,0-4.3,2-4.3,4v77h-7V63.8c0-2-1.2-3.8-3.2-3.8H71.3c-2,0-4.3,1.8-4.3,3.8V119
		h-7V92.9c0-2-1.3-3.9-3.3-3.9H42.2c-2,0-4.2,1.8-4.2,3.9V119h-7V78.3c0-2-1.3-3.3-3.3-3.3H13.1c-2,0-4.1,1.3-4.1,3.3V119H5.6
		c-2,0-3.6,1.5-3.6,3.5s1.6,3.5,3.6,3.5h116.7c2,0,3.6-1.5,3.6-3.5S124.4,119,122.4,119z"/>
</g>
</svg>
