<?xml version="1.0" encoding="utf-8"?>
<!-- Generator: Adobe Illustrator 23.0.0, SVG Export Plug-In . SVG Version: 6.00 Build 0)  -->
<svg version="1.1" id="Layer_1" xmlns="http://www.w3.org/2000/svg" xmlns:xlink="http://www.w3.org/1999/xlink" x="0px" y="0px"
	 viewBox="0 0 128 128" style="enable-background:new 0 0 128 128;" xml:space="preserve">
<g>
	<path d="M43.58,72.85c0.67,0,1.33,0.08,1.98,0.22c1.19-3.75,4.7-6.47,8.84-6.47h7.21c1.95,0,3.76,0.62,5.26,1.66
		c0.16-1.27,0.56-2.53,1.24-3.7l4.54-7.85c1.34-2.33,3.51-3.99,6.09-4.69c0.85-0.23,1.73-0.34,2.61-0.34c1.28,0,2.54,0.24,3.71,0.71
		c0.71-4.85,4.9-8.59,9.94-8.59h9.07c0.47,0,0.92,0.07,1.36,0.13v-9.29c0-3.75-3.04-6.79-6.79-6.79H45.2
		c-0.54,0-0.97-0.43-0.97-0.97v-8.41c0-3.75-3.04-6.79-6.79-6.79H8.79C5.04,11.66,2,14.7,2,18.45v66.81c0,3.75,3.04,6.79,6.79,6.79
		h22.69c-1.12-2.6-1.06-5.67,0.46-8.33l3.61-6.24c1.22-2.12,3.28-3.69,5.64-4.32C41.97,72.95,42.78,72.85,43.58,72.85z"/>
	<path d="M99.54,67.91c-5.26,0-9.54,4.28-9.54,9.55c0,5.26,4.28,9.55,9.54,9.55c5.26,0,9.54-4.28,9.54-9.55
		C109.08,72.19,104.8,67.91,99.54,67.91z"/>
	<path d="M124.13,82.1l-3.43-1.98c0.12-0.88,0.27-1.75,0.27-2.66c0-0.91-0.16-1.78-0.27-2.67l3.43-1.98
		c0.86-0.5,1.48-1.31,1.74-2.27c0.26-0.96,0.12-1.98-0.37-2.84l-4.54-7.86c-0.69-1.2-1.94-1.87-3.24-1.87
		c-0.63,0-1.27,0.16-1.86,0.5l-3.41,1.97c-1.43-1.09-2.96-2.06-4.64-2.76v-3.85c0-2.07-1.68-3.74-3.74-3.74H95
		c-2.06,0-3.74,1.67-3.74,3.74v3.85c-1.69,0.7-3.21,1.67-4.64,2.76l-3.4-1.97c-0.57-0.33-1.22-0.5-1.87-0.5
		c-0.33,0-0.65,0.04-0.97,0.13c-0.96,0.26-1.77,0.88-2.27,1.74l-4.54,7.86c-1.03,1.79-0.42,4.07,1.37,5.11l3.43,1.98
		c-0.01,0.09-0.01,0.17-0.03,0.26c0.83,0.69,1.59,1.47,2.14,2.44l3.62,6.26c1.23,2.15,1.56,4.64,0.91,7.06
		c-0.4,1.44-1.12,2.73-2.1,3.81c0.39,0.43,0.7,0.92,1,1.41l2.71-1.56c1.43,1.09,2.95,2.06,4.64,2.76v3.85
		c0,2.06,1.67,3.73,3.74,3.73h9.07c2.06,0,3.74-1.67,3.74-3.73v-3.85c1.69-0.71,3.21-1.67,4.64-2.76l3.41,1.97
		c0.57,0.33,1.22,0.5,1.87,0.5c0.32,0,0.64-0.04,0.96-0.13c0.96-0.26,1.78-0.88,2.27-1.74l4.54-7.86
		C126.53,85.42,125.92,83.13,124.13,82.1z M99.54,91.21c-7.58,0-13.75-6.17-13.75-13.75c0-7.58,6.17-13.75,13.75-13.75
		c7.58,0,13.75,6.17,13.75,13.75C113.29,85.04,107.12,91.21,99.54,91.21z"/>
	<path d="M77.54,98.31l-2.72-1.57c0.08-0.7,0.21-1.39,0.21-2.12c0-0.72-0.13-1.42-0.21-2.12l2.72-1.57c0.68-0.4,1.17-1.04,1.38-1.8
		c0.21-0.76,0.09-1.57-0.3-2.25l-3.61-6.24c-0.55-0.95-1.54-1.48-2.57-1.48c-0.5,0-1.01,0.13-1.48,0.4l-2.71,1.56
		c-1.14-0.87-2.35-1.64-3.68-2.2v-3.05c0-1.64-1.33-2.97-2.97-2.97h-7.21c-1.64,0-2.96,1.33-2.96,2.97v3.05
		c-1.33,0.56-2.55,1.33-3.68,2.2l-2.71-1.57c-0.45-0.26-0.96-0.39-1.47-0.39c-0.26,0-0.52,0.03-0.78,0.1
		c-0.76,0.2-1.41,0.7-1.8,1.38l-3.6,6.24c-0.81,1.42-0.33,3.24,1.09,4.05l2.72,1.57c-0.09,0.7-0.21,1.4-0.21,2.12
		c0,0.73,0.12,1.41,0.21,2.11l-2.72,1.57c-1.42,0.82-1.9,2.63-1.09,4.05l3.6,6.24c0.39,0.68,1.04,1.18,1.8,1.38
		c0.26,0.07,0.51,0.1,0.77,0.1c0.52,0,1.03-0.14,1.48-0.4l2.7-1.56c1.14,0.87,2.36,1.64,3.69,2.2v3.06c0,1.64,1.32,2.96,2.96,2.96
		h7.21c1.64,0,2.97-1.33,2.97-2.96v-3.06c1.33-0.56,2.54-1.33,3.68-2.2l2.71,1.56c0.45,0.27,0.97,0.4,1.48,0.4
		c0.26,0,0.51-0.03,0.76-0.1c0.76-0.2,1.41-0.7,1.8-1.38l3.61-6.24C79.44,100.94,78.96,99.13,77.54,98.31z M58.01,102.8
		c-4.51,0-8.17-3.66-8.17-8.18c0-4.52,3.66-8.18,8.17-8.18c4.52,0,8.18,3.66,8.18,8.18C66.19,99.14,62.53,102.8,58.01,102.8z"/>
</g>
</svg>
