<?xml version="1.0" encoding="utf-8"?>
<!-- Generator: Adobe Illustrator 23.0.0, SVG Export Plug-In . SVG Version: 6.00 Build 0)  -->
<svg version="1.1" id="Layer_1" xmlns="http://www.w3.org/2000/svg" xmlns:xlink="http://www.w3.org/1999/xlink" x="0px" y="0px"
	 viewBox="0 0 128 128" style="enable-background:new 0 0 128 128;" xml:space="preserve">
<g>
	<path d="M103.36,59.78H48.46c-8.25,0-18.48,4.69-23.82,11.02L2.4,96.93l-0.33,0.4C2.07,96.8,2,96.2,2,95.67V32.33
		c0-8.12,6.67-14.78,14.78-14.78H37.9c8.12,0,14.78,6.67,14.78,14.78v2.11h35.9c8.12,0,14.78,6.67,14.78,14.78V59.78z M123.95,76.28
		l-22.17,26.13c-3.83,4.49-11.61,8.05-17.42,8.05h-71.8c-2.37,0-5.74-0.72-5.74-3.7c0-1.59,0.99-3.17,2.05-4.36l22.17-26.13
		c3.83-4.49,11.61-8.05,17.42-8.05h71.8c2.38,0,5.74,0.72,5.74,3.7C126,73.5,125.01,75.09,123.95,76.28z"/>
</g>
</svg>
