<?xml version="1.0" encoding="utf-8"?>
<!-- Generator: Adobe Illustrator 20.1.0, SVG Export Plug-In . SVG Version: 6.00 Build 0)  -->
<svg version="1.1" id="Layer_1" xmlns="http://www.w3.org/2000/svg" xmlns:xlink="http://www.w3.org/1999/xlink" x="0px" y="0px"
	 viewBox="0 0 128 128" style="enable-background:new 0 0 128 128;" xml:space="preserve">
<g>
	<g>
		<g>
			<path d="M119.4,6.8H8.6C4.4,6.8,1,10.2,1,14.3v99.3c0,4.2,3.4,7.6,7.6,7.6h110.8c4.2,0,7.6-3.4,7.6-7.6V14.3
				C127,10.2,123.6,6.8,119.4,6.8z M96.6,19.5c0-1.5,1.3-2.8,2.8-2.8h2.8c1.5,0,2.8,1.3,2.8,2.8v3.2c0,1.5-1.3,2.8-2.8,2.8h-2.8
				c-1.5,0-2.8-1.3-2.8-2.8V19.5z M83.6,19.5c0-1.5,1.3-2.8,2.8-2.8h2.8c1.5,0,2.8,1.3,2.8,2.8v3.2c0,1.5-1.3,2.8-2.8,2.8h-2.8
				c-1.5,0-2.8-1.3-2.8-2.8V19.5z M117.9,112.1H10.1V33.9h107.8V112.1L117.9,112.1z M118,22.7c0,1.5-1.3,2.8-2.8,2.8h-2.8
				c-1.5,0-2.8-1.3-2.8-2.8v-3.2c0-1.5,1.3-2.8,2.8-2.8h2.8c1.5,0,2.8,1.3,2.8,2.8V22.7z"/>
			<path d="M28.1,75.9l20.3,9.4c0.5,0.2,1.1,0.4,1.7,0.4c0.8,0,1.5-0.2,2.1-0.6c1.1-0.7,1.8-2,1.8-3.3v-0.1c0-1.5-0.9-2.9-2.3-3.6
				L39,72.2l12.7-5.9c1.4-0.6,2.3-2,2.3-3.6v-0.1c0-1.4-0.7-2.6-1.8-3.3c-0.6-0.4-1.4-0.6-2.1-0.6c-0.6,0-1.1,0.1-1.7,0.4l-20.3,9.4
				c-1.4,0.6-2.3,2-2.3,3.6v0.3C25.8,73.9,26.7,75.3,28.1,75.9z"/>
			<path d="M54.1,95.1c0.7,1,1.9,1.6,3.2,1.6h0.1c1.7,0,3.2-1.1,3.7-2.7l13.3-41.4c0.4-1.2,0.2-2.5-0.6-3.5c-0.7-1-1.9-1.6-3.2-1.6
				h-0.1c-1.7,0-3.2,1.1-3.8,2.7L53.5,91.6C53.1,92.8,53.4,94.1,54.1,95.1z"/>
			<path d="M74.1,62.8c0,1.5,0.9,2.9,2.3,3.6L89,72.2l-12.7,5.9c-1.4,0.6-2.3,2-2.3,3.6v0.1c0,1.4,0.7,2.6,1.8,3.3
				c0.6,0.4,1.4,0.6,2.1,0.6c0.6,0,1.1-0.1,1.7-0.4l20.3-9.4c1.4-0.6,2.3-2,2.3-3.6v-0.3c0-1.5-0.9-2.9-2.3-3.6l-20.3-9.4
				c-0.5-0.2-1.1-0.4-1.7-0.4c-0.8,0-1.5,0.2-2.1,0.6c-1.1,0.7-1.8,2-1.8,3.3L74.1,62.8L74.1,62.8L74.1,62.8z"/>
		</g>
	</g>
</g>
</svg>
