<?xml version="1.0" encoding="utf-8"?>
<!-- Generator: Adobe Illustrator 20.1.0, SVG Export Plug-In . SVG Version: 6.00 Build 0)  -->
<svg version="1.1" id="Layer_1" xmlns="http://www.w3.org/2000/svg" xmlns:xlink="http://www.w3.org/1999/xlink" x="0px" y="0px"
	 viewBox="0 0 128 128" style="enable-background:new 0 0 128 128;" xml:space="preserve">
<g>
	<polygon points="115.6,115.6 84.6,115.6 84.6,125.9 125.9,125.9 125.9,84.6 115.6,84.6 	"/>
	<polygon points="84.6,2.1 84.6,12.4 115.6,12.4 115.6,43.4 125.9,43.4 125.9,2.1 	"/>
	<polygon points="12.4,12.4 43.4,12.4 43.4,2.1 2.1,2.1 2.1,43.4 12.4,43.4 	"/>
	<polygon points="12.4,84.6 2.1,84.6 2.1,125.9 43.4,125.9 43.4,115.6 12.4,115.6 	"/>
	<path d="M94.9,27.9H33.1v30.9h61.9V27.9z M84.6,48.5H43.4V38.2h41.2V48.5z"/>
	<rect x="33.1" y="69.2" width="61.9" height="10.3"/>
	<rect x="33.1" y="89.8" width="61.9" height="10.3"/>
</g>
</svg>
