<?xml version="1.0" encoding="utf-8"?>
<!-- Generator: Adobe Illustrator 23.0.0, SVG Export Plug-In . SVG Version: 6.00 Build 0)  -->
<svg version="1.1" id="Layer_1" xmlns="http://www.w3.org/2000/svg" xmlns:xlink="http://www.w3.org/1999/xlink" x="0px" y="0px"
	 viewBox="0 0 128 128" style="enable-background:new 0 0 128 128;" xml:space="preserve">
<g>
	<path d="M23.18,72.27h-8.66C8.07,72.27,2,69.17,2,62c0-5.23-0.19-22.8,8.01-22.8c1.36,0,8.07,5.49,16.79,5.49
		c2.97,0,5.81-0.52,8.59-1.49c-0.2,1.42-0.32,2.84-0.32,4.26c0,5.88,1.87,11.69,5.23,16.53C33.58,64.2,27.51,67.1,23.18,72.27z
		 M26.8,39.2c-9.11,0-16.53-7.43-16.53-16.53S17.69,6.13,26.8,6.13s16.53,7.43,16.53,16.53S35.91,39.2,26.8,39.2z M92.22,121.87
		H35.78c-10.33,0-17.24-6.26-17.24-16.73c0-14.59,3.42-37,22.35-37c2.19,0,10.2,8.98,23.12,8.98s20.93-8.98,23.12-8.98
		c18.92,0,22.35,22.41,22.35,37C109.47,115.6,102.56,121.87,92.22,121.87z M64,72.27c-13.69,0-24.8-11.11-24.8-24.8
		s11.11-24.8,24.8-24.8s24.8,11.11,24.8,24.8S77.69,72.27,64,72.27z M101.2,39.2c-9.11,0-16.53-7.43-16.53-16.53
		S92.09,6.13,101.2,6.13s16.53,7.43,16.53,16.53S110.31,39.2,101.2,39.2z M113.47,72.27h-8.65C100.49,67.1,94.42,64.2,87.7,64
		c3.36-4.84,5.23-10.66,5.23-16.53c0-1.42-0.13-2.84-0.32-4.26c2.78,0.97,5.62,1.49,8.59,1.49c8.72,0,15.44-5.49,16.79-5.49
		c8.2,0,8.01,17.57,8.01,22.8C126,69.17,119.93,72.27,113.47,72.27z"/>
</g>
</svg>
