<?xml version="1.0" encoding="utf-8"?>
<!-- Generator: Adobe Illustrator 23.0.0, SVG Export Plug-In . SVG Version: 6.00 Build 0)  -->
<svg version="1.1" id="Layer_1" xmlns="http://www.w3.org/2000/svg" xmlns:xlink="http://www.w3.org/1999/xlink" x="0px" y="0px"
	 viewBox="0 0 128 128" style="enable-background:new 0 0 128 128;" xml:space="preserve">
<path d="M123.93,117.73h-6.2V72.27H97.07v45.47h-6.2V90.87H70.2v26.87H64V26.8H43.33v90.93h-6.2v-74.4H16.47v74.4h-6.2V4.07
	C10.27,2.92,9.34,2,8.2,2S6.13,2.92,6.13,4.07v113.67H4.07c-1.14,0-2.07,0.92-2.07,2.07s0.92,2.07,2.07,2.07h2.07v2.07
	c0,1.14,0.92,2.07,2.07,2.07s2.07-0.92,2.07-2.07v-2.07h113.67c1.14,0,2.07-0.92,2.07-2.07S125.08,117.73,123.93,117.73z"/>
</svg>
