<?xml version="1.0" encoding="utf-8"?>
<!-- Generator: Adobe Illustrator 20.1.0, SVG Export Plug-In . SVG Version: 6.00 Build 0)  -->
<svg version="1.1" id="Layer_1" xmlns="http://www.w3.org/2000/svg" xmlns:xlink="http://www.w3.org/1999/xlink" x="0px" y="0px"
	 viewBox="0 0 128 128" style="enable-background:new 0 0 128 128;" xml:space="preserve">
<g>
	<g>
		<g>
			<path d="M123.9,58.4l-18.8-18.8V17.9c0-3.9-3.2-7.1-7.1-7.1c-3.9,0-7.1,3.2-7.1,7.1v7.5l-14-14C70,4.5,58,4.5,51.1,11.5l-47,47
				c-2.8,2.8-2.8,7.3,0,10.1c2.8,2.8,7.3,2.8,10.1,0l47-47c1.5-1.5,4.2-1.5,5.8,0l47,47c1.4,1.4,3.2,2.1,5,2.1c1.8,0,3.6-0.7,5-2.1
				C126.7,65.7,126.7,61.2,123.9,58.4z"/>
			<path d="M66.5,35c-1.4-1.4-3.6-1.4-4.9,0L20.2,76.3c-0.7,0.7-1,1.5-1,2.5v30.1c0,7.1,5.7,12.8,12.8,12.8h20.5V90h23.1v31.7H96
				c7.1,0,12.8-5.7,12.8-12.8V78.8c0-0.9-0.4-1.8-1-2.5L66.5,35z"/>
		</g>
	</g>
</g>
</svg>
