<?xml version="1.0" encoding="utf-8"?>
<!-- Generator: Adobe Illustrator 23.0.0, SVG Export Plug-In . SVG Version: 6.00 Build 0)  -->
<svg version="1.1" id="Layer_1" xmlns="http://www.w3.org/2000/svg" xmlns:xlink="http://www.w3.org/1999/xlink" x="0px" y="0px"
	 viewBox="0 0 128 128" style="enable-background:new 0 0 128 128;" xml:space="preserve">
<g>
	<path d="M126,100.81c0,5.33-4.36,9.69-9.69,9.69H11.69c-5.33,0-9.69-4.36-9.69-9.69V27.19c0-5.33,4.36-9.69,9.69-9.69h104.63
		c5.33,0,9.69,4.36,9.69,9.69V100.81z M118.25,33v-5.81c0-1.09-0.85-1.94-1.94-1.94H11.69c-1.09,0-1.94,0.85-1.94,1.94V33H118.25z
		 M46.32,65.94c-2.42,2.42-5.75,3.88-9.45,3.88s-7.02-1.45-9.45-3.88c-7.99,0-9.93,9.2-9.93,17.2c0,4.42,2.91,7.99,6.48,7.99h25.79
		c3.57,0,6.48-3.57,6.48-7.99C56.25,75.14,54.31,65.94,46.32,65.94z M36.88,44.63c-6.42,0-11.63,5.21-11.63,11.63
		s5.21,11.63,11.63,11.63S48.5,62.67,48.5,56.25S43.29,44.63,36.88,44.63z M110.5,50.44c0-1.09-0.85-1.94-1.94-1.94H65.94
		c-1.09,0-1.94,0.85-1.94,1.94v3.88c0,1.09,0.85,1.94,1.94,1.94h42.63c1.09,0,1.94-0.85,1.94-1.94V50.44z M87.25,65.94
		c0-1.09-0.85-1.94-1.94-1.94H65.94C64.85,64,64,64.85,64,65.94v3.88c0,1.09,0.85,1.94,1.94,1.94h19.38c1.09,0,1.94-0.85,1.94-1.94
		V65.94z M110.5,81.44c0-1.09-0.85-1.94-1.94-1.94H65.94c-1.09,0-1.94,0.85-1.94,1.94v3.88c0,1.09,0.85,1.94,1.94,1.94h42.63
		c1.09,0,1.94-0.85,1.94-1.94V81.44z M110.5,65.94c0-1.09-0.85-1.94-1.94-1.94H96.94C95.85,64,95,64.85,95,65.94v3.88
		c0,1.09,0.85,1.94,1.94,1.94h11.63c1.09,0,1.94-0.85,1.94-1.94V65.94z"/>
</g>
</svg>
