<?xml version="1.0" encoding="utf-8"?>
<!-- Generator: Adobe Illustrator 20.1.0, SVG Export Plug-In . SVG Version: 6.00 Build 0)  -->
<svg version="1.1" id="Layer_1" xmlns="http://www.w3.org/2000/svg" xmlns:xlink="http://www.w3.org/1999/xlink" x="0px" y="0px"
	 viewBox="0 0 128 128" style="enable-background:new 0 0 128 128;" xml:space="preserve">
<g id="Livello_111">
	<path d="M2,123.6l30.3-25V47.6L2,72.6V123.6z M63.4,72.1L33.7,47.6v51.1l29.7,24.5V72.1z M73.2,23.5c0,5.3-4.3,9.5-9.5,9.5
		c-5.3,0-9.5-4.3-9.5-9.5s4.3-9.5,9.5-9.5C68.9,13.9,73.2,18.2,73.2,23.5 M80.5,33c1.6-2.8,2.6-6.1,2.6-9.5
		c0-10.5-8.5-19.1-19.1-19.1c-10.5,0-19.1,8.5-19.1,19.1c0,4.6,1.7,8.9,4.4,12.2L64,56.8l14.9-21.5c0.5-0.7,1-1.4,1.5-2.1L80.5,33
		L80.5,33z M64.8,122.9L94,98.9V47.8L64.8,71.9V122.9z M126,123.6V72.6L95.3,47.3v51.1L126,123.6z"/>
</g>
</svg>
