<?xml version="1.0" encoding="utf-8"?>
<!-- Generator: Adobe Illustrator 23.0.0, SVG Export Plug-In . SVG Version: 6.00 Build 0)  -->
<svg version="1.1" id="Layer_1" xmlns="http://www.w3.org/2000/svg" xmlns:xlink="http://www.w3.org/1999/xlink" x="0px" y="0px"
	 viewBox="0 0 128 128" style="enable-background:new 0 0 128 128;" xml:space="preserve">
<g>
	<path d="M96.05,67.63l-43.92,43.91c-0.97,0.97-2.26,1.54-3.63,1.54c-2.83,0-5.17-2.34-5.17-5.17V84.67H7.17
		C4.34,84.67,2,82.33,2,79.5v-31c0-2.83,2.34-5.17,5.17-5.17h36.17V20.09c0-2.83,2.34-5.17,5.17-5.17c1.37,0,2.66,0.57,3.63,1.54
		l43.92,43.91c0.97,0.97,1.53,2.26,1.53,3.63C97.58,65.37,97.02,66.66,96.05,67.63z M126,92.42c0,12.83-10.41,23.25-23.25,23.25
		H76.92c-1.37,0-2.58-1.21-2.58-2.58c0-2.27-1.05-7.75,2.58-7.75h25.83c7.1,0,12.92-5.81,12.92-12.91V35.58
		c0-7.1-5.81-12.91-12.92-12.91H79.5c-2.02,0-5.17,0.4-5.17-2.58c0-2.27-1.05-7.75,2.58-7.75h25.83c12.84,0,23.25,10.41,23.25,23.25
		V92.42z"/>
</g>
</svg>
