<?xml version="1.0" encoding="utf-8"?>
<!-- Generator: Adobe Illustrator 23.0.0, SVG Export Plug-In . SVG Version: 6.00 Build 0)  -->
<svg version="1.1" id="Layer_1" xmlns="http://www.w3.org/2000/svg" xmlns:xlink="http://www.w3.org/1999/xlink" x="0px" y="0px"
	 viewBox="0 0 128 128" style="enable-background:new 0 0 128 128;" xml:space="preserve">
<g>
	<path d="M50.08,114.61H24.78C12.2,114.61,2,104.41,2,91.84V36.16c0-12.57,10.2-22.77,22.78-22.77h25.31c1.34,0,2.53,1.19,2.53,2.53
		c0,2.22,1.03,7.59-2.53,7.59H24.78c-6.96,0-12.65,5.69-12.65,12.65v55.68c0,6.96,5.69,12.65,12.65,12.65h22.78
		c1.98,0,5.06-0.39,5.06,2.53C52.61,109.24,53.64,114.61,50.08,114.61z M124.5,67.56l-43.02,43.02c-0.95,0.95-2.21,1.51-3.56,1.51
		c-2.77,0-5.06-2.29-5.06-5.07V84.25H37.43c-2.77,0-5.06-2.29-5.06-5.06V48.82c0-2.77,2.29-5.06,5.06-5.06h35.43V20.98
		c0-2.77,2.29-5.07,5.06-5.07c1.34,0,2.61,0.56,3.56,1.51l43.02,43.02c0.95,0.95,1.5,2.21,1.5,3.56
		C126,65.35,125.45,66.61,124.5,67.56z"/>
</g>
</svg>
