<?xml version="1.0" encoding="utf-8"?>
<!-- Generator: Adobe Illustrator 23.0.0, SVG Export Plug-In . SVG Version: 6.00 Build 0)  -->
<svg version="1.1" id="Layer_1" xmlns="http://www.w3.org/2000/svg" xmlns:xlink="http://www.w3.org/1999/xlink" x="0px" y="0px"
	 viewBox="0 0 128 128" style="enable-background:new 0 0 128 128;" xml:space="preserve">
<g>
	<path d="M116.46,126c-2.53,0-4.99-1.04-6.71-2.83L84.2,97.68c-8.72,6.04-19.15,9.24-29.73,9.24C25.47,106.92,2,83.45,2,54.46
		S25.47,2,54.46,2s52.46,23.47,52.46,52.46c0,10.58-3.2,21.01-9.24,29.73l25.56,25.56c1.72,1.71,2.76,4.17,2.76,6.71
		C126,121.68,121.68,126,116.46,126z M54.46,21.08c-18.41,0-33.38,14.98-33.38,33.38s14.97,33.38,33.38,33.38
		s33.38-14.98,33.38-33.38S72.87,21.08,54.46,21.08z"/>
</g>
</svg>
