<?xml version="1.0" encoding="utf-8"?>
<!-- Generator: Adobe Illustrator 20.1.0, SVG Export Plug-In . SVG Version: 6.00 Build 0)  -->
<svg version="1.1" id="Layer_1" xmlns="http://www.w3.org/2000/svg" xmlns:xlink="http://www.w3.org/1999/xlink" x="0px" y="0px"
	 viewBox="0 0 128 128" style="enable-background:new 0 0 128 128;" xml:space="preserve">
<g>
	<g>
		<path d="M58.5,13.5c-0.6-1.5-1.8-0.8-3.5-1.8c-1.7-1-3.5,0.4-5.5,0.4H20.4c-1.9,0-3.6-0.5-5.3,0.6s-2.8,0-3.4,1.4l-5.6,8h58.3
			L58.5,13.5z"/>
		<g>
			<polygon points="89.7,64 82.1,86 97.1,86 89.8,64 			"/>
			<path d="M126,103.4v-70c0-2.2,0.2-5.6-3.7-10.3c-0.6-1.5-0.6-0.6-2.3-1.6s-2.4,0.6-4.4,0.6H86.5c-1.9,0-3.6-1.6-5.3-0.6
				s-2.8,1.2-3.4,2.7l-1.5,1.4c-0.9,1.2-1.8,2.7-2.7,4.4c-0.9,1.7-1.4,4.1-1.4,4.1H13.8c-2.2,0-6.1,0.5-7.6,2S2,39.1,2,41.2v62.2
				c0,4.3,3.5,6.5,6.6,9.5s8.7,3.1,13,3.1h93.3c4.3,0,5.7-0.1,8.8-3.1S126,107.7,126,103.4z M109,107.8c-2.8,0-4.9-0.4-5.8-2.9
				L99.9,96H79.3l-3.4,8.8c-0.9,2.5-2.7,3.2-5.7,3.2c-3.5,0-6-2.3-6-5.8c0-1.4,0.8-3.8,1.3-5l16.6-41.6c1.1-2.9,3.1-1.6,6.3-1.6h3.1
				c2.9,0,5.5-1.6,6.9,2.3l15.5,42c0.5,1.3,1.3,2.9,1.3,4.4C115.1,105.8,112.3,107.8,109,107.8z"/>
		</g>
	</g>
</g>
</svg>
