<?xml version="1.0" encoding="utf-8"?>
<!-- Generator: Adobe Illustrator 23.0.0, SVG Export Plug-In . SVG Version: 6.00 Build 0)  -->
<svg version="1.1" id="Layer_1" xmlns="http://www.w3.org/2000/svg" xmlns:xlink="http://www.w3.org/1999/xlink" x="0px" y="0px"
	 viewBox="0 0 128 128" style="enable-background:new 0 0 128 128;" xml:space="preserve">
<path d="M111.28,16.91H16.72C8.6,16.91,2,23.25,2,31.04v65.91c0,7.79,6.6,14.13,14.72,14.13h94.56c8.12,0,14.72-6.34,14.72-14.13
	V31.04C126,23.25,119.4,16.91,111.28,16.91z M111.28,98.61H16.72c-1.19,0-2.24-0.77-2.24-1.66v-57.2l42.77,36.11
	c0.88,0.74,1.99,1.15,3.14,1.15l7.22,0c1.15,0,2.26-0.41,3.14-1.15l42.77-36.11v57.2C113.52,97.84,112.48,98.61,111.28,98.61z
	 M64,64.63L22.4,29.39h83.2L64,64.63z"/>
</svg>
