<?xml version="1.0" encoding="utf-8"?>
<!-- Generator: Adobe Illustrator 23.0.0, SVG Export Plug-In . SVG Version: 6.00 Build 0)  -->
<svg version="1.1" id="Layer_1" xmlns="http://www.w3.org/2000/svg" xmlns:xlink="http://www.w3.org/1999/xlink" x="0px" y="0px"
	 viewBox="0 0 128 128" style="enable-background:new 0 0 128 128;" xml:space="preserve">
<g>
	<circle cx="92.79" cy="117.14" r="2.21"/>
	<path d="M77.29,2v4.43h11.07c1.22,0,2.21,0.99,2.21,2.21c0,1.22-0.99,2.21-2.21,2.21H77.29v4.43h6.64c1.22,0,2.21,0.99,2.21,2.21
		s-0.99,2.21-2.21,2.21h-6.64v4.43h11.07c1.22,0,2.21,0.99,2.21,2.21c0,1.22-0.99,2.21-2.21,2.21H77.29V33h6.64
		c1.22,0,2.21,0.99,2.21,2.21c0,1.22-0.99,2.21-2.21,2.21h-6.64v4.43h11.07c1.22,0,2.21,0.99,2.21,2.21c0,1.22-0.99,2.21-2.21,2.21
		H77.29v4.43h6.64c1.22,0,2.21,0.99,2.21,2.21c0,1.22-0.99,2.21-2.21,2.21h-6.64v4.43h11.07c1.22,0,2.21,0.99,2.21,2.21
		c0,1.22-0.99,2.21-2.21,2.21H77.29v4.43h6.64c1.22,0,2.21,0.99,2.21,2.21c0,1.22-0.99,2.21-2.21,2.21h-6.64v4.43h11.07
		c1.22,0,2.21,0.99,2.21,2.21s-0.99,2.21-2.21,2.21H77.29v4.43h6.64c1.22,0,2.21,0.99,2.21,2.21c0,1.22-0.99,2.21-2.21,2.21h-6.64
		V95h11.07c1.22,0,2.21,0.99,2.21,2.21s-0.99,2.21-2.21,2.21H77.29v4.43h6.64c1.22,0,2.21,0.99,2.21,2.21s-0.99,2.21-2.21,2.21
		h-6.64V126h31V2H77.29z M92.79,123.79c-3.67,0-6.64-2.97-6.64-6.64c0-3.67,2.97-6.64,6.64-6.64c3.67,0,6.64,2.97,6.64,6.64
		C99.43,120.81,96.45,123.79,92.79,123.79z"/>
	<rect x="19.71" y="33" width="8.86" height="70.86"/>
	<rect x="33" y="33" width="8.86" height="70.86"/>
	<polygon points="30.79,123.91 40.16,108.29 21.41,108.29 	"/>
	<rect x="19.71" y="24.14" width="22.14" height="4.43"/>
	<path d="M35.21,2h-8.86c-3.67,0-6.64,2.97-6.64,6.64v11.07h22.14V8.64C41.86,4.97,38.88,2,35.21,2z"/>
</g>
</svg>
