<?xml version="1.0" encoding="utf-8"?>
<!-- Generator: Adobe Illustrator 23.0.0, SVG Export Plug-In . SVG Version: 6.00 Build 0)  -->
<svg version="1.1" id="Layer_1" xmlns="http://www.w3.org/2000/svg" xmlns:xlink="http://www.w3.org/1999/xlink" x="0px" y="0px"
	 viewBox="0 0 128 128" style="enable-background:new 0 0 128 128;" xml:space="preserve">
<g>
	<path d="M104.15,57.9L36.05,126H2V91.95l68.1-68.1L104.15,57.9z M39.16,108.08L19.92,88.84l-7.45,7.45v8.76h10.48v10.48h8.76
		L39.16,108.08z M72.72,37.77c-0.5,0-0.99,0.16-1.39,0.57L26.96,82.7c-0.41,0.41-0.57,0.9-0.57,1.39c0,1.06,0.74,1.8,1.8,1.8
		c0.49,0,0.98-0.17,1.39-0.57l44.36-44.36c0.4-0.41,0.57-0.9,0.57-1.39C74.52,38.5,73.78,37.77,72.72,37.77z M122.97,39.08
		l-13.59,13.59L75.34,18.62L88.92,5.11C90.8,3.15,93.51,2,96.29,2c2.78,0,5.49,1.15,7.45,3.11l19.23,19.15
		c1.88,1.96,3.03,4.67,3.03,7.45S124.85,37.2,122.97,39.08z"/>
</g>
</svg>
