<?xml version="1.0" encoding="utf-8"?>
<!-- Generator: Adobe Illustrator 23.0.0, SVG Export Plug-In . SVG Version: 6.00 Build 0)  -->
<svg version="1.1" id="Layer_1" xmlns="http://www.w3.org/2000/svg" xmlns:xlink="http://www.w3.org/1999/xlink" x="0px" y="0px"
	 viewBox="0 0 128 128" style="enable-background:new 0 0 128 128;" xml:space="preserve">
<g>
	<path d="M126,64c0,34.23-27.77,62-62,62S2,98.23,2,64S29.77,2,64,2S126,29.77,126,64z M97.58,64c0-1.86-0.97-3.55-2.58-4.44
		L51.08,33.73c-1.53-0.97-3.55-0.97-5.17-0.08c-1.61,0.97-2.58,2.66-2.58,4.52v51.67c0,1.86,0.97,3.55,2.58,4.52
		c0.81,0.4,1.7,0.65,2.58,0.65s1.78-0.24,2.58-0.73L95,68.44C96.61,67.55,97.58,65.86,97.58,64z"/>
</g>
</svg>
