<?xml version="1.0" encoding="utf-8"?>
<!-- Generator: Adobe Illustrator 20.1.0, SVG Export Plug-In . SVG Version: 6.00 Build 0)  -->
<svg version="1.1" id="Layer_1" xmlns="http://www.w3.org/2000/svg" xmlns:xlink="http://www.w3.org/1999/xlink" x="0px" y="0px"
	 viewBox="0 0 128 128" style="enable-background:new 0 0 128 128;" xml:space="preserve">
<g>
	<path d="M72,106.6c0,0-2-0.6-2-0.6c-0.7-0.2-1.5-0.2-2.1,0.2L64,108l-3.9-1.9c-0.7-0.3-1.4-0.4-2.1-0.2c0,0-1.9,0.6-2,0.6
		c-3.4,1.1-5.6,4.3-5.6,7.8v8.7c0,1.6,1.3,2.9,2.9,2.9h21.3c1.6,0,2.9-1.3,2.9-2.9v-8.7C77.6,110.9,75.4,107.7,72,106.6L72,106.6z"
		/>
	<path d="M54.7,95c0,5.1,4.2,9.3,9.3,9.3s9.3-4.2,9.3-9.3s-4.2-9.3-9.3-9.3C58.9,85.7,54.7,89.9,54.7,95L54.7,95z"/>
	<path d="M53.3,42.7h21.3c1.6,0,2.9-1.3,2.9-2.9v-8.7c0-3.5-2.3-6.7-5.6-7.8c0,0-2-0.6-2-0.6c-0.7-0.2-1.5-0.2-2.1,0.2L64,24.7
		l-3.9-1.9c-0.7-0.3-1.4-0.4-2.1-0.2c0,0-1.9,0.6-2,0.6c-3.4,1.1-5.6,4.3-5.6,7.8v8.7C50.4,41.3,51.7,42.7,53.3,42.7z"/>
	<path d="M64,20.5c5.1,0,9.3-4.2,9.3-9.3S69.1,2,64,2s-9.3,4.2-9.3,9.3S58.9,20.5,64,20.5z"/>
	<path d="M27.1,106.6c0,0-2-0.6-2-0.6c-0.7-0.2-1.5-0.2-2.1,0.2l-3.9,1.9l-3.9-1.9c-0.7-0.3-1.4-0.4-2.1-0.2c0,0-1.9,0.6-2,0.6
		c-3.4,1.1-5.6,4.3-5.6,7.8v8.7c0,1.6,1.3,2.9,2.9,2.9h21.3c1.6,0,2.9-1.3,2.9-2.9v-8.7C32.7,110.9,30.5,107.7,27.1,106.6
		L27.1,106.6z"/>
	<path d="M19.1,104.2c5.1,0,9.3-4.2,9.3-9.3s-4.2-9.3-9.3-9.3S9.9,89.9,9.9,95S14,104.2,19.1,104.2z"/>
	<path d="M116.9,106.6c0,0-2-0.6-2-0.6c-0.7-0.2-1.5-0.2-2.1,0.2l-3.9,1.9l-3.9-1.9c-0.7-0.3-1.4-0.4-2.1-0.2c0,0-1.9,0.6-2,0.6
		c-3.4,1.1-5.6,4.3-5.6,7.8v8.7c0,1.6,1.3,2.9,2.9,2.9h21.3c1.6,0,2.9-1.3,2.9-2.9v-8.7C122.5,110.9,120.2,107.7,116.9,106.6
		L116.9,106.6z"/>
	<path d="M99.6,95c0,5.1,4.2,9.3,9.3,9.3c5.1,0,9.3-4.2,9.3-9.3s-4.2-9.3-9.3-9.3S99.6,89.9,99.6,95L99.6,95z"/>
	<path d="M19.1,78c2,0,3.6-1.6,3.6-3.6v-7.2h37.7v7.2c0,2,1.6,3.6,3.6,3.6s3.6-1.6,3.6-3.6v-7.2h37.7v7.2c0,2,1.6,3.6,3.6,3.6
		c2,0,3.6-1.6,3.6-3.6V63.7c0-2-1.6-3.6-3.6-3.6H67.6v-9.9c0-2-1.6-3.6-3.6-3.6s-3.6,1.6-3.6,3.6v9.9H19.1c-2,0-3.6,1.6-3.6,3.6
		v10.7C15.5,76.4,17.1,78,19.1,78L19.1,78z"/>
</g>
</svg>
