<?xml version="1.0" encoding="utf-8"?>
<!-- Generator: Adobe Illustrator 20.1.0, SVG Export Plug-In . SVG Version: 6.00 Build 0)  -->
<svg version="1.1" id="Layer_1" xmlns="http://www.w3.org/2000/svg" xmlns:xlink="http://www.w3.org/1999/xlink" x="0px" y="0px"
	 viewBox="0 0 128 128" style="enable-background:new 0 0 128 128;" xml:space="preserve">
<g>
	<path d="M95.2,13.4h-8V6c0-2.2-1.8-4-4-4H44.8c-2.2,0-4,1.8-4,4v7.5h-8c-5.1,0-9.3,4.2-9.3,9.3v94c0,5.1,4.2,9.3,9.3,9.3h62.4
		c5.1,0,9.3-4.2,9.3-9.3v-94C104.5,17.6,100.3,13.4,95.2,13.4z M74.6,22.7v-9.3V10h4.6v3.5v9.3v8.8h-4.6V22.7z M48.7,22.7v-9.3V10
		h14.6v3.5v9.3v8.8H48.7V22.7L48.7,22.7z M51.2,115.1c0,2.2-1.8,4-4,4h-6.4c-2.2,0-4-1.8-4-4v-6.9c0-2.2,1.8-4,4-4h6.4
		c2.2,0,4,1.8,4,4L51.2,115.1L51.2,115.1z M51.2,95.1c0,2.2-1.8,4-4,4h-6.4c-2.2,0-4-1.8-4-4v-6.9c0-2.2,1.8-4,4-4h6.4
		c2.2,0,4,1.8,4,4L51.2,95.1L51.2,95.1z M51.2,75.1c0,2.2-1.8,4-4,4h-6.4c-2.2,0-4-1.8-4-4v-6.9c0-2.2,1.8-4,4-4h6.4
		c2.2,0,4,1.8,4,4L51.2,75.1L51.2,75.1z M71.2,115.1c0,2.2-1.8,4-4,4h-6.4c-2.2,0-4-1.8-4-4v-6.9c0-2.2,1.8-4,4-4h6.4
		c2.2,0,4,1.8,4,4V115.1z M71.2,95.1c0,2.2-1.8,4-4,4h-6.4c-2.2,0-4-1.8-4-4v-6.9c0-2.2,1.8-4,4-4h6.4c2.2,0,4,1.8,4,4V95.1z
		 M71.2,75.1c0,2.2-1.8,4-4,4h-6.4c-2.2,0-4-1.8-4-4v-6.9c0-2.2,1.8-4,4-4h6.4c2.2,0,4,1.8,4,4V75.1z M91.2,115.1c0,2.2-1.8,4-4,4
		h-6.4c-2.2,0-4-1.8-4-4v-6.9c0-2.2,1.8-4,4-4h6.4c2.2,0,4,1.8,4,4V115.1z M91.2,95.1c0,2.2-1.8,4-4,4h-6.4c-2.2,0-4-1.8-4-4v-6.9
		c0-2.2,1.8-4,4-4h6.4c2.2,0,4,1.8,4,4V95.1z M91.2,75.1c0,2.2-1.8,4-4,4h-6.4c-2.2,0-4-1.8-4-4v-6.9c0-2.2,1.8-4,4-4h6.4
		c2.2,0,4,1.8,4,4V75.1z M91.2,51.8c0,3.8-3,6.8-6.8,6.8H43.6c-3.8,0-6.8-3-6.8-6.8v-7c0-3.8,3-6.8,6.8-6.8h40.8
		c3.8,0,6.8,3,6.8,6.8L91.2,51.8L91.2,51.8z"/>
</g>
</svg>
