<?xml version="1.0" encoding="utf-8"?>
<!-- Generator: Adobe Illustrator 23.0.0, SVG Export Plug-In . SVG Version: 6.00 Build 0)  -->
<svg version="1.1" id="Layer_1" xmlns="http://www.w3.org/2000/svg" xmlns:xlink="http://www.w3.org/1999/xlink" x="0px" y="0px"
	 viewBox="0 0 128 128" style="enable-background:new 0 0 128 128;" xml:space="preserve">
<g>
	<path d="M126,55.15c0,4.91-3.94,8.86-8.86,8.86v26.57c0,4.84-4.01,8.86-8.86,8.86C95.97,89.19,76.11,75.14,52.1,73.13
		c-8.23,2.77-11.08,12.39-5.67,17.93c-4.84,7.96,1.38,13.56,8.72,19.31c-4.3,8.44-22.14,8.57-28.51,2.69
		c-4.01-12.32-9.97-24.63-5.12-40.2h-8.43C6.98,72.86,2,67.88,2,61.78V48.51c0-6.09,4.98-11.08,11.08-11.08h33.21
		c26.57,0,48.71-15.49,62-26.57c4.84,0,8.86,4.01,8.86,8.86v26.57C122.06,46.29,126,50.23,126,55.15z M108.29,22.07
		c-18.06,13.84-35.57,21.8-53.14,23.74v18.68c17.57,1.94,35.09,9.75,53.14,23.6V22.07z"/>
</g>
</svg>
