<?xml version="1.0" encoding="utf-8"?>
<!-- Generator: Adobe Illustrator 23.0.0, SVG Export Plug-In . SVG Version: 6.00 Build 0)  -->
<svg version="1.1" id="Layer_1" xmlns="http://www.w3.org/2000/svg" xmlns:xlink="http://www.w3.org/1999/xlink" x="0px" y="0px"
	 viewBox="0 0 128 128" style="enable-background:new 0 0 128 128;" xml:space="preserve">
<g>
	<path d="M21.38,33c-2.14,0-3.87,1.74-3.87,3.87v3.87H5.88C3.74,40.75,2,42.48,2,44.62v23.25c0,2.14,1.74,3.87,3.87,3.87H17.5v3.87
		c0,2.14,1.74,3.87,3.87,3.87h2.35l15.58,41.52c0.95,2.49,3.08,4.29,5.7,4.82c0.52,0.11,1.04,0.16,1.55,0.16
		c2.07,0,4.04-0.82,5.45-2.29l9.31-9.23c2.38-2.38,2.94-6.09,1.43-8.97l-13-26.02h10.29c1.33,0.06,2.65,0.27,3.98,0.4V32.6
		c-1.34,0.12-2.67,0.33-4.01,0.4H21.38z"/>
	<path d="M90.65,51.69c0.58-0.25,1.08-0.6,1.5-1.04c0.42-0.44,0.75-0.97,0.99-1.58c0.24-0.61,0.36-1.25,0.36-1.93
		c0-0.68-0.12-1.31-0.36-1.91c-0.24-0.59-0.57-1.12-0.99-1.58s-0.92-0.81-1.5-1.07c-0.58-0.26-1.19-0.38-1.83-0.38
		c-0.65,0-1.26,0.13-1.83,0.38c-0.58,0.25-1.08,0.61-1.5,1.07c-0.42,0.46-0.76,0.98-1.02,1.58c-0.25,0.59-0.38,1.23-0.38,1.91
		c0,0.68,0.13,1.32,0.38,1.93c0.25,0.61,0.59,1.14,1.02,1.58c0.42,0.44,0.92,0.79,1.5,1.04c0.58,0.26,1.19,0.38,1.83,0.38
		C89.46,52.07,90.07,51.95,90.65,51.69z"/>
	<path d="M113.72,61.84c-0.42-0.44-0.92-0.79-1.5-1.04c-0.58-0.25-1.19-0.38-1.83-0.38c-0.64,0-1.25,0.13-1.83,0.38
		c-0.58,0.25-1.08,0.6-1.5,1.04c-0.42,0.44-0.76,0.97-1.02,1.58c-0.25,0.61-0.38,1.26-0.38,1.93c0,0.68,0.13,1.31,0.38,1.91
		c0.26,0.59,0.59,1.12,1.02,1.58s0.92,0.81,1.5,1.07c0.58,0.25,1.19,0.38,1.83,0.38c0.64,0,1.25-0.13,1.83-0.38
		c0.58-0.25,1.08-0.61,1.5-1.07c0.42-0.46,0.76-0.98,1.02-1.58c0.25-0.59,0.38-1.23,0.38-1.91c0-0.68-0.13-1.32-0.38-1.93
		C114.48,62.81,114.14,62.28,113.72,61.84z"/>
	<path d="M125.36,3.88c-0.08-0.13-0.15-0.24-0.25-0.36c-0.43-0.54-0.96-0.98-1.62-1.24c-0.02-0.01-0.04-0.04-0.06-0.05
		c-0.08-0.02-0.15,0.02-0.22-0.01c-0.35-0.1-0.7-0.22-1.08-0.22c-0.26,0-0.5,0.1-0.75,0.15c-0.15,0.03-0.29,0.04-0.43,0.09
		c-0.67,0.22-1.24,0.59-1.7,1.1c-0.03,0.03-0.08,0.04-0.11,0.07C107.05,18.08,90.2,27.89,71.75,31.49v49.53
		c18.45,3.6,35.3,13.4,47.38,28.07c0.03,0.04,0.09,0.05,0.12,0.1c0.27,0.3,0.6,0.54,0.96,0.74c0.12,0.07,0.21,0.17,0.33,0.22
		c0.49,0.21,1.02,0.34,1.58,0.34c0.44,0,0.88-0.08,1.31-0.22c0.02-0.01,0.04-0.04,0.06-0.05c0.66-0.26,1.19-0.69,1.62-1.24
		c0.09-0.12,0.16-0.23,0.25-0.36c0.37-0.6,0.64-1.26,0.64-2V5.87C126,5.13,125.73,4.47,125.36,3.88z M82.76,53.19
		c-0.78-0.78-1.4-1.69-1.86-2.72c-0.46-1.03-0.69-2.14-0.69-3.33c0-1.19,0.23-2.3,0.69-3.33c0.46-1.03,1.08-1.94,1.86-2.72
		c0.78-0.78,1.69-1.39,2.72-1.83c1.03-0.44,2.14-0.66,3.33-0.66c1.15,0,2.25,0.22,3.31,0.66c1.05,0.44,1.96,1.05,2.72,1.83
		c0.76,0.78,1.37,1.69,1.83,2.72c0.46,1.04,0.69,2.15,0.69,3.33c0,1.19-0.23,2.3-0.69,3.33c-0.46,1.04-1.07,1.94-1.83,2.72
		c-0.76,0.78-1.67,1.39-2.72,1.83c-1.05,0.44-2.15,0.66-3.31,0.66c-1.19,0-2.3-0.22-3.33-0.66C84.45,54.59,83.54,53.97,82.76,53.19z
		 M87.85,73.9l19.38-35.31h4.12L91.97,73.9H87.85z M118.28,68.69c-0.44,1.04-1.05,1.94-1.83,2.72c-0.78,0.78-1.69,1.39-2.72,1.83
		c-1.04,0.44-2.15,0.66-3.33,0.66c-1.19,0-2.3-0.22-3.33-0.66c-1.04-0.44-1.94-1.05-2.72-1.83c-0.78-0.78-1.39-1.69-1.83-2.72
		c-0.44-1.03-0.66-2.14-0.66-3.33c0-1.19,0.22-2.3,0.66-3.33c0.44-1.03,1.05-1.94,1.83-2.72c0.78-0.78,1.69-1.4,2.72-1.86
		c1.03-0.46,2.14-0.69,3.33-0.69c1.19,0,2.3,0.23,3.33,0.69c1.03,0.46,1.94,1.08,2.72,1.86c0.78,0.78,1.39,1.69,1.83,2.72
		c0.44,1.04,0.66,2.15,0.66,3.33C118.94,66.54,118.72,67.65,118.28,68.69z"/>
</g>
</svg>
