<?xml version="1.0" encoding="utf-8"?>
<!-- Generator: Adobe Illustrator 23.0.0, SVG Export Plug-In . SVG Version: 6.00 Build 0)  -->
<svg version="1.1" id="Layer_1" xmlns="http://www.w3.org/2000/svg" xmlns:xlink="http://www.w3.org/1999/xlink" x="0px" y="0px"
	 viewBox="0 0 128 128" style="enable-background:new 0 0 128 128;" xml:space="preserve">
<style type="text/css">
	.st0{fill:#030104;}
</style>
<g>
	<g>
		<path class="st0" d="M125.33,21.86c-0.7-1.16-1.84-1.98-3.17-2.25L51.93,2.68c-2.31-0.45-4.6,0.83-5.4,3.04L19.76,73.74l8.94,3.26
			l25.37-64.67L115.1,27.9c-3.81,11.82-12.88,36.48-21.58,59.44c-7.58,20.04-11.94,26.9-20.23,28.3c-0.01-0.01-0.02-0.02-0.02-0.03
			c-16.94,2.38-16.64-19.22-16.64-19.22L2.52,74.52c-3.85,24.37,14.88,30.23,14.88,30.23l39.62,17.99
			c0.01,0.01,6.19,2.95,12.92,2.65c18.13-0.43,24.5-13.59,32.49-34.68c11.53-30.48,23.24-64.64,23.36-65
			C126.19,24.41,126.03,23.02,125.33,21.86z"/>
		<path class="st0" d="M93.32,49.29c0.41,0.11,0.84,0.17,1.26,0.17c2.09,0,4-1.39,4.58-3.5c0.7-2.54-0.81-5.16-3.34-5.85
			l-20.61-6.36c-2.5-0.69-5.15,0.8-5.84,3.33c-0.69,2.54,0.8,5.16,3.34,5.85L93.32,49.29z"/>
		<path class="st0" d="M61.11,56.13c-0.83,2.5,0.52,5.19,3.01,6.02l20.51,7.33c0.5,0.17,0.99,0.24,1.48,0.24
			c2,0.01,3.87-1.25,4.54-3.25c0.83-2.49-0.51-5.18-3.01-6.02l-20.5-7.32C64.63,52.31,61.94,53.65,61.11,56.13z"/>
		<path class="st0" d="M59.3,72.99c-2.49-0.83-5.19,0.53-6,3.03c-0.82,2.49,0.55,5.18,3.04,6l20.55,7.3
			c0.5,0.17,0.99,0.24,1.49,0.24c2,0,3.86-1.27,4.51-3.27c0.82-2.5-0.54-5.19-3.04-6.01L59.3,72.99z"/>
		<path class="st0" d="M58.54,28.2c2.91,0,5.28,2.3,5.28,5.13c0,2.83-2.36,5.13-5.28,5.13c-2.91,0-5.28-2.3-5.28-5.13
			C53.27,30.5,55.63,28.2,58.54,28.2z"/>
		<path class="st0" d="M51.08,47.27c2.91,0,5.28,2.3,5.28,5.13c0,2.83-2.36,5.12-5.28,5.12c-2.91,0-5.28-2.3-5.28-5.12
			C45.8,49.56,48.17,47.27,51.08,47.27z"/>
		<path class="st0" d="M43.12,66.94c2.91,0,5.28,2.3,5.28,5.13c0,2.83-2.36,5.12-5.28,5.12c-2.91,0-5.28-2.29-5.28-5.12
			C37.84,69.24,40.21,66.94,43.12,66.94z"/>
	</g>
</g>
</svg>
