<?xml version="1.0" encoding="utf-8"?>
<!-- Generator: Adobe Illustrator 20.1.0, SVG Export Plug-In . SVG Version: 6.00 Build 0)  -->
<svg version="1.1" id="Layer_1" xmlns="http://www.w3.org/2000/svg" xmlns:xlink="http://www.w3.org/1999/xlink" x="0px" y="0px"
	 viewBox="0 0 128 128" style="enable-background:new 0 0 128 128;" xml:space="preserve">
<g>
	<g id="shopping-cart">
		<path d="M39.2,101.2c-6.8,0-12.4,5.6-12.4,12.4c0,6.8,5.6,12.4,12.4,12.4s12.4-5.6,12.4-12.4C51.6,106.8,46,101.2,39.2,101.2z
			 M2,2v12.4h12.4l22.3,47.1L28,76.4c-0.6,1.9-1.2,4.3-1.2,6.2c0,6.8,5.6,12.4,12.4,12.4h74.4V82.6H41.7c-0.6,0-1.2-0.6-1.2-1.2
			v-0.6L46,70.2h45.9c5,0,8.7-2.5,10.5-6.2l22.3-40.3c1.2-1.2,1.2-1.9,1.2-3.1c0-3.7-2.5-6.2-6.2-6.2H28L22.5,2H2z M101.2,101.2
			c-6.8,0-12.4,5.6-12.4,12.4c0,6.8,5.6,12.4,12.4,12.4c6.8,0,12.4-5.6,12.4-12.4C113.6,106.8,108,101.2,101.2,101.2z"/>
	</g>
</g>
</svg>
