<?xml version="1.0" encoding="utf-8"?>
<!-- Generator: Adobe Illustrator 23.0.0, SVG Export Plug-In . SVG Version: 6.00 Build 0)  -->
<svg version="1.1" id="Layer_1" xmlns="http://www.w3.org/2000/svg" xmlns:xlink="http://www.w3.org/1999/xlink" x="0px" y="0px"
	 viewBox="0 0 128 128" style="enable-background:new 0 0 128 128;" xml:space="preserve">
<path d="M117.04,61.58H99.11V4.42c0-0.98-0.59-1.86-1.5-2.24c-0.91-0.38-1.95-0.17-2.64,0.52l-6.86,6.86l-6.86-6.86
	c-0.95-0.95-2.48-0.95-3.43,0l-6.86,6.86l-6.86-6.86c-0.95-0.95-2.48-0.95-3.43,0l-6.86,6.86l-6.86-6.86
	c-0.95-0.95-2.48-0.95-3.43,0l-6.86,6.86l-6.86-6.86c-0.95-0.95-2.48-0.95-3.43,0l-6.86,6.86l-6.86-6.86
	c-0.94-0.94-2.46-0.94-3.41-0.01c-0.5,0.49-0.74,1.14-0.72,1.79v108.92c0,6.94,5.65,12.59,12.59,12.59h85.73c0,0,0,0,0,0
	c0,0,0,0,0,0c6.94,0,12.59-5.65,12.59-12.59V64C119.46,62.66,118.38,61.58,117.04,61.58z M29.98,103.49
	c-0.45,0.45-1.08,0.71-1.71,0.71s-1.26-0.26-1.71-0.71c-0.45-0.45-0.71-1.08-0.71-1.71c0-0.64,0.26-1.26,0.71-1.71
	c0.45-0.45,1.08-0.71,1.71-0.71s1.26,0.26,1.71,0.71c0.45,0.45,0.71,1.08,0.71,1.71C30.69,102.42,30.43,103.04,29.98,103.49z
	 M29.98,87.51c-0.45,0.45-1.08,0.71-1.71,0.71s-1.26-0.26-1.71-0.71c-0.45-0.45-0.71-1.08-0.71-1.71c0-0.64,0.26-1.26,0.71-1.71
	c0.45-0.45,1.08-0.71,1.71-0.71s1.26,0.26,1.71,0.71c0.45,0.45,0.71,1.08,0.71,1.71C30.69,86.44,30.43,87.06,29.98,87.51z
	 M29.98,71.53c-0.45,0.45-1.08,0.71-1.71,0.71s-1.26-0.26-1.71-0.71c-0.45-0.45-0.71-1.08-0.71-1.71c0-0.64,0.26-1.26,0.71-1.71
	c0.45-0.45,1.08-0.71,1.71-0.71s1.26,0.26,1.71,0.71c0.45,0.45,0.71,1.08,0.71,1.71C30.69,70.45,30.43,71.08,29.98,71.53z
	 M34.22,45.32H29.5c-1.34,0-2.42-1.08-2.42-2.42c0-1.34,1.08-2.42,2.42-2.42h4.72c1.34,0,2.42,1.08,2.42,2.42
	C36.64,44.23,35.55,45.32,34.22,45.32z M73.44,40.47h4.72c1.34,0,2.42,1.08,2.42,2.42c0,1.34-1.08,2.42-2.42,2.42h-4.72
	c-1.34,0-2.42-1.08-2.42-2.42C71.02,41.56,72.1,40.47,73.44,40.47z M53.83,45.32c-5.07,0-9.2-3.85-9.2-8.58
	c0-3.95,2.88-7.28,6.78-8.27v-1.64c0-1.34,1.08-2.42,2.42-2.42s2.42,1.08,2.42,2.42v1.64c3.9,0.99,6.78,4.32,6.78,8.27
	c0,1.34-1.08,2.42-2.42,2.42c-1.34,0-2.42-1.08-2.42-2.42c0-2.06-1.96-3.73-4.36-3.73c-2.4,0-4.36,1.67-4.36,3.73
	c0,2.06,1.96,3.73,4.36,3.73c5.07,0,9.2,3.85,9.2,8.58c0,3.95-2.88,7.28-6.78,8.27v1.98c0,1.34-1.08,2.42-2.42,2.42
	s-2.42-1.08-2.42-2.42v-1.98c-3.9-0.99-6.78-4.32-6.78-8.27c0-1.34,1.08-2.42,2.42-2.42c1.34,0,2.42,1.08,2.42,2.42
	c0,2.06,1.96,3.73,4.36,3.73s4.36-1.67,4.36-3.73S56.23,45.32,53.83,45.32z M79.38,104.2H41.02c-1.34,0-2.42-1.08-2.42-2.42
	c0-1.34,1.08-2.42,2.42-2.42h38.37c1.34,0,2.42,1.08,2.42,2.42C81.81,103.12,80.72,104.2,79.38,104.2z M79.38,88.22H41.02
	c-1.34,0-2.42-1.08-2.42-2.42c0-1.34,1.08-2.42,2.42-2.42h38.37c1.34,0,2.42,1.08,2.42,2.42C81.81,87.14,80.72,88.22,79.38,88.22z
	 M79.38,72.24H41.02c-1.34,0-2.42-1.08-2.42-2.42c0-1.34,1.08-2.42,2.42-2.42h38.37c1.34,0,2.42,1.08,2.42,2.42
	C81.81,71.15,80.72,72.24,79.38,72.24z M114.62,113.41c0,4.27-3.48,7.75-7.75,7.75s-7.75-3.48-7.75-7.75V66.42h15.5V113.41z"/>
</svg>
