<?xml version="1.0" encoding="utf-8"?>
<!-- Generator: Adobe Illustrator 23.0.0, SVG Export Plug-In . SVG Version: 6.00 Build 0)  -->
<svg version="1.1" id="Layer_1" xmlns="http://www.w3.org/2000/svg" xmlns:xlink="http://www.w3.org/1999/xlink" x="0px" y="0px"
	 viewBox="0 0 128 128" style="enable-background:new 0 0 128 128;" xml:space="preserve">
<g>
	<path d="M99.96,8.44v99.9l10.87,17.62h4.29L126,108.35V8.44H99.96z M118.74,106.29l-5.76,9.33l-5.76-9.33v-4.28h11.51V106.29z
		 M118.74,94.75h-11.51V35.58h11.51V94.75z M118.74,28.32h-11.51V15.7h11.51V28.32z"/>
	<path d="M75.23,2.03h-7.26v7.39h-9.37V2.03h-7.26v7.39h-9.37V2.03h-7.26v7.39h-9.37V2.03h-7.26v7.39H2v116.54h89.32V9.43H75.23
		V2.03z M25.24,103.45l-8.72-10.42l6.16-5.15l3.39,4.06l8.32-7.45l5.35,5.97L25.24,103.45z M25.24,80.38l-8.72-10.42l6.16-5.15
		l3.39,4.06l8.32-7.45l5.35,5.97L25.24,80.38z M25.24,57.31l-8.72-10.42l6.16-5.15l3.39,4.06l8.32-7.45l5.35,5.98L25.24,57.31z
		 M76.79,98.98H45.78v-8.02h31.02V98.98z M76.79,75.92H45.78v-8.02h31.02V75.92z M76.79,44.82v8.02H45.78v-8.02H76.79z"/>
</g>
</svg>
