<?xml version="1.0" encoding="utf-8"?>
<!-- Generator: Adobe Illustrator 23.0.0, SVG Export Plug-In . SVG Version: 6.00 Build 0)  -->
<svg version="1.1" id="Layer_1" xmlns="http://www.w3.org/2000/svg" xmlns:xlink="http://www.w3.org/1999/xlink" x="0px" y="0px"
	 viewBox="0 0 128 128" style="enable-background:new 0 0 128 128;" xml:space="preserve">
<g>
	<g>
		<path d="M71.41,110.55c-0.93,1.32-2.3,2.28-3.85,2.71l-7.74,2.11c-0.61,0.17-1.23,0.26-1.87,0.26c-1.43,0-2.81-0.44-3.97-1.25
			c-1.71-1.19-2.78-3.06-2.95-5.09l-0.68-7.99c-0.16-1.64,0.28-3.28,1.21-4.6l0.29-0.41H24.23c-2.23,0-4.03-1.84-4.03-4.06
			c0-2.23,1.81-4.07,4.03-4.07h33.43l7.47-10.67h-40.9c-2.23,0-4.03-1.84-4.03-4.07c0-2.23,1.81-4.07,4.03-4.07l46.65-0.12
			l17.49-25.08V25.58c0-3.05-2.36-5.52-5.41-5.52H69.57v10.6c0,5-4.09,8.96-9.08,8.96H33.56c-5.01,0-8.95-3.96-8.95-8.96v-10.6
			H11.07c-3.05,0-5.52,2.47-5.52,5.52v94.77c0,3.05,2.47,5.65,5.52,5.65h71.89c3.05,0,5.41-2.6,5.41-5.65V86.46L71.41,110.55z
			 M24.23,50.55H69.8c2.22,0,4.03,1.83,4.03,4.06s-1.81,4.07-4.03,4.07H24.23c-2.23,0-4.03-1.84-4.03-4.07S22,50.55,24.23,50.55z"/>
		<path d="M33.63,34.29h26.91c2.04,0,3.69-1.65,3.69-3.7V15.12c0-2.04-1.66-3.7-3.69-3.7h-4.05C56.46,6.22,52.23,2,47.02,2
			c-5.22,0-9.44,4.22-9.47,9.42h-3.91c-2.04,0-3.69,1.65-3.69,3.7v15.47C29.94,32.63,31.59,34.29,33.63,34.29z M47.02,7.25
			c2.32,0,4.2,1.86,4.22,4.18h-8.45C42.82,9.11,44.7,7.25,47.02,7.25z"/>
		<path d="M122.41,26.91c-0.12-0.69-0.52-1.29-1.09-1.69l-6.74-4.7c-0.46-0.32-0.98-0.47-1.5-0.47c-0.82,0-1.64,0.39-2.14,1.12
			L63.22,89.61l11.02,7.69l47.73-68.43C122.37,28.3,122.53,27.6,122.41,26.91z"/>
		<path d="M55.71,100.78l0.69,8.04c0.03,0.46,0.28,0.88,0.65,1.14c0.27,0.18,0.58,0.29,0.89,0.29c0.14,0,0.27-0.02,0.41-0.06
			l7.78-2.13c0.35-0.1,0.66-0.31,0.87-0.61l2.92-4.19l-11.03-7.69l-2.92,4.19C55.76,100.06,55.67,100.42,55.71,100.78z"/>
	</g>
</g>
</svg>
