<?xml version="1.0" encoding="utf-8"?>
<!-- Generator: Adobe Illustrator 23.0.0, SVG Export Plug-In . SVG Version: 6.00 Build 0)  -->
<svg version="1.1" id="Layer_1" xmlns="http://www.w3.org/2000/svg" xmlns:xlink="http://www.w3.org/1999/xlink" x="0px" y="0px"
	 viewBox="0 0 128 128" style="enable-background:new 0 0 128 128;" xml:space="preserve">
<g>
	<path d="M102.47,90.93c-6,0-10.85,4.88-10.85,10.9c0,6.02,4.86,10.9,10.85,10.9s10.86-4.88,10.86-10.9
		C113.32,95.81,108.46,90.93,102.47,90.93z"/>
	<path d="M117.85,111.14c-4.01,0-7.26,3.33-7.26,7.43c0,4.11,3.25,7.43,7.26,7.43c4.01,0,7.26-3.33,7.26-7.43
		C125.11,114.46,121.86,111.14,117.85,111.14z"/>
	<path d="M87.06,101.9c0-8.57,6.92-15.51,15.45-15.51c5.57,0,10.44,2.97,13.16,7.41c5.35-9.07,8.43-19.64,8.43-30.95
		C124.1,29.24,96.97,2,63.5,2C30.02,2,2.89,29.24,2.89,62.85c0,33.61,27.13,60.85,60.61,60.85c11.33,0,21.92-3.13,30.99-8.56
		C90.04,112.41,87.06,107.51,87.06,101.9z M63.5,95.12c-17.76,0-32.15-14.45-32.15-32.28S45.74,30.57,63.5,30.57
		s32.15,14.45,32.15,32.28S81.25,95.12,63.5,95.12z"/>
</g>
</svg>
