<?xml version="1.0" encoding="utf-8"?>
<!-- Generator: Adobe Illustrator 23.0.0, SVG Export Plug-In . SVG Version: 6.00 Build 0)  -->
<svg version="1.1" id="Layer_1" xmlns="http://www.w3.org/2000/svg" xmlns:xlink="http://www.w3.org/1999/xlink" x="0px" y="0px"
	 viewBox="0 0 128 128" style="enable-background:new 0 0 128 128;" xml:space="preserve">
<g>
	<path d="M52.39,81.59c-1.76,0-3.18,1.45-3.18,3.24c0,1.79,1.42,3.24,3.18,3.24c1.76,0,3.18-1.45,3.18-3.24
		C55.57,83.04,54.14,81.59,52.39,81.59z"/>
	<path d="M45.64,72.76c-2.63,0-4.76,2.13-4.76,4.76c0,2.63,2.13,4.76,4.76,4.76s4.76-2.13,4.76-4.76
		C50.4,74.89,48.27,72.76,45.64,72.76z"/>
	<path d="M38.89,77.55c0-3.74,3.03-6.77,6.77-6.77c2.44,0,4.58,1.3,5.77,3.23c2.34-3.96,3.69-8.58,3.69-13.51
		c0-14.67-11.89-26.56-26.56-26.56C13.89,33.94,2,45.83,2,60.5c0,14.67,11.89,26.56,26.56,26.56c4.96,0,9.61-1.37,13.58-3.74
		C40.2,82.14,38.89,80,38.89,77.55z M28.56,74.6c-7.78,0-14.09-6.31-14.09-14.09s6.31-14.09,14.09-14.09s14.09,6.31,14.09,14.09
		S36.35,74.6,28.56,74.6z"/>
	<path d="M120.27,61.74v3.4c-2.05-2.36-4.94-3.84-8.16-3.84c-6.21,0-11.24,5.49-11.24,12.25s5.03,12.25,11.24,12.25
		c3.22,0,6.11-1.48,8.16-3.84v12.09H126V61.74H120.27z M113.59,80.96c-3.79,0-6.87-3.29-6.87-7.34c0-4.05,3.07-7.34,6.87-7.34
		c3.79,0,6.87,3.29,6.87,7.34C120.46,77.67,117.38,80.96,113.59,80.96z"/>
	<path d="M93.15,51.66c-1.76,0-3.18,1.42-3.18,3.18c0,1.76,1.42,3.18,3.18,3.18c1.76,0,3.18-1.42,3.18-3.18
		C96.33,53.09,94.9,51.66,93.15,51.66z"/>
	<path d="M76.73,73.09c0,3.02-1.01,6.94-5.66,6.94c-4.13,0-4.17-3-4.17-5.89V61.55h-6.43v14.88c0,5.31,2.99,9.25,8.84,9.25
		c3.36,0,5.7-1.46,7.66-3.75h0.09v3.38h6.09V61.55h-6.43V73.09z"/>
	<rect x="90.35" y="61.72" width="5.65" height="23.61"/>
</g>
</svg>
