<?xml version="1.0" encoding="utf-8"?>
<!-- Generator: Adobe Illustrator 23.0.0, SVG Export Plug-In . SVG Version: 6.00 Build 0)  -->
<svg version="1.1" id="Layer_1" xmlns="http://www.w3.org/2000/svg" xmlns:xlink="http://www.w3.org/1999/xlink" x="0px" y="0px"
	 viewBox="0 0 128 128" style="enable-background:new 0 0 128 128;" xml:space="preserve">
<g>
	<path d="M64,126C29.78,126,2,98.22,2,64S29.78,2,64,2s62,27.78,62,62S98.22,126,64,126z M104.28,75.38c2.01-2.01,2.01-5.24,0-7.27
		L67.63,31.47c-2.01-2.01-5.25-2.01-7.27,0L23.72,68.12c-2.01,2.01-2.01,5.24,0,7.27l8.23,8.23c2.01,2.01,5.25,2.01,7.27,0L64,58.84
		l24.78,24.78c2.01,2.02,5.25,2.02,7.27,0L104.28,75.38z"/>
</g>
</svg>
