<?xml version="1.0" encoding="utf-8"?>
<!-- Generator: Adobe Illustrator 20.1.0, SVG Export Plug-In . SVG Version: 6.00 Build 0)  -->
<svg version="1.1" id="Layer_1" xmlns="http://www.w3.org/2000/svg" xmlns:xlink="http://www.w3.org/1999/xlink" x="0px" y="0px"
	 viewBox="0 0 128 128" style="enable-background:new 0 0 128 128;" xml:space="preserve">
<g>
	<g>
		<path d="M90.6,37.4c1,1,2.7,1,3.8,0l30.8-30.8c1-1,1-2.7,0-3.8c-1-1-2.7-1-3.8,0L90.6,33.6C89.6,34.6,89.6,36.3,90.6,37.4z"/>
		<path d="M117.3,60.7l-3.4-37.2l-9.3,9.3c0.5,3.4-0.5,7.1-3.2,9.7c-4.4,4.4-11.6,4.4-16,0c-4.4-4.4-4.4-11.6,0-16
			c2.7-2.7,6.3-3.7,9.7-3.2l9.3-9.3l-37.2-3.4c-1.5-0.1-2.9,0.4-3.9,1.4L3.4,72.1c-1.9,1.9-1.9,5.1,0,7l13.3,13.3l6.6-6.6l18.8,18.8
			l-6.6,6.6l13.3,13.3c1.9,1.9,5.1,1.9,7,0l59.9-59.9C116.9,63.6,117.4,62.1,117.3,60.7z"/>
	</g>
</g>
</svg>
