<?xml version="1.0" encoding="utf-8"?>
<!-- Generator: Adobe Illustrator 23.0.0, SVG Export Plug-In . SVG Version: 6.00 Build 0)  -->
<svg version="1.1" id="Layer_1" xmlns="http://www.w3.org/2000/svg" xmlns:xlink="http://www.w3.org/1999/xlink" x="0px" y="0px"
	 viewBox="0 0 128 128" style="enable-background:new 0 0 128 128;" xml:space="preserve">
<g>
	<path d="M2,64C2,29.78,29.78,2,64,2s62,27.78,62,62s-27.78,62-62,62S2,98.22,2,64z M52.62,104.28c2.01,2.01,5.24,2.01,7.27,0
		l36.66-36.66c2.01-2.01,2.01-5.25,0-7.27L59.88,23.72c-2.01-2.01-5.24-2.01-7.27,0l-8.23,8.23c-2.01,2.01-2.01,5.25,0,7.27
		L69.16,64L44.38,88.78c-2.01,2.01-2.01,5.25,0,7.27L52.62,104.28z"/>
</g>
</svg>
