<?xml version="1.0" encoding="utf-8"?>
<!-- Generator: Adobe Illustrator 23.0.0, SVG Export Plug-In . SVG Version: 6.00 Build 0)  -->
<svg version="1.1" id="Layer_1" xmlns="http://www.w3.org/2000/svg" xmlns:xlink="http://www.w3.org/1999/xlink" x="0px" y="0px"
	 viewBox="0 0 128 128" style="enable-background:new 0 0 128 128;" xml:space="preserve">
<g>
	<path d="M64,2c34.22,0,62,27.78,62,62s-27.78,62-62,62S2,98.22,2,64S29.78,2,64,2z M23.72,52.62c-2.01,2.01-2.01,5.24,0,7.27
		l36.66,36.66c2.01,2.01,5.25,2.01,7.27,0l36.66-36.66c2.01-2.01,2.01-5.24,0-7.27l-8.23-8.23c-2.02-2.01-5.25-2.01-7.27,0L64,69.16
		L39.22,44.38c-2.01-2.01-5.25-2.01-7.27,0L23.72,52.62z"/>
</g>
</svg>
