<?xml version="1.0" encoding="utf-8"?>
<!-- Generator: Adobe Illustrator 23.0.0, SVG Export Plug-In . SVG Version: 6.00 Build 0)  -->
<svg version="1.1" id="Layer_1" xmlns="http://www.w3.org/2000/svg" xmlns:xlink="http://www.w3.org/1999/xlink" x="0px" y="0px"
	 viewBox="0 0 128 128" style="enable-background:new 0 0 128 128;" xml:space="preserve">
<g>
	<path d="M64,126c-18.49,0-35.92-8.15-47.71-22.36c-0.81-1.05-0.73-2.59,0.16-3.47l11.06-11.14c0.57-0.48,1.29-0.72,2.02-0.72
		c0.73,0.08,1.45,0.4,1.86,0.97C39.3,99.52,51.16,105.33,64,105.33c22.77,0,41.33-18.57,41.33-41.33S86.77,22.67,64,22.67
		c-10.58,0-20.59,4.04-28.09,11.06l11.06,11.14c1.53,1.46,1.94,3.72,1.13,5.57c-0.81,1.93-2.66,3.23-4.76,3.23H7.17
		C4.34,53.67,2,51.33,2,48.5V12.33c0-2.1,1.29-3.96,3.23-4.76c1.86-0.8,4.12-0.4,5.57,1.13l10.5,10.41C32.68,8.38,48.1,2,64,2
		c34.15,0,62,27.85,62,62S98.15,126,64,126z M74.33,76.91c0,1.46-1.13,2.59-2.58,2.59H45.92c-1.45,0-2.58-1.13-2.58-2.59v-5.16
		c0-1.46,1.13-2.59,2.58-2.59H64V40.75c0-1.46,1.13-2.59,2.58-2.59h5.17c1.45,0,2.58,1.13,2.58,2.59V76.91z"/>
</g>
</svg>
