<?xml version="1.0" encoding="utf-8"?>
<!-- Generator: Adobe Illustrator 20.1.0, SVG Export Plug-In . SVG Version: 6.00 Build 0)  -->
<svg version="1.1" id="Layer_1" xmlns="http://www.w3.org/2000/svg" xmlns:xlink="http://www.w3.org/1999/xlink" x="0px" y="0px"
	 viewBox="0 0 128 128" style="enable-background:new 0 0 128 128;" xml:space="preserve">
<g>
	<g>
		<path d="M43.4,102.6H20.4c-4.4,0-8.1-3.5-8.1-7.9V23.2c0-4.4,3.6-7.8,8.1-7.8h55.8c4.4,0,8,3.4,8,7.8v59.9l10.3-12.3V15.5
			C94.5,9.7,89.9,5,84.1,5H12C6.4,5,2,9.6,2,15.1v87.5c0,5.8,4.6,10.5,10.4,10.5h40.5l-4.8-4.2C46.1,107.2,44.5,105,43.4,102.6z"/>
		<path d="M71.9,28.6H25.6c-2.8,0-5.1,2.3-5.1,5.2c0,2.8,2.3,5.2,5.1,5.2h46.3c2.8,0,5.1-2.3,5.1-5.2C77,30.9,74.7,28.6,71.9,28.6z"
			/>
		<path d="M71.9,45.7H25.6c-2.8,0-5.1,2.3-5.1,5.2c0,2.8,2.3,5.2,5.1,5.2h46.3c2.8,0,5.1-2.3,5.1-5.2C77,48.1,74.7,45.7,71.9,45.7z"
			/>
		<path d="M71.9,62.9H25.6c-2.8,0-5.1,2.2-5.1,5c0,2.8,2.3,5,5.1,5h46.3c2.8,0,5.1-2.2,5.1-5C77,65.1,74.7,62.9,71.9,62.9z"/>
		<path d="M20.5,84.3c0,2.8,2.3,5,5.1,5h17.3c0.7-1.8,1.8-4,3.4-5.8c1.6-1.8,3.5-3.2,5.5-4.3H25.6C22.7,79.3,20.5,81.5,20.5,84.3z"
			/>
		<path d="M71.9,79.3H68c1.3,0.5,2.5,1.4,3.6,2.4l5.1,4.4c0.2-0.5,0.3-1.1,0.3-1.7C77,81.6,74.7,79.3,71.9,79.3z"/>
		<path d="M122.8,65.5c-3.8-3.2-9.5-2.8-12.7,1l-29.6,34.7L65.8,88.5c-3.8-3.2-9.5-2.8-12.7,1c-3.2,3.8-2.8,9.5,1,12.7l21.6,18.6
			c1.7,1.4,3.7,2.2,5.9,2.2c0.2,0,0.5,0,0.7,0c2.4-0.2,4.6-1.3,6.1-3.1l35.5-41.6C127.1,74.5,126.6,68.8,122.8,65.5z"/>
	</g>
</g>
</svg>
