<?xml version="1.0" encoding="utf-8"?>
<!-- Generator: Adobe Illustrator 23.0.0, SVG Export Plug-In . SVG Version: 6.00 Build 0)  -->
<svg version="1.1" id="Layer_1" xmlns="http://www.w3.org/2000/svg" xmlns:xlink="http://www.w3.org/1999/xlink" x="0px" y="0px"
	 viewBox="0 0 128 128" style="enable-background:new 0 0 128 128;" xml:space="preserve">
<g>
	<path d="M69.02,94.47c-1.46,1.46-2.25,3.47-2.25,5.53c0,2.01,0.79,4.01,2.25,5.47l5.05,5.05c-0.85,0.12-1.76,0.18-2.68,0.18H18.24
		C8.51,110.71,2,104.87,2,94.95c0-13.74,3.22-34.85,21.04-34.85c0.97,0,1.64,0.43,2.37,1.04c5.84,4.62,11.8,7.42,19.4,7.42
		s13.56-2.8,19.4-7.42c0.73-0.61,1.4-1.04,2.37-1.04c1.16,0,2.31,0.12,3.47,0.36c-2.01,1.95-3.28,3.53-3.28,6.45
		c0,2.07,0.79,4.08,2.25,5.53l11.01,11.01L69.02,94.47z M21.46,40.65c0-12.89,10.46-23.35,23.35-23.35s23.35,10.46,23.35,23.35
		S57.71,64,44.81,64S21.46,53.54,21.46,40.65z M125.46,98.6c0.36,0.36,0.54,0.85,0.54,1.4c0,0.49-0.18,0.97-0.54,1.34l-8.28,8.27
		c-0.36,0.36-0.85,0.54-1.33,0.54c-0.55,0-1.04-0.18-1.4-0.54L99.3,94.47l-15.14,15.14c-0.36,0.36-0.85,0.54-1.4,0.54
		c-0.49,0-0.97-0.18-1.34-0.54l-8.27-8.27c-0.36-0.36-0.55-0.85-0.55-1.34c0-0.55,0.18-1.04,0.55-1.4L88.3,83.46L73.15,68.32
		c-0.36-0.36-0.55-0.85-0.55-1.4c0-0.49,0.18-0.97,0.55-1.34l8.27-8.27c0.36-0.36,0.85-0.54,1.34-0.54c0.55,0,1.04,0.18,1.4,0.54
		L99.3,72.45l15.14-15.14c0.36-0.36,0.85-0.54,1.4-0.54c0.48,0,0.97,0.18,1.33,0.54l8.28,8.27c0.36,0.36,0.54,0.85,0.54,1.34
		c0,0.55-0.18,1.04-0.54,1.4l-15.15,15.14L125.46,98.6z"/>
</g>
</svg>
