<?xml version="1.0" encoding="utf-8"?>
<!-- Generator: Adobe Illustrator 20.1.0, SVG Export Plug-In . SVG Version: 6.00 Build 0)  -->
<svg version="1.1" id="Layer_1" xmlns="http://www.w3.org/2000/svg" xmlns:xlink="http://www.w3.org/1999/xlink" x="0px" y="0px"
	 viewBox="0 0 128 128" style="enable-background:new 0 0 128 128;" xml:space="preserve">
<g>
	<path d="M117.1,46.3v73.1c0,3.7-3,6.6-6.6,6.6h-93c-3.7,0-6.6-3-6.6-6.6V8.6c0-3.7,3-6.6,6.6-6.6h55.4v37.6c0,3.7,3,6.6,6.6,6.6
		H117.1z M90.6,57.4c0-1.2-1-2.2-2.2-2.2H39.6c-1.2,0-2.2,1-2.2,2.2v4.4c0,1.2,1,2.2,2.2,2.2h48.7c1.2,0,2.2-1,2.2-2.2V57.4z
		 M90.6,75.1c0-1.2-1-2.2-2.2-2.2H39.6c-1.2,0-2.2,1-2.2,2.2v4.4c0,1.2,1,2.2,2.2,2.2h48.7c1.2,0,2.2-1,2.2-2.2V75.1z M90.6,92.8
		c0-1.2-1-2.2-2.2-2.2H39.6c-1.2,0-2.2,1-2.2,2.2v4.4c0,1.2,1,2.2,2.2,2.2h48.7c1.2,0,2.2-1,2.2-2.2V92.8z M114.4,37.4H81.7V4.8
		c1,0.6,1.8,1.2,2.5,1.9l28.2,28.2C113.1,35.6,113.8,36.5,114.4,37.4z"/>
</g>
</svg>
