<?xml version="1.0" encoding="utf-8"?>
<!-- Generator: Adobe Illustrator 20.1.0, SVG Export Plug-In . SVG Version: 6.00 Build 0)  -->
<svg version="1.1" id="Layer_1" xmlns="http://www.w3.org/2000/svg" xmlns:xlink="http://www.w3.org/1999/xlink" x="0px" y="0px"
	 viewBox="0 0 128 128" style="enable-background:new 0 0 128 128;" xml:space="preserve">
<g>
	<g>
		<path d="M81.9,42c6,0,10.8-4.8,10.8-10.8c0-6-4.8-10.8-10.8-10.8c-6,0-10.8,4.9-10.8,10.8C71.1,37.2,75.9,42,81.9,42z"/>
		<path d="M125.3,69l-7.8-7.8c-0.4-0.4-1-0.7-1.7-0.7c-0.6,0-1.2,0.2-1.7,0.7l-2.3,2.3c-0.1-0.1-0.2-0.2-0.3-0.3c-1-1-2.5-1.6-4-1.6
			l-3.7-5c-1-1.3-2.6-3.2-3.9-4.3L92.5,45c-0.5-0.5-1.6-1.2-2.9-1.2c0,0-13.3,0-13.3,0c-1.7,0-3.3,1-4.1,2.5l-5.6,11.1
			c-0.4,0.8-1.4,2.3-2.1,2.9l-3.9,4.2c-0.8,0.9-1.3,2.1-1.2,3.3c0,1.2,0.5,2.4,1.4,3.2c0.9,0.8,2,1.2,3.1,1.2c1.3,0,2.5-0.5,3.3-1.4
			l3.9-4.2c1.2-1.3,2.8-3.5,3.6-5.1l0.8-1.7c0,0,1.2,6.6,1.5,8.7c0,0.1,0,0.2,0,0.3l-1.3,14.4c-0.1,1.6-0.2,4-0.1,5.6l0.5,14.7
			c0.1,2.6,2.2,4.7,4.8,4.7c0.1,0,0.1,0,0.2,0c2.7-0.1,4.7-2.3,4.7-5l-0.5-14.7c0-1.2,0-3.2,0.1-4.4l0.9-9.7h1.8l2.6,11.1
			c0.4,1.6,1.2,4,1.8,5.5l5.6,12.8c0.8,1.8,2.5,2.9,4.4,2.9c0,0,0.1,0,0.1,0c0.6,0,1.2-0.2,1.8-0.4c1.2-0.5,2.1-1.5,2.6-2.7
			c0.5-1.2,0.4-2.5-0.1-3.7l-5.6-12.8c-0.4-1-1-2.8-1.3-3.9l-4.9-23c0.5,0.6,1,1.1,1.3,1.6l3.7,5.1c0.3,0.4,0.7,0.8,1.2,1.1
			c0.1,1.4,0.6,2.7,1.6,3.6c0.1,0.1,0.2,0.2,0.3,0.3l-2.3,2.3c-0.4,0.4-0.7,1-0.7,1.7s0.2,1.2,0.7,1.7l7.8,7.8
			c0.4,0.4,1,0.7,1.7,0.7c0.6,0,1.2-0.2,1.7-0.7l13.1-13.1c0.4-0.4,0.7-1,0.7-1.7C126,70,125.8,69.4,125.3,69z M105,69.7
			c-0.3-0.3-0.5-0.6-0.6-0.9c0.8-0.1,1.6-0.4,2.2-0.9c1-0.7,1.6-1.8,1.8-3c0-0.2,0-0.3,0-0.5c0.4,0.1,0.8,0.4,1.1,0.7
			c0.1,0.1,0.2,0.2,0.3,0.3l-4.5,4.5C105.2,69.9,105.1,69.8,105,69.7z"/>
	</g>
	<path d="M57.3,79.8h-2.4V28.6c0-1.3-1.1-2.3-2.3-2.3h-6.4v-4.1c0-1.3-1.1-2.3-2.3-2.3H17.7c-1.3,0-2.3,1.1-2.3,2.3v4.1H9
		c-1.3,0-2.3,1.1-2.3,2.3v51.2H4.2C3,79.8,2,80.8,2,82v7.7c0,1.2,1,2.2,2.2,2.2h53c1.2,0,2.2-1,2.2-2.2V82
		C59.5,80.8,58.5,79.8,57.3,79.8z M21.8,70.1c0,0.4-0.3,0.6-0.6,0.6h-8.5c-0.4,0-0.6-0.3-0.6-0.6v-8.5c0-0.4,0.3-0.6,0.6-0.6h8.5
		c0.4,0,0.6,0.3,0.6,0.6V70.1z M21.8,56.6c0,0.4-0.3,0.6-0.6,0.6h-8.5c-0.4,0-0.6-0.3-0.6-0.6v-8.5c0-0.4,0.3-0.6,0.6-0.6h8.5
		c0.4,0,0.6,0.3,0.6,0.6V56.6z M21.8,42.8c0,0.4-0.3,0.6-0.6,0.6h-8.5c-0.4,0-0.6-0.3-0.6-0.6v-8.5c0-0.4,0.3-0.6,0.6-0.6h8.5
		c0.4,0,0.6,0.3,0.6,0.6V42.8z M35.7,81.6c0,0.4-0.3,0.6-0.6,0.6h-8.5c-0.4,0-0.6-0.3-0.6-0.6v-20c0-0.4,0.3-0.6,0.6-0.6H35
		c0.4,0,0.6,0.3,0.6,0.6V81.6z M35.7,56.6c0,0.4-0.3,0.6-0.6,0.6h-8.5c-0.4,0-0.6-0.3-0.6-0.6v-8.5c0-0.4,0.3-0.6,0.6-0.6H35
		c0.4,0,0.6,0.3,0.6,0.6V56.6z M35.7,42.8c0,0.4-0.3,0.6-0.6,0.6h-8.5c-0.4,0-0.6-0.3-0.6-0.6v-8.5c0-0.4,0.3-0.6,0.6-0.6H35
		c0.4,0,0.6,0.3,0.6,0.6V42.8z M49.5,70.1c0,0.4-0.3,0.6-0.6,0.6h-8.5c-0.4,0-0.6-0.3-0.6-0.6v-8.5c0-0.4,0.3-0.6,0.6-0.6h8.5
		c0.4,0,0.6,0.3,0.6,0.6V70.1z M49.5,56.6c0,0.4-0.3,0.6-0.6,0.6h-8.5c-0.4,0-0.6-0.3-0.6-0.6v-8.5c0-0.4,0.3-0.6,0.6-0.6h8.5
		c0.4,0,0.6,0.3,0.6,0.6V56.6z M49.5,42.8c0,0.4-0.3,0.6-0.6,0.6h-8.5c-0.4,0-0.6-0.3-0.6-0.6v-8.5c0-0.4,0.3-0.6,0.6-0.6h8.5
		c0.4,0,0.6,0.3,0.6,0.6V42.8z"/>
</g>
</svg>
