<?xml version="1.0" encoding="utf-8"?>
<!-- Generator: Adobe Illustrator 20.1.0, SVG Export Plug-In . SVG Version: 6.00 Build 0)  -->
<svg version="1.1" id="Layer_1" xmlns="http://www.w3.org/2000/svg" xmlns:xlink="http://www.w3.org/1999/xlink" x="0px" y="0px"
	 viewBox="0 0 128 128" style="enable-background:new 0 0 128 128;" xml:space="preserve">
<path d="M64,2C29.8,2,2,29.8,2,64s27.8,62,62,62s62-27.8,62-62S98.2,2,64,2z M90.6,92.8H37.4c-2.4,0-4.4-2-4.4-4.4
	c0-2.4,2-4.4,4.4-4.4h53.1c2.4,0,4.4,2,4.4,4.4C95,90.8,93,92.8,90.6,92.8z M90.6,68.4H37.4c-2.4,0-4.4-2-4.4-4.4s2-4.4,4.4-4.4
	h53.1c2.4,0,4.4,2,4.4,4.4S93,68.4,90.6,68.4z M90.6,44.1H37.4c-2.4,0-4.4-2-4.4-4.4s2-4.4,4.4-4.4h53.1c2.4,0,4.4,2,4.4,4.4
	S93,44.1,90.6,44.1z"/>
</svg>
