<?xml version="1.0" encoding="utf-8"?>
<!-- Generator: Adobe Illustrator 20.1.0, SVG Export Plug-In . SVG Version: 6.00 Build 0)  -->
<svg version="1.1" id="Layer_1" xmlns="http://www.w3.org/2000/svg" xmlns:xlink="http://www.w3.org/1999/xlink" x="0px" y="0px"
	 viewBox="0 0 128 128" style="enable-background:new 0 0 128 128;" xml:space="preserve">
<g>
	<g>
		<g>
			<path d="M40.8,24.9h46.3c1.4,0,2.5-1.1,2.5-2.5V2H38.3v20.4C38.3,23.8,39.5,24.9,40.8,24.9z"/>
			<path d="M124.1,33.2L97.9,6.9v15.5c0,5.9-4.8,10.8-10.8,10.8H40.8c-5.9,0-10.8-4.8-10.8-10.8V2H13.4C7.1,2,2,7.1,2,13.4v101.3
				c0,6.3,5.1,11.4,11.4,11.4h101.2c6.3,0,11.4-5.1,11.4-11.4V37.9C126,36.1,125.3,34.4,124.1,33.2z M106.7,99.9
				c0,3.7-3,6.6-6.6,6.6H27.9c-3.7,0-6.6-3-6.6-6.6V65.3c0-3.7,3-6.6,6.6-6.6h72.1c3.7,0,6.6,3,6.6,6.6V99.9z"/>
			<path d="M92.5,69.3h-57c-2.3,0-4.1,1.8-4.1,4.1s1.8,4.1,4.1,4.1h57c2.3,0,4.1-1.8,4.1-4.1S94.8,69.3,92.5,69.3z"/>
			<path d="M84.2,85.8H43.8c-2.3,0-4.1,1.8-4.1,4.1c0,2.3,1.8,4.1,4.1,4.1h40.5c2.3,0,4.1-1.9,4.1-4.1
				C88.4,87.7,86.5,85.8,84.2,85.8z"/>
		</g>
	</g>
</g>
</svg>
