<?xml version="1.0" encoding="utf-8"?>
<!-- Generator: Adobe Illustrator 23.0.0, SVG Export Plug-In . SVG Version: 6.00 Build 0)  -->
<svg version="1.1" id="Layer_1" xmlns="http://www.w3.org/2000/svg" xmlns:xlink="http://www.w3.org/1999/xlink" x="0px" y="0px"
	 viewBox="0 0 128 128" style="enable-background:new 0 0 128 128;" xml:space="preserve">
<g>
	<path d="M99.54,25.5H87.09v-2.72c0-3.09-2.5-5.59-5.59-5.59h-9.17c0.76-1.38,1.2-3.09,1.2-4.83C73.53,6.65,68.88,2,63.18,2
		c-5.71,0-10.35,4.65-10.35,10.36c0,1.74,0.43,3.45,1.2,4.83H46.5c-3.09,0-5.59,2.5-5.59,5.59v2.72H28.45
		c-4.68,0-8.47,3.8-8.47,8.48v83.55c0,4.68,3.79,8.48,8.47,8.48h71.09c4.68,0,8.48-3.8,8.48-8.48V33.97
		C108.02,29.29,104.22,25.5,99.54,25.5z M63.17,6.19c3.4,0,6.17,2.78,6.17,6.18c0,1.95-0.91,3.62-2.33,4.83h-7.68
		c-1.42-1.21-2.32-2.88-2.32-4.83C57.01,8.96,59.78,6.19,63.17,6.19z M99.54,112.48c0,2.88-2.33,5.21-5.21,5.21H33.66
		c-2.88,0-5.21-2.33-5.21-5.21V39.19c0-2.88,2.33-5.21,5.21-5.21h7.24c0,2.29,1.86,4.15,4.15,4.15h37.88c2.3,0,4.15-1.86,4.15-4.15
		h7.25c2.87,0,5.21,2.33,5.21,5.21V112.48z"/>
	<path d="M44.08,45.42c-4.07,0-7.36,3.3-7.36,7.36c0,4.07,3.3,7.36,7.36,7.36c4.07,0,7.36-3.3,7.36-7.36
		C51.44,48.72,48.15,45.42,44.08,45.42z"/>
	<path d="M85.97,48.68H60.86c-2.31,0-4.19,1.84-4.19,4.15c0,2.31,1.87,4.15,4.19,4.15h25.12c2.31,0,4.18-1.84,4.18-4.15
		C90.16,50.52,88.29,48.68,85.97,48.68z"/>
	<path d="M44.08,66.31c-4.07,0-7.36,3.3-7.36,7.36c0,4.07,3.3,7.36,7.36,7.36c4.07,0,7.36-3.3,7.36-7.36
		C51.44,69.61,48.15,66.31,44.08,66.31z"/>
	<path d="M85.97,69.43H60.86c-2.31,0-4.19,1.93-4.19,4.24s1.87,4.23,4.19,4.23h25.12c2.31,0,4.18-1.92,4.18-4.23
		S88.29,69.43,85.97,69.43z"/>
	<circle cx="44.08" cy="96" r="7.36"/>
	<path d="M85.97,91.75H60.86c-2.31,0-4.19,1.93-4.19,4.24s1.87,4.23,4.19,4.23h25.12c2.31,0,4.18-1.93,4.18-4.23
		C90.16,93.68,88.29,91.75,85.97,91.75z"/>
</g>
</svg>
