<?xml version="1.0" encoding="utf-8"?>
<!-- Generator: Adobe Illustrator 23.0.0, SVG Export Plug-In . SVG Version: 6.00 Build 0)  -->
<svg version="1.1" id="Layer_1" xmlns="http://www.w3.org/2000/svg" xmlns:xlink="http://www.w3.org/1999/xlink" x="0px" y="0px"
	 viewBox="0 0 128 128" style="enable-background:new 0 0 128 128;" xml:space="preserve">
<g>
	<path d="M82.54,77.78c0.29-1.1,0.14-2.25-0.43-3.24l-8.89-15.4c-0.76-1.32-2.18-2.14-3.7-2.14c-0.75,0-1.48,0.2-2.13,0.57
		l-4.63,2.68c-1.88-1.38-3.92-2.57-6.08-3.52v-5.34c0-2.36-1.92-4.27-4.27-4.27H34.62c-2.35,0-4.27,1.92-4.27,4.27v5.34
		c-2.16,0.96-4.2,2.14-6.08,3.52l-4.63-2.68C18.99,57.2,18.25,57,17.51,57c-1.52,0-2.94,0.82-3.7,2.14l-8.89,15.4
		c-0.57,0.99-0.72,2.14-0.43,3.24c0.3,1.1,1,2.02,1.99,2.59l4.62,2.67c-0.12,1.16-0.19,2.33-0.19,3.52c0,1.19,0.07,2.36,0.19,3.52
		l-4.62,2.67c-0.99,0.57-1.69,1.49-1.99,2.59c-0.29,1.1-0.14,2.25,0.43,3.24l8.89,15.4c0.76,1.32,2.18,2.14,3.7,2.14
		c0.75,0,1.48-0.2,2.13-0.57l4.64-2.68c1.88,1.38,3.92,2.57,6.08,3.52v5.34c0,1.14,0.44,2.21,1.25,3.02
		c0.81,0.81,1.88,1.25,3.02,1.25h17.78c2.35,0,4.27-1.92,4.27-4.27v-5.34c2.16-0.96,4.2-2.14,6.08-3.52l4.64,2.68
		c0.65,0.38,1.39,0.57,2.13,0.57c1.52,0,2.94-0.82,3.7-2.14l8.89-15.4c0.57-0.99,0.72-2.14,0.43-3.24c-0.29-1.1-1-2.02-1.99-2.59
		l-4.62-2.67c0.12-1.16,0.19-2.33,0.19-3.52s-0.07-2.36-0.19-3.52l4.62-2.67C81.54,79.8,82.25,78.88,82.54,77.78z M43.51,105.1
		c-10.24,0-18.55-8.3-18.55-18.55c0-10.24,8.3-18.55,18.55-18.55s18.55,8.3,18.55,18.55C62.06,96.8,53.76,105.1,43.51,105.1z"/>
	<path d="M59.11,33.91c-0.2,0.73-0.09,1.49,0.28,2.14l5.88,10.19c0.5,0.87,1.44,1.41,2.45,1.41c0.49,0,0.98-0.13,1.41-0.38
		l3.07-1.77c1.25,0.91,2.59,1.7,4.02,2.33v3.54c0,0.75,0.29,1.46,0.83,2c0.53,0.53,1.24,0.83,2,0.83h11.77
		c1.56,0,2.83-1.27,2.83-2.83v-3.54c1.43-0.63,2.78-1.41,4.02-2.33l3.07,1.77c0.43,0.25,0.92,0.38,1.41,0.38
		c1.01,0,1.95-0.54,2.45-1.41l5.88-10.19c0.38-0.65,0.48-1.41,0.28-2.14c-0.2-0.73-0.66-1.34-1.32-1.72l-3.06-1.77
		c0.08-0.76,0.13-1.54,0.13-2.33s-0.05-1.56-0.13-2.33l3.06-1.77c0.65-0.38,1.12-0.99,1.32-1.72c0.2-0.73,0.09-1.49-0.28-2.14
		L104.6,9.95c-0.5-0.87-1.44-1.41-2.45-1.41c-0.49,0-0.98,0.13-1.41,0.38l-3.07,1.77c-1.25-0.91-2.59-1.7-4.02-2.33V4.83
		c0-1.56-1.27-2.83-2.83-2.83H79.05c-1.56,0-2.83,1.27-2.83,2.83v3.54C74.8,9,73.45,9.78,72.21,10.69l-3.07-1.77
		c-0.43-0.25-0.92-0.38-1.41-0.38c-1.01,0-1.95,0.54-2.45,1.41l-5.88,10.19c-0.38,0.65-0.48,1.42-0.28,2.14
		c0.2,0.73,0.66,1.34,1.32,1.72l3.06,1.77c-0.08,0.76-0.13,1.54-0.13,2.33c0,0.79,0.05,1.56,0.13,2.33l-3.06,1.77
		C59.77,32.57,59.3,33.18,59.11,33.91z M84.94,15.83c6.78,0,12.27,5.49,12.27,12.27s-5.49,12.27-12.27,12.27
		c-6.78,0-12.27-5.49-12.27-12.27S78.16,15.83,84.94,15.83z"/>
	<path d="M122.69,73.42l-2.11-1.22c0.06-0.53,0.09-1.06,0.09-1.6s-0.03-1.08-0.09-1.6l2.11-1.22c0.45-0.26,0.77-0.68,0.91-1.18
		c0.13-0.5,0.07-1.03-0.19-1.48l-4.05-7.01c-0.35-0.6-0.99-0.97-1.69-0.97c-0.34,0-0.68,0.09-0.97,0.26l-2.11,1.22
		c-0.86-0.63-1.79-1.17-2.77-1.6v-2.44c0-1.07-0.87-1.95-1.94-1.95h-8.1c-1.07,0-1.95,0.87-1.95,1.95v2.44
		c-0.98,0.44-1.91,0.97-2.77,1.6l-2.11-1.22c-0.3-0.17-0.63-0.26-0.97-0.26c-0.69,0-1.34,0.37-1.69,0.97l-4.05,7.01
		c-0.26,0.45-0.33,0.97-0.2,1.48c0.14,0.5,0.46,0.92,0.91,1.18L91.05,69c-0.06,0.53-0.09,1.06-0.09,1.6c0,0.54,0.03,1.08,0.09,1.6
		l-2.11,1.22c-0.45,0.26-0.77,0.68-0.91,1.18c-0.13,0.5-0.07,1.03,0.2,1.48l4.05,7.01c0.35,0.6,0.99,0.97,1.69,0.97
		c0.34,0,0.68-0.09,0.97-0.26l2.11-1.22c0.86,0.63,1.78,1.17,2.77,1.6v2.44c0,0.52,0.2,1.01,0.57,1.38
		c0.37,0.37,0.86,0.57,1.38,0.57h8.1c1.07,0,1.94-0.87,1.94-1.95v-2.44c0.98-0.44,1.91-0.97,2.77-1.6l2.11,1.22
		c0.3,0.17,0.63,0.26,0.97,0.26c0.69,0,1.34-0.37,1.69-0.97l4.05-7.01c0.26-0.45,0.33-0.97,0.19-1.48
		C123.46,74.1,123.14,73.68,122.69,73.42z M105.82,79.05c-4.67,0-8.45-3.78-8.45-8.45c0-4.67,3.78-8.45,8.45-8.45
		c4.67,0,8.45,3.78,8.45,8.45C114.26,75.26,110.48,79.05,105.82,79.05z"/>
</g>
</svg>
