<?xml version="1.0" encoding="utf-8"?>
<!-- Generator: Adobe Illustrator 20.1.0, SVG Export Plug-In . SVG Version: 6.00 Build 0)  -->
<svg version="1.1" id="Layer_1" xmlns="http://www.w3.org/2000/svg" xmlns:xlink="http://www.w3.org/1999/xlink" x="0px" y="0px"
	 viewBox="0 0 128 128" style="enable-background:new 0 0 128 128;" xml:space="preserve">
<g>
	<circle cx="17.2" cy="89.6" r="10.3"/>
	<path d="M17.2,99.9c-8.6,0-15.6,7-15.6,15.6h31.2C32.8,106.9,25.8,99.9,17.2,99.9z"/>
	<circle cx="110.8" cy="22.2" r="10.3"/>
	<path d="M110.8,32.5c-8.6,0-15.6,7-15.6,15.6h31.2C126.4,39.5,119.4,32.5,110.8,32.5z"/>
	<path d="M39,58.8L39,58.8c-0.3,1.5-0.4,3.1-0.4,4.7c0,1.9,0.2,3.8,0.6,5.6h13.9V58.8H42.3H39z"/>
	<path d="M73.7,58.8v10.3h16.2c0.4-1.8,0.6-3.7,0.6-5.6c0-1.6-0.2-3.2-0.4-4.7h0h-1.9H73.7z"/>
	<rect x="58.2" y="58.8" width="10.3" height="10.3"/>
	<path d="M58.2,53.7h10.3V37.9c-1.3-0.2-2.6-0.3-4-0.3c-2.2,0-4.3,0.3-6.3,0.8V53.7z"/>
	<path d="M40.5,53.7h12.5V40.3C47.4,43,42.9,47.8,40.5,53.7z"/>
	<path d="M73.7,39.3c-0.2-0.1-0.4-0.1-0.5-0.2C73.4,39.1,73.5,39.2,73.7,39.3L73.7,39.3z"/>
	<ellipse transform="matrix(0.2368 -0.9716 0.9716 0.2368 15.454 127.0036)" cx="88.6" cy="53.7" rx="0" ry="0"/>
	<path d="M88.6,53.7c-2.7-6.6-8.1-11.9-14.8-14.4v14.4H88.6z"/>
	<path d="M73.7,87.8c6.4-2.4,11.6-7.3,14.5-13.5H73.7V87.8z"/>
	<path d="M40.9,74.3c2.5,5.5,6.8,9.9,12.2,12.6V74.3h-9.5H40.9z"/>
	<path d="M68.6,89.2V74.3H58.2v12.4v2c2,0.5,4.1,0.8,6.3,0.8C65.9,89.5,67.3,89.4,68.6,89.2z"/>
	<path d="M14.4,64.4l16.5-18.2l-7.7-1.7c7.4-14.7,22.8-24.3,39.5-24.3V12c-10.8,0-21.2,3.3-30,9.4C25,26.8,18.9,34.2,15,42.7L6.9,41
		L14.4,64.4z"/>
	<path d="M112.3,63.7L95.8,81.9l7.7,1.7c-7.4,14.7-22.8,24.3-39.5,24.3v8.2c10.8,0,21.2-3.3,30-9.4c7.8-5.4,13.9-12.8,17.8-21.3
		l8.1,1.7L112.3,63.7z"/>
</g>
</svg>
