<?xml version="1.0" encoding="utf-8"?>
<!-- Generator: Adobe Illustrator 23.0.0, SVG Export Plug-In . SVG Version: 6.00 Build 0)  -->
<svg version="1.1" id="Layer_1" xmlns="http://www.w3.org/2000/svg" xmlns:xlink="http://www.w3.org/1999/xlink" x="0px" y="0px"
	 viewBox="0 0 128 128" style="enable-background:new 0 0 128 128;" xml:space="preserve">
<g>
	<path d="M20.09,27.83H2V17.5h18.09V27.83z M71.75,69.17H2V58.83h69.75V69.17z M30.42,110.5H2v-10.33h28.42V110.5z M53.67,12.33V33
		c0,2.83-2.34,5.17-5.17,5.17H27.83c-2.83,0-5.17-2.34-5.17-5.17V12.33c0-2.83,2.34-5.17,5.17-5.17H48.5
		C51.33,7.17,53.67,9.51,53.67,12.33z M64,95v20.67c0,2.83-2.34,5.17-5.17,5.17H38.17c-2.83,0-5.17-2.34-5.17-5.17V95
		c0-2.83,2.34-5.17,5.17-5.17h20.67C61.66,89.83,64,92.17,64,95z M126,27.83H56.25V17.5H126V27.83z M126,110.5H66.58v-10.33H126
		V110.5z M105.33,53.67v20.67c0,2.83-2.34,5.17-5.17,5.17H79.5c-2.83,0-5.17-2.34-5.17-5.17V53.67c0-2.83,2.34-5.17,5.17-5.17h20.67
		C102.99,48.5,105.33,50.84,105.33,53.67z M126,69.17h-18.09V58.83H126V69.17z"/>
</g>
</svg>
