<?xml version="1.0" encoding="utf-8"?>
<!-- Generator: Adobe Illustrator 23.0.0, SVG Export Plug-In . SVG Version: 6.00 Build 0)  -->
<svg version="1.1" id="Layer_1" xmlns="http://www.w3.org/2000/svg" xmlns:xlink="http://www.w3.org/1999/xlink" x="0px" y="0px"
	 viewBox="0 0 128 128" style="enable-background:new 0 0 128 128;" xml:space="preserve">
<g>
	<path d="M22.5,50.85h55.68c5.1,4.98,12.05,8.08,19.73,8.08c15.59,0,28.28-12.69,28.28-28.28S113.5,2.37,97.91,2.37
		c-7.67,0-14.63,3.1-19.73,8.08H22.5c-11.14,0-20.2,9.06-20.2,20.2S11.36,50.85,22.5,50.85z M97.91,10.45
		c11.14,0,20.2,9.06,20.2,20.2c0,11.14-9.06,20.2-20.2,20.2c-11.14,0-20.2-9.06-20.2-20.2C77.71,19.51,86.77,10.45,97.91,10.45z"/>
	<path d="M106.11,77.65H50.43c-5.1-4.98-12.05-8.08-19.73-8.08c-15.59,0-28.28,12.69-28.28,28.28s12.69,28.28,28.28,28.28
		c7.67,0,14.63-3.1,19.73-8.08h55.68c11.14,0,20.2-9.06,20.2-20.2C126.3,86.71,117.25,77.65,106.11,77.65z M30.7,118.05
		c-11.14,0-20.2-9.06-20.2-20.2c0-11.14,9.06-20.2,20.2-20.2c11.14,0,20.2,9.06,20.2,20.2C50.9,108.99,41.84,118.05,30.7,118.05z"/>
</g>
</svg>
