<?xml version="1.0" encoding="utf-8"?>
<!-- Generator: Adobe Illustrator 23.0.0, SVG Export Plug-In . SVG Version: 6.00 Build 0)  -->
<svg version="1.1" id="Layer_1" xmlns="http://www.w3.org/2000/svg" xmlns:xlink="http://www.w3.org/1999/xlink" x="0px" y="0px"
	 viewBox="0 0 128 128" style="enable-background:new 0 0 128 128;" xml:space="preserve">
<g>
	<path d="M121.37,85.8c-2.37-0.18-7.28,2.57-8.6,3.28c-4.78,2.49-11.42,6.41-15.77,9.54c-0.31,0.2-0.71,0.48-1.02,0.69
		c-1.96,1.32-4.05,2.19-6.34,2.7c-12.67,2.8-31.17,3.1-31.17,3.1l-1.07,0.05c-0.81,0.05-1.53-0.53-1.65-1.35
		c-0.13-0.89,0.51-1.73,1.42-1.81l27.48-2.72c3.03-0.33,5.44-3.28,5.11-6.59c-0.33-3.31-3.26-5.72-6.28-5.37l-24.45-0.31
		c-1.65-0.03-4.33-0.46-5.93-0.94c-15.75-4.78-24.63-0.31-29.36,1.78c-1.04-1.81-3.05-2.98-5.29-2.82L7.92,85.77
		c-3.51,0.25-6.16,3.28-5.9,6.79l1.68,24.27c0.25,3.51,3.28,6.16,6.79,5.9L21.02,122c2.21-0.15,4.05-1.58,4.83-3.51l46.28,2.06
		c5.16,0.56,10-0.08,14.53-2.54l1.32-0.71l35.01-21.24c1.73-1.04,2.95-2.85,3-4.86C126.07,88.75,124.7,86.05,121.37,85.8z
		 M14.33,116.99c-1.98,0-3.59-1.6-3.59-3.59c0-1.98,1.6-3.59,3.59-3.59s3.59,1.6,3.59,3.59C17.92,115.36,16.32,116.99,14.33,116.99z
		"/>
	<path d="M94.8,89.67c0.25,0.79,0.46,1.6,0.53,2.47c0.08,0.69,0.08,1.37,0.03,2.04c0.36-0.25,0.74-0.53,1.09-0.79
		c3.56-2.6,10.89-6.72,15.01-8.88c1.25-0.66,2.57-1.3,3.97-1.83c-1.81-1.25-3.74-1.3-5.72-0.51c-3.94,1.6-11.17,5.24-14.86,7.33
		C94.86,89.56,94.83,89.62,94.8,89.67z"/>
	<path d="M100.27,79.31c-2.42,0.99-7.86,2.82-10.28,4.15c1.04,0.66,1.96,1.48,2.75,2.44c0.15-0.1,0.31-0.23,0.48-0.33l1.76-1.02
		c2.6-1.48,8.09-3.49,10.94-4.81C104.12,78.55,102.21,78.5,100.27,79.31z"/>
	<g>
		<path d="M102.51,48.81c-1.5-2.29-2.98-4.61-4.5-6.87c-0.36-0.51-0.33-0.87,0-1.37c1.48-2.24,2.93-4.48,4.38-6.74
			c1.7-2.65,0.81-5.29-2.14-6.36c-2.52-0.92-5.01-1.91-7.51-2.82c-0.53-0.2-0.74-0.48-0.76-1.07c-0.13-2.75-0.28-5.47-0.43-8.19
			c-0.15-2.9-2.44-4.55-5.24-3.82c-2.65,0.71-5.29,1.4-7.91,2.16c-0.61,0.18-0.92,0.03-1.3-0.43c-1.68-2.11-3.41-4.22-5.11-6.31
			c-1.86-2.32-4.66-2.32-6.54,0c-1.68,2.09-3.38,4.15-5.01,6.28c-0.46,0.59-0.87,0.69-1.53,0.48c-2.57-0.74-5.16-1.4-7.02-1.91
			c-3.61-0.87-5.72,0.61-5.93,3.56c-0.2,2.77-0.31,5.52-0.41,8.29c-0.03,0.59-0.23,0.84-0.74,1.04c-2.6,0.97-5.19,1.96-7.76,2.98
			c-2.67,1.07-3.51,3.69-1.93,6.11c1.4,2.34,2.9,4.63,4.43,6.92c0.36,0.51,0.33,0.87,0,1.37c-1.55,2.34-3.08,4.68-4.55,7.05
			c-1.42,2.29-0.53,4.94,1.98,5.9c2.62,1.02,5.22,2.01,7.84,2.98c0.56,0.2,0.74,0.48,0.76,1.04c0.13,2.65,0.41,5.29,0.38,7.94
			c-0.03,2.7,2.34,5.06,5.55,4.05c2.54-0.81,5.16-1.4,7.73-2.14c0.51-0.15,0.81-0.05,1.17,0.38c1.7,2.14,3.43,4.27,5.19,6.39
			c1.91,2.32,4.66,2.32,6.54,0c1.73-2.14,3.43-4.25,5.14-6.41c0.33-0.41,0.61-0.56,1.14-0.41c2.67,0.74,5.34,1.45,8.04,2.16
			c2.75,0.74,5.06-0.94,5.22-3.77c0.15-2.77,0.31-5.52,0.41-8.29c0.03-0.64,0.31-0.89,0.84-1.09c2.54-0.94,5.06-1.93,7.58-2.93
			C103.23,53.89,104.09,51.25,102.51,48.81z M51.14,38.13c-0.82-0.82-1.47-1.77-1.95-2.86c-0.48-1.09-0.72-2.25-0.72-3.5
			c0-1.25,0.24-2.41,0.72-3.5c0.48-1.09,1.13-2.04,1.95-2.86c0.82-0.82,1.77-1.46,2.86-1.92c1.09-0.46,2.25-0.69,3.5-0.69
			c1.21,0,2.37,0.23,3.47,0.69c1.1,0.46,2.06,1.1,2.86,1.92c0.8,0.82,1.44,1.77,1.92,2.86c0.48,1.09,0.72,2.25,0.72,3.5
			c0,1.25-0.24,2.41-0.72,3.5c-0.48,1.09-1.12,2.04-1.92,2.86c-0.8,0.82-1.76,1.46-2.86,1.92c-1.11,0.46-2.26,0.69-3.47,0.69
			c-1.25,0-2.41-0.23-3.5-0.69C52.91,39.59,51.96,38.95,51.14,38.13z M60.81,59.89h-4.33l20.36-37.09h4.33L60.81,59.89z
			 M88.45,54.41c-0.46,1.09-1.1,2.04-1.92,2.86c-0.82,0.82-1.77,1.46-2.86,1.92c-1.09,0.46-2.25,0.7-3.5,0.7
			c-1.25,0-2.41-0.23-3.5-0.7c-1.09-0.46-2.04-1.1-2.86-1.92c-0.82-0.82-1.46-1.77-1.92-2.86c-0.46-1.09-0.69-2.25-0.69-3.5
			c0-1.25,0.23-2.41,0.69-3.5c0.46-1.09,1.1-2.04,1.92-2.86c0.82-0.82,1.77-1.47,2.86-1.95c1.09-0.48,2.25-0.72,3.5-0.72
			c1.25,0,2.41,0.24,3.5,0.72c1.09,0.48,2.04,1.13,2.86,1.95c0.82,0.82,1.46,1.77,1.92,2.86c0.46,1.09,0.69,2.25,0.69,3.5
			C89.14,52.15,88.91,53.32,88.45,54.41z"/>
		<path d="M83.66,47.22c-0.45-0.46-0.97-0.83-1.58-1.1c-0.61-0.27-1.25-0.4-1.92-0.4c-0.68,0-1.32,0.13-1.92,0.4
			c-0.61,0.27-1.13,0.63-1.58,1.1c-0.45,0.46-0.8,1.02-1.07,1.66c-0.27,0.64-0.4,1.32-0.4,2.03c0,0.71,0.13,1.38,0.4,2
			c0.27,0.62,0.62,1.18,1.07,1.66s0.97,0.86,1.58,1.12c0.61,0.27,1.25,0.4,1.92,0.4c0.68,0,1.32-0.13,1.92-0.4
			c0.61-0.27,1.13-0.64,1.58-1.12c0.44-0.48,0.8-1.03,1.07-1.66c0.27-0.62,0.4-1.29,0.4-2c0-0.71-0.13-1.39-0.4-2.03
			C84.47,48.23,84.11,47.68,83.66,47.22z"/>
		<path d="M59.42,36.55c0.61-0.27,1.13-0.63,1.58-1.1c0.45-0.46,0.79-1.02,1.04-1.66c0.25-0.64,0.37-1.32,0.37-2.03
			c0-0.71-0.13-1.38-0.37-2c-0.25-0.62-0.6-1.18-1.04-1.66c-0.45-0.48-0.97-0.86-1.58-1.12c-0.61-0.27-1.25-0.4-1.92-0.4
			c-0.68,0-1.32,0.13-1.92,0.4c-0.61,0.27-1.13,0.64-1.58,1.12c-0.45,0.48-0.8,1.03-1.07,1.66c-0.27,0.62-0.4,1.29-0.4,2
			c0,0.71,0.13,1.39,0.4,2.03C53.2,34.44,53.55,35,54,35.46c0.44,0.46,0.97,0.83,1.58,1.1c0.61,0.27,1.25,0.4,1.92,0.4
			C58.18,36.96,58.82,36.82,59.42,36.55z"/>
	</g>
</g>
</svg>
