<?xml version="1.0" encoding="utf-8"?>
<!-- Generator: Adobe Illustrator 23.0.0, SVG Export Plug-In . SVG Version: 6.00 Build 0)  -->
<svg version="1.1" id="Layer_1" xmlns="http://www.w3.org/2000/svg" xmlns:xlink="http://www.w3.org/1999/xlink" x="0px" y="0px"
	 viewBox="0 0 128 128" style="enable-background:new 0 0 128 128;" xml:space="preserve">
<g>
	<path d="M9.74,64c2.51,0,4.96-1.21,6.46-3.45l1.66-2.5C18.7,61.43,21.61,64,25.25,64c4.28,0,7.75-3.47,7.75-7.75
		c0,4.28,3.47,7.75,7.75,7.75s7.75-3.47,7.75-7.75c0,4.28,3.47,7.75,7.75,7.75S64,60.53,64,56.25c0,4.28,3.47,7.75,7.75,7.75
		c4.28,0,7.75-3.47,7.75-7.75c0,4.28,3.47,7.75,7.75,7.75c4.28,0,7.75-3.47,7.75-7.75c0,4.28,3.47,7.75,7.75,7.75
		c3.65,0,6.55-2.57,7.39-5.95l1.66,2.5c1.49,2.24,3.95,3.45,6.46,3.45c1.48,0,2.97-0.42,4.29-1.3c3.56-2.38,4.53-7.19,2.15-10.75
		L110.5,33h-31v-7.75h7.75c4.28,0,7.75-3.47,7.75-7.75V9.75C95,5.47,91.53,2,87.25,2h-46.5C36.47,2,33,5.47,33,9.75v7.75
		c0,4.28,3.47,7.75,7.75,7.75h7.75V33h-31L3.3,51.95c-2.38,3.56-1.41,8.37,2.15,10.75C6.77,63.58,8.27,64,9.74,64z M77.56,7.81h9.69
		v5.81H79.5v3.87h-1.94V7.81z M64,7.81h9.69v9.69H64V7.81z M52.37,7.81h1.94v3.87h3.87V7.81h1.94v9.69h-1.94v-3.87h-3.87v3.87h-1.94
		V7.81z M40.75,17.5v-1.94h5.81v-1.94h-5.81V7.81h7.75v1.94h-5.81v1.94h5.81v5.81H40.75z M56.25,25.25h15.5V33h-15.5L56.25,25.25
		L56.25,25.25z M126,126H2c0-6.42,5.21-11.62,11.62-11.62h100.75C120.79,114.37,126,119.58,126,126z M25.25,67.87H17.5v34.87v7.75
		h93v-7.75V67.87h-7.75H25.25z M25.25,102.75V75.62H48.5v27.12H25.25z M56.25,102.75V75.62h46.5v27.12H56.25z M36.87,87.25
		c0,2.14-1.73,3.87-3.87,3.87c-2.14,0-3.87-1.73-3.87-3.87s1.73-3.87,3.87-3.87S36.87,85.11,36.87,87.25z M85.31,11.69H79.5V9.75
		h5.81V11.69z M65.94,9.75h5.81v5.81h-5.81V9.75z"/>
</g>
</svg>
