<?xml version="1.0" encoding="utf-8"?>
<!-- Generator: Adobe Illustrator 23.0.0, SVG Export Plug-In . SVG Version: 6.00 Build 0)  -->
<svg version="1.1" id="Layer_1" xmlns="http://www.w3.org/2000/svg" xmlns:xlink="http://www.w3.org/1999/xlink" x="0px" y="0px"
	 viewBox="0 0 128 128" style="enable-background:new 0 0 128 128;" xml:space="preserve">
<g>
	<path d="M123.08,108.89l-14.19,14.19c-1.88,1.88-4.49,2.92-7.1,2.92s-5.22-1.04-7.1-2.92L64,92.39l-30.68,30.68
		c-1.88,1.88-4.49,2.92-7.1,2.92s-5.22-1.04-7.1-2.92L4.92,108.89C3.04,107.01,2,104.4,2,101.79c0-2.61,1.04-5.22,2.92-7.1L35.61,64
		L4.92,33.31C3.04,31.43,2,28.82,2,26.21c0-2.61,1.04-5.22,2.92-7.1L19.11,4.92C20.99,3.04,23.6,2,26.21,2s5.22,1.04,7.1,2.92
		L64,35.61L94.68,4.92C96.57,3.04,99.17,2,101.79,2s5.22,1.04,7.1,2.92l14.19,14.19c1.88,1.88,2.92,4.49,2.92,7.1
		c0,2.61-1.04,5.22-2.92,7.1L92.39,64l30.68,30.69c1.88,1.88,2.92,4.49,2.92,7.1C126,104.4,124.96,107.01,123.08,108.89z"/>
</g>
</svg>
