<?xml version="1.0" encoding="utf-8"?>
<!-- Generator: Adobe Illustrator 23.0.0, SVG Export Plug-In . SVG Version: 6.00 Build 0)  -->
<svg version="1.1" id="Layer_1" xmlns="http://www.w3.org/2000/svg" xmlns:xlink="http://www.w3.org/1999/xlink" x="0px" y="0px"
	 viewBox="0 0 128 128" style="enable-background:new 0 0 128 128;" xml:space="preserve">
<g>
	<path d="M126,102.75c0,12.83-10.41,23.25-23.25,23.25h-77.5C12.41,126,2,115.59,2,102.75V25.25C2,12.41,12.41,2,25.25,2h77.5
		C115.59,2,126,12.41,126,25.25V102.75z M106.87,46.97c2.02-2.02,2.02-5.25,0-7.27l-8.24-8.23c-2.02-2.02-5.25-2.02-7.26,0
		l-37.7,37.7L36.63,52.13c-2.02-2.02-5.25-2.02-7.26,0l-8.24,8.23c-2.02,2.02-2.02,5.25,0,7.27l28.9,28.9
		c2.02,2.02,5.25,2.02,7.26,0L106.87,46.97z"/>
</g>
</svg>
