<?xml version="1.0" encoding="utf-8"?>
<!-- Generator: Adobe Illustrator 23.0.0, SVG Export Plug-In . SVG Version: 6.00 Build 0)  -->
<svg version="1.1" id="Layer_1" xmlns="http://www.w3.org/2000/svg" xmlns:xlink="http://www.w3.org/1999/xlink" x="0px" y="0px"
	 viewBox="0 0 128 128" style="enable-background:new 0 0 128 128;" xml:space="preserve">
<g>
	<path d="M123.76,40.48L65.84,98.4l-10.88,10.88c-1.44,1.44-3.44,2.24-5.44,2.24c-2,0-4-0.8-5.44-2.24L33.2,98.4L4.24,69.44
		C2.8,68,2,66,2,64c0-2,0.8-4,2.24-5.44l10.88-10.88c1.44-1.44,3.44-2.24,5.44-2.24c2,0,4,0.8,5.44,2.24l23.52,23.6L102,18.72
		c1.44-1.44,3.44-2.24,5.44-2.24c2,0,4.01,0.8,5.44,2.24l10.88,10.88c1.44,1.44,2.24,3.44,2.24,5.44
		C126,37.04,125.2,39.04,123.76,40.48z"/>
</g>
</svg>
