<?xml version="1.0" encoding="utf-8"?>
<!-- Generator: Adobe Illustrator 20.1.0, SVG Export Plug-In . SVG Version: 6.00 Build 0)  -->
<svg version="1.1" id="Layer_1" xmlns="http://www.w3.org/2000/svg" xmlns:xlink="http://www.w3.org/1999/xlink" x="0px" y="0px"
	 viewBox="0 0 128 128" style="enable-background:new 0 0 128 128;" xml:space="preserve">
<g>
	<path d="M113,2H15c-1.8,0-3.3,1.5-3.3,3.3v117.5c0,1.8,1.5,3.3,3.3,3.3H113c1.8,0,3.3-1.5,3.3-3.3V5.3C116.3,3.5,114.8,2,113,2z
		 M109.8,119.5H18.2V33.6h91.5V119.5z"/>
	<path d="M31.3,59.4h65.4c0.9,0,1.6-0.7,1.6-1.6V46.7c0-0.9-0.7-1.6-1.6-1.6H31.3c-0.9,0-1.6,0.7-1.6,1.6v11.1
		C29.7,58.7,30.4,59.4,31.3,59.4z"/>
	<path d="M31.3,107.5h29.8c0.9,0,1.6-0.7,1.6-1.6V74.8c0-0.9-0.7-1.6-1.6-1.6H31.3c-0.9,0-1.6,0.7-1.6,1.6v31.1
		C29.7,106.8,30.4,107.5,31.3,107.5z"/>
	<path d="M96.7,73.2H73.8c-0.9,0-1.6,0.7-1.6,1.6v9.5c0,0.9,0.7,1.6,1.6,1.6h22.9c0.9,0,1.6-0.7,1.6-1.6v-9.5
		C98.3,73.9,97.6,73.2,96.7,73.2z"/>
	<path d="M96.7,94.3H73.8c-0.9,0-1.6,0.7-1.6,1.6v9.5c0,0.9,0.7,1.6,1.6,1.6h22.9c0.9,0,1.6-0.7,1.6-1.6v-9.5
		C98.3,95,97.6,94.3,96.7,94.3z"/>
</g>
</svg>
