<?xml version="1.0" encoding="utf-8"?>
<!-- Generator: Adobe Illustrator 23.0.0, SVG Export Plug-In . SVG Version: 6.00 Build 0)  -->
<svg version="1.1" id="Layer_1" xmlns="http://www.w3.org/2000/svg" xmlns:xlink="http://www.w3.org/1999/xlink" x="0px" y="0px"
	 viewBox="0 0 128 128" style="enable-background:new 0 0 128 128;" xml:space="preserve">
<g>
	<path d="M117.14,100.19c0,14.25-10.59,25.81-23.6,25.81H34.45c-13.01,0-23.6-11.56-23.6-25.81c0-31.48,13.43-41.1,23.18-43.94
		c-3.46-5.47-5.47-11.9-5.47-18.82C28.57,17.92,44.48,2,64,2s35.43,15.92,35.43,35.43c0,6.92-2.01,13.36-5.47,18.82
		C103.72,59.09,117.14,68.7,117.14,100.19z M108.29,100.19c0-21.79-7.33-35.43-21.03-36.12c-6.23,5.47-14.32,8.79-23.25,8.79
		s-17.02-3.32-23.25-8.79c-13.7,0.69-21.03,14.32-21.03,36.12c0,9.41,6.65,16.96,14.74,16.96h59.09
		C101.64,117.14,108.29,109.6,108.29,100.19z M37.43,37.43C37.43,52.1,49.33,64,64,64s26.57-11.9,26.57-26.57S78.67,10.86,64,10.86
		S37.43,22.76,37.43,37.43z"/>
</g>
</svg>
