<?xml version="1.0" encoding="utf-8"?>
<!-- Generator: Adobe Illustrator 20.1.0, SVG Export Plug-In . SVG Version: 6.00 Build 0)  -->
<svg version="1.1" id="Layer_1" xmlns="http://www.w3.org/2000/svg" xmlns:xlink="http://www.w3.org/1999/xlink" x="0px" y="0px"
	 viewBox="0 0 128 128" style="enable-background:new 0 0 128 128;" xml:space="preserve">
<g>
	<g id="Layer_1_36_">
		<g>
			<path d="M107.3,16.4H84.2V28h17.3v86.5h-75V28h17.3V16.4H20.7c-3.2,0-5.8,2.6-5.8,5.8v98c0,3.2,2.6,5.8,5.8,5.8h86.5
				c3.2,0,5.8-2.6,5.8-5.8v-98C113,19,110.4,16.4,107.3,16.4z"/>
			<path d="M50.9,39c0.2,0.1,5.1,3.4,13.1,3.4s12.9-3.2,13.1-3.4c0.8-0.5,1.3-1.4,1.3-2.4V4.9c0-1.6-1.3-2.9-2.9-2.9H52.5
				c-1.6,0-2.9,1.3-2.9,2.9v31.7C49.6,37.6,50.1,38.5,50.9,39z M55.3,7.8h17.3v27.1c-1.6,0.7-4.6,1.7-8.6,1.7c-4,0-7.1-1-8.7-1.7
				L55.3,7.8L55.3,7.8z"/>
			<path d="M49,95.1c-6.4,2.1-12.1,2.5-12.1,10.9c0,1.7,8.8,3.4,23.3,3.6l1.8-11.8l-0.9-1.5c-0.1-0.2-0.1-0.5,0.1-0.7l2.4-2.6
				c0.2-0.2,0.6-0.2,0.8,0l2.4,2.6c0.2,0.2,0.2,0.4,0.1,0.7l-0.9,1.5l1.8,11.8c14.5-0.2,23.3-1.9,23.3-3.6c0-8.4-5.7-8.8-12.1-10.9
				c-3.9-1.3-8.8-2-7.8-8.8c2.6-2.4,3.5-7.2,3.5-7.2s3.4-1.7,3.8-5.1c0.3-2.5-1-3.7-1-3.7s0-0.2,0-3.2c0-7.2-6.1-12.8-13.5-12.8
				s-13.5,5.6-13.5,12.8c0,3,0,3.2,0,3.2s-1.3,1.2-1,3.7c0.4,3.3,3.8,5.1,3.8,5.1s0.9,4.9,3.5,7.2C57.8,93.1,53,93.8,49,95.1z"/>
			<circle cx="64" cy="13.5" r="4.6"/>
		</g>
	</g>
</g>
</svg>
