<?xml version="1.0" encoding="utf-8"?>
<!-- Generator: Adobe Illustrator 20.1.0, SVG Export Plug-In . SVG Version: 6.00 Build 0)  -->
<svg version="1.1" id="Layer_1" xmlns="http://www.w3.org/2000/svg" xmlns:xlink="http://www.w3.org/1999/xlink" x="0px" y="0px"
	 viewBox="0 0 128 128" style="enable-background:new 0 0 128 128;" xml:space="preserve">
<g transform="translate(192 48)">
	<path d="M-70.9,52.9c0-5.3-3.7-5.4-8.1-7.1l-20.6-8.2c-0.4-0.1-0.7-0.3-1.1-0.4v0c-3.7-1.7-6.9-4-8.1-5.6l0-0.1l0,0
		c-0.1-0.1-0.1-0.2-0.2-0.3l0-0.1l0,0l0-0.1v0c-0.5-0.8-1.1-1.2-1.6-1l0,0l0,0l0,0l0,0h0l0,0c-0.6,0.3-0.4,0-0.7-0.6
		c-0.6-1.5-1.5-4.4-1.6-4.8c-0.2-0.8-0.8,1.2-0.7-0.9l0.2-3.9c0.4-0.4,0.7-0.7,0.9-1c1.3-1.5,1.4-5.6,2.1-6.6c0.7-1,2-1.2,3.4-5.8
		c1.3-4.6,3-11.2,1.3-11.3c-0.4,0-0.9,0.3-1.4,0.7c0.3-1.7,0.9-5.5,1.1-8.3c0.2-3.7-0.4-13.3-2.5-16.8c-1.3-2.2-4-4.4-6.7-6
		c-1.6-1-3.2-1.9-4.5-2.4c-3.9-1.7-16.1-0.9-20.2,0c-4.7,1.1-8,4-10.1,7.5c-2.1,3.5-3,14-2.9,17.7c0.1,1.7,1.1,4.5,1.3,6.2
		c0.1,0.9,0.3,0.9,0.4,1.5c-0.2-0.1-0.3-0.1-0.5-0.1c-1.7,0.1-0.1,6.7,1.2,11.3c1.3,4.6,2.7,4.8,3.4,5.8c0.7,1,0.8,5,2.1,6.6
		c0.2,0.2,0.5,0.6,0.9,1l0.3,3.2l0.4,1.8c-0.2-0.5-0.6-0.8-0.8-0.2c-0.6,1.8-1.2,3.5-1.7,5.3c-0.1-0.1-0.2-0.1-0.3-0.1
		c-0.6-0.5-1.3-0.1-2,1.1c-1,1.7-4.4,4.1-8.3,5.9l-0.1,0.2l-0.1,0.2l0,0.1c-0.3,0.1-0.6,0.3-0.9,0.4l-20.6,8.2
		c-4.4,1.8-8.1,1.9-8.1,7.1l-3.4,17.9h123.4L-70.9,52.9L-70.9,52.9z"/>
</g>
</svg>
