<?xml version="1.0" encoding="utf-8"?>
<!-- Generator: Adobe Illustrator 20.1.0, SVG Export Plug-In . SVG Version: 6.00 Build 0)  -->
<svg version="1.1" id="Layer_1" xmlns="http://www.w3.org/2000/svg" xmlns:xlink="http://www.w3.org/1999/xlink" x="0px" y="0px"
	 viewBox="0 0 128 128" style="enable-background:new 0 0 128 128;" xml:space="preserve">
<g>
	<g>
		<path d="M118,21.6H44.7c-1,0-2,0.4-2.7,1.1l-5,5l-5-5c-0.7-0.7-1.7-1.1-2.7-1.1H10c-4.2,0-7.7,3.5-7.7,7.7v69.4
			c0,4.3,3.5,7.7,7.7,7.7h19.3c1,0,2-0.4,2.7-1.1l5-5l5,5c0.7,0.7,1.7,1.1,2.7,1.1H118c4.3,0,7.7-3.5,7.7-7.7V29.3
			C125.7,25,122.2,21.6,118,21.6z M40.9,91h-7.7v-7.7h7.7V91z M40.9,75.6h-7.7v-7.7h7.7V75.6z M40.9,60.1h-7.7v-7.7h7.7V60.1z
			 M40.9,44.7h-7.7V37h7.7V44.7z M67.9,37c6.4,0,11.6,5.2,11.6,11.6s-5.2,11.6-11.6,11.6c-6.4,0-11.6-5.2-11.6-11.6S61.5,37,67.9,37
			z M60.1,91c-0.9,0-1.7-0.3-2.5-0.9c-1.6-1.4-1.9-3.8-0.5-5.4l38.6-46.3c1.4-1.6,3.8-1.8,5.4-0.5c1.6,1.4,1.9,3.8,0.5,5.4
			L63.1,89.6C62.3,90.5,61.2,91,60.1,91z M91,91c-6.4,0-11.6-5.2-11.6-11.6c0-6.4,5.2-11.6,11.6-11.6s11.6,5.2,11.6,11.6
			C102.6,85.8,97.4,91,91,91z"/>
	</g>
</g>
</svg>
