<?xml version="1.0" encoding="utf-8"?>
<!-- Generator: Adobe Illustrator 20.1.0, SVG Export Plug-In . SVG Version: 6.00 Build 0)  -->
<svg version="1.1" id="Layer_1" xmlns="http://www.w3.org/2000/svg" xmlns:xlink="http://www.w3.org/1999/xlink" x="0px" y="0px"
	 viewBox="0 0 128 128" style="enable-background:new 0 0 128 128;" xml:space="preserve">
<g>
	<g id="extension">
		<path d="M111.7,61h-8.9V37.2c0-6.6-5.4-11.9-11.9-11.9H67v-8.9C67,8,60.4,1.4,52.1,1.4S37.2,8,37.2,16.3v8.9H13.3
			c-6.6,0-11.9,5.4-11.9,11.9v22.6h8.9c8.9,0,16.1,7.2,16.1,16.1S19.3,92,10.4,92H1.4v22.6c0,6.6,5.4,11.9,11.9,11.9H36v-8.9
			c0-8.9,7.2-16.1,16.1-16.1s16.1,7.2,16.1,16.1v8.9h22.6c6.6,0,11.9-5.4,11.9-11.9V90.8h8.9c8.3,0,14.9-6.6,14.9-14.9
			S120,61,111.7,61z"/>
	</g>
</g>
</svg>
