<?xml version="1.0" encoding="utf-8"?>
<!-- Generator: Adobe Illustrator 23.0.0, SVG Export Plug-In . SVG Version: 6.00 Build 0)  -->
<svg version="1.1" id="Layer_1" xmlns="http://www.w3.org/2000/svg" xmlns:xlink="http://www.w3.org/1999/xlink" x="0px" y="0px"
	 viewBox="0 0 128 128" style="enable-background:new 0 0 128 128;" xml:space="preserve">
<style type="text/css">
	.st0{fill:#030104;}
</style>
<g>
	<g>
		<path class="st0" d="M78.8,91.8c-15.6-5.6-20.5-10.3-20.5-20.5c0-6.1,4.7-4.1,6.8-15.2C66,51.4,70.2,56,71,45.4
			c0-4.2-2.3-5.2-2.3-5.2s1.2-6.2,1.6-11c0.6-6-3.5-21.4-25.1-21.4S19.6,23.2,20.2,29.2c0.5,4.8,1.6,11,1.6,11s-2.3,1-2.3,5.2
			c0.8,10.5,5,6,5.9,10.6c2.1,11.1,6.8,9.1,6.8,15.2c0,10.1-5,14.9-20.5,20.5c-1.9,0.7-6.3,1.7-10.1,3.4v25.1h99.9c0,0,0-9.2,0-13.1
			C101.5,103.1,94.4,97.4,78.8,91.8z M107.7,57.8V39H95.2v18.7H76.5v12.5h18.7V89h12.5V70.2h18.7V57.8H107.7z"/>
	</g>
</g>
</svg>
