<?xml version="1.0" encoding="utf-8"?>
<!-- Generator: Adobe Illustrator 23.0.0, SVG Export Plug-In . SVG Version: 6.00 Build 0)  -->
<svg version="1.1" id="Layer_1" xmlns="http://www.w3.org/2000/svg" xmlns:xlink="http://www.w3.org/1999/xlink" x="0px" y="0px"
	 viewBox="0 0 128 128" style="enable-background:new 0 0 128 128;" xml:space="preserve">
<g>
	<path d="M64,62.6c13.9,0,25.1-13.7,25.1-30.5c0-16.9-3.7-30.5-25.1-30.5S38.8,15.2,38.8,32.1C38.8,49,50.1,62.6,64,62.6z"/>
	<path d="M16.5,109.3C16.5,108.2,16.5,109,16.5,109.3L16.5,109.3z"/>
	<path d="M111.5,110.1C111.5,109.8,111.5,108.1,111.5,110.1L111.5,110.1z"/>
	<path d="M111.4,108C111,78.7,107.1,70.3,77.8,65c0,0-4.1,5.3-13.8,5.3S50.2,65,50.2,65c-29.1,5.2-33.1,13.5-33.7,42.1
		c0,2.3-0.1,2.5-0.1,2.2c0,0.5,0,1.4,0,3.1c0,0,7,14.1,47.5,14.1c40.5,0,47.5-14.1,47.5-14.1c0-1.1,0-1.8,0-2.3
		C111.5,110.2,111.5,109.9,111.4,108z"/>
</g>
</svg>
