<?xml version="1.0" encoding="utf-8"?>
<!-- Generator: Adobe Illustrator 20.1.0, SVG Export Plug-In . SVG Version: 6.00 Build 0)  -->
<svg version="1.0" id="Layer_1" xmlns="http://www.w3.org/2000/svg" xmlns:xlink="http://www.w3.org/1999/xlink" x="0px" y="0px"
	 viewBox="0 0 128 128" style="enable-background:new 0 0 128 128;" xml:space="preserve">
<g>
	<path d="M22.4,113.7c0.1,1.8,1.9,3.2,4,3.2h2.2c2.2,0,4-1.5,4-3.4V58.5h-15L22.4,113.7z"/>
	<path d="M40.3,73.6c0.1,1.4,1.5,2.6,3.2,2.6h1.8c1.8,0,3.2-1.2,3.2-2.7v-15H39L40.3,73.6z"/>
	<path d="M79.6,73.5c0,1.5,1.4,2.7,3.2,2.7h1.8c1.7,0,3.1-1.1,3.2-2.6l1.3-15.1h-9.5V73.5z"/>
	<path d="M95.1,113.5c0,1.9,1.8,3.4,4,3.4h2.2c2.1,0,3.9-1.4,4-3.2l4.7-55.2h-15V113.5z"/>
	<path d="M123.5,47l-16.9-31.9c-1.3-2.3-3.7-4.2-6.4-4.2H28.1c-2.7,0-5.1,1.8-6.4,4.2c0,0-13.8,25.9-16.9,31.7
		c-0.4,0.7-0.6,1.7-0.5,2.5l0.3,3.3C4.7,54.2,6,55,7.5,55h113.2c1.5,0,2.8-0.8,2.9-2.3c0,0,0.2-2,0.3-3.4
		C124.1,48.4,123.9,47.8,123.5,47z M42,21.6c0-0.2-0.1-0.8,0-0.9c0.2-0.2,0.1-0.6,0.3-0.6H77v-4.1c0-0.2,0.1-0.4,0.2-0.6
		c0.2-0.2,0.4-0.2,0.6-0.2c0.2,0,0.4,0.1,0.6,0.3l8,8c0.2,0.2,0.2,0.3,0.2,0.6c0,0.2-0.1,0.4-0.2,0.6l-8.1,8.1
		c-0.2,0.2-0.3,0.2-0.6,0.2c-0.2,0-0.4-0.1-0.6-0.2C77.1,32.4,77,32.3,77,32v-5H42.4c-0.2,0-0.2,0-0.3-0.1s0-0.2,0-0.5V21.6z
		 M86,42.5c0,0.2,0.3,0.2,0.1,0.4c-0.2,0.2,0,0.1-0.2,0.1H51v5.2c0,0.2,0,0.4-0.1,0.6c-0.2,0.2-0.3,0.2-0.5,0.2
		c-0.2,0-0.4-0.1-0.6-0.3l-8-8.1c-0.2-0.2-0.2-0.3-0.2-0.6c0-0.2,0.1-0.4,0.2-0.6l8.1-8.1c0.2-0.2,0.3-0.2,0.6-0.2
		c0.2,0,0.3,0.1,0.4,0.2C51,31.6,51,31.8,51,32v5h34.9c0.2,0,0.1,0,0.2,0.2c0.2,0.2-0.1,0.3-0.1,0.5V42.5z"/>
</g>
<g>
</g>
<g>
</g>
<g>
</g>
<g>
</g>
<g>
</g>
<g>
</g>
<g>
</g>
<g>
</g>
<g>
</g>
<g>
</g>
<g>
</g>
<g>
</g>
<g>
</g>
<g>
</g>
<g>
</g>
</svg>
