<?xml version="1.0" encoding="utf-8"?>
<!-- Generator: Adobe Illustrator 23.0.0, SVG Export Plug-In . SVG Version: 6.00 Build 0)  -->
<svg version="1.1" id="Layer_1" xmlns="http://www.w3.org/2000/svg" xmlns:xlink="http://www.w3.org/1999/xlink" x="0px" y="0px"
	 viewBox="0 0 128 128" style="enable-background:new 0 0 128 128;" xml:space="preserve">
<path d="M64,1.7C29.7,1.7,1.7,29.7,1.7,64s28,62.3,62.3,62.3s62.3-28,62.3-62.3S98.3,1.7,64,1.7z M14.1,64c0-11.5,4-22,10.5-30.5
	l69.8,69.8c-8.4,6.6-19,10.5-30.5,10.5C36.6,113.9,14.1,91.4,14.1,64z M103.3,94.5L33.5,24.7c8.4-6.6,19-10.5,30.5-10.5
	c27.4,0,49.9,22.4,49.9,49.9C113.9,75.5,109.9,86,103.3,94.5z"/>
</svg>
