<?xml version="1.0" encoding="utf-8"?>
<!-- Generator: Adobe Illustrator 20.1.0, SVG Export Plug-In . SVG Version: 6.00 Build 0)  -->
<svg version="1.0" id="Layer_1" xmlns="http://www.w3.org/2000/svg" xmlns:xlink="http://www.w3.org/1999/xlink" x="0px" y="0px"
	 viewBox="0 0 128 128" style="enable-background:new 0 0 128 128;" xml:space="preserve">
<g>
	<g>
		<path d="M116.8,65.6c-0.9-0.4-1.6-0.2-2.2,0.4l-4.2,4.1c-2.3-2.2-4.9-3.8-7.8-5c-2.9-1.2-6-1.8-9.1-1.8c-3.3,0-6.5,0.7-9.6,2
			c-3,1.3-5.7,3.1-7.9,5.3c-2.2,2.2-4,4.8-5.3,7.9c-1.3,3-2,6.2-2,9.6c0,3.3,0.7,6.5,2,9.6c1.3,3,3.1,5.7,5.3,7.9
			c2.2,2.2,4.8,4,7.9,5.3c3,1.3,6.2,2,9.6,2c3.7,0,7.2-0.8,10.5-2.3c3.3-1.5,6.1-3.7,8.5-6.6c0.2-0.2,0.3-0.5,0.2-0.7
			c0-0.3-0.1-0.5-0.3-0.7l-4.4-4.4c-0.2-0.2-0.5-0.3-0.8-0.3c-0.3,0-0.6,0.2-0.7,0.4c-1.6,2-3.5,3.6-5.7,4.7
			c-2.3,1.1-4.7,1.7-7.2,1.7c-2.2,0-4.3-0.4-6.4-1.3c-2-0.9-3.8-2-5.2-3.5c-1.5-1.5-2.6-3.2-3.5-5.2c-0.9-2-1.3-4.1-1.3-6.4
			c0-2.2,0.4-4.3,1.3-6.4c0.9-2,2-3.8,3.5-5.2c1.5-1.5,3.2-2.6,5.2-3.5c2-0.9,4.1-1.3,6.4-1.3c4.3,0,8,1.5,11.2,4.4l-4.4,4.4
			c-0.7,0.6-0.8,1.4-0.4,2.2c0.4,0.9,1,1.3,1.9,1.3H116c0.6,0,1-0.2,1.4-0.6c0.4-0.4,0.6-0.9,0.6-1.4V67.5
			C118.1,66.6,117.7,65.9,116.8,65.6z"/>
	</g>
	<path d="M64.5,87.7c0-13.6,9.4-24.7,22-27.8c-1.4-1.4-3.3-2-5.5-2H29V33.9c0-11.3,9.7-20.4,21-20.4c11.3,0,21,9.2,21,20.4v9.4
		c0,2.6,1.9,4.7,4.5,4.7c2.6,0,4.5-2.1,4.5-4.7v-9.4C80,17.4,66,4,49.5,4S19,17.4,19,33.9V58h-0.8c-4.3,0-8.2,3-8.2,7.3v50.3
		c0,4.3,3.8,8.4,8.2,8.4h62.9c4.1,0,7.5-3.5,7.8-7.5C75.1,114.3,64.5,102.1,64.5,87.7z M54,92.3V106h-9V92.3c-3-1.6-4.8-4.7-4.8-8.2
		c0-5.2,4.2-9.4,9.4-9.4c5.2,0,9.3,4.2,9.3,9.4C58.9,87.7,57,90.7,54,92.3z"/>
</g>
<g>
</g>
<g>
</g>
<g>
</g>
<g>
</g>
<g>
</g>
<g>
</g>
<g>
</g>
<g>
</g>
<g>
</g>
<g>
</g>
<g>
</g>
<g>
</g>
<g>
</g>
<g>
</g>
<g>
</g>
</svg>
