<?xml version="1.0" encoding="utf-8"?>
<!-- Generator: Adobe Illustrator 23.0.0, SVG Export Plug-In . SVG Version: 6.00 Build 0)  -->
<svg version="1.1" id="Layer_1" xmlns="http://www.w3.org/2000/svg" xmlns:xlink="http://www.w3.org/1999/xlink" x="0px" y="0px"
	 viewBox="0 0 128 128" style="enable-background:new 0 0 128 128;" xml:space="preserve">
<g>
	<g>
		<path d="M97.6,73h-4.5c-0.7,0-1.2,0.2-1.6,0.6c-0.4,0.4-0.6,1-0.6,1.6v22.4c0,3.1-1.1,5.7-3.3,7.9c-2.2,2.2-4.8,3.3-7.9,3.3H21.5
			c-3.1,0-5.7-1.1-7.9-3.3c-2.2-2.2-3.3-4.8-3.3-7.9V39.4c0-3.1,1.1-5.7,3.3-7.9c2.2-2.2,4.8-3.3,7.9-3.3h49.2
			c0.7,0,1.2-0.2,1.6-0.6c0.4-0.4,0.6-1,0.6-1.6v-4.5c0-0.7-0.2-1.2-0.6-1.6c-0.4-0.4-1-0.6-1.6-0.6H21.5c-5.5,0-10.3,2-14.2,5.9
			c-3.9,3.9-5.9,8.7-5.9,14.2v58.2c0,5.5,2,10.3,5.9,14.2c3.9,3.9,8.7,5.9,14.2,5.9h58.2c5.5,0,10.3-2,14.2-5.9
			c3.9-3.9,5.9-8.7,5.9-14.2V75.2c0-0.7-0.2-1.2-0.6-1.6C98.8,73.2,98.2,73,97.6,73z"/>
		<path d="M125.3,11.6c-0.9-0.9-1.9-1.3-3.1-1.3H86.4c-1.2,0-2.3,0.4-3.1,1.3c-0.9,0.9-1.3,1.9-1.3,3.1s0.4,2.3,1.3,3.1l12.3,12.3
			L49.9,75.8c-0.5,0.5-0.7,1-0.7,1.6c0,0.6,0.2,1.1,0.7,1.6l8,8c0.5,0.5,1,0.7,1.6,0.7c0.6,0,1.1-0.2,1.6-0.7l45.6-45.6L119,53.7
			c0.9,0.9,1.9,1.3,3.1,1.3c1.2,0,2.3-0.4,3.1-1.3c0.9-0.9,1.3-1.9,1.3-3.1V14.8C126.7,13.5,126.2,12.5,125.3,11.6z"/>
	</g>
</g>
</svg>
