<?xml version="1.0" encoding="utf-8"?>
<!-- Generator: Adobe Illustrator 23.0.0, SVG Export Plug-In . SVG Version: 6.00 Build 0)  -->
<svg version="1.1" id="Layer_1" xmlns="http://www.w3.org/2000/svg" xmlns:xlink="http://www.w3.org/1999/xlink" x="0px" y="0px"
	 viewBox="0 0 128 128" style="enable-background:new 0 0 128 128;" xml:space="preserve">
<g>
	<rect x="38" y="1.3" width="22.5" height="36.7"/>
	<rect x="82.6" y="1.3" width="7.3" height="36.7"/>
	<rect x="38" y="75.3" width="51.9" height="7.3"/>
	<rect x="67.9" y="1.3" width="7.3" height="36.7"/>
	<path d="M123.5,29.6L98.4,4.5c-0.3-0.3-0.7-0.6-1.1-0.9v38.1c0,2-1.6,3.7-3.7,3.7H34.4c-2,0-3.7-1.6-3.7-3.7V1.3H12.3
		c-6.1,0-11,4.9-11,11v103.4c0,6.1,4.9,11,11,11h18.4V71.6c0-2,1.6-3.7,3.7-3.7h59.3c2,0,3.7,1.6,3.7,3.7v55.1h18.4
		c6.1,0,11-4.9,11-11V37.4C126.7,34.5,125.6,31.7,123.5,29.6z M19.7,112c-2,0-3.7-1.6-3.7-3.7c0-2,1.6-3.7,3.7-3.7
		c2,0,3.7,1.6,3.7,3.7C23.3,110.4,21.7,112,19.7,112z M19.7,23.3c-2,0-3.7-1.6-3.7-3.7c0-2,1.6-3.7,3.7-3.7c2,0,3.7,1.6,3.7,3.7
		C23.3,21.7,21.7,23.3,19.7,23.3z M108.3,112c-2,0-3.7-1.6-3.7-3.7c0-2,1.6-3.7,3.7-3.7c2,0,3.7,1.6,3.7,3.7
		C112,110.4,110.4,112,108.3,112z"/>
	<path d="M38,126.7H90V90H38V126.7z M49.1,97.3h29.9c2,0,3.7,1.6,3.7,3.7s-1.6,3.7-3.7,3.7H49.1c-2,0-3.7-1.6-3.7-3.7
		S47,97.3,49.1,97.3z"/>
</g>
</svg>
