<?xml version="1.0" encoding="utf-8"?>
<!-- Generator: Adobe Illustrator 23.0.0, SVG Export Plug-In . SVG Version: 6.00 Build 0)  -->
<svg version="1.1" id="Layer_1" xmlns="http://www.w3.org/2000/svg" xmlns:xlink="http://www.w3.org/1999/xlink" x="0px" y="0px"
	 viewBox="0 0 128 128" style="enable-background:new 0 0 128 128;" xml:space="preserve">
<g>
	<path d="M121.3,39.5l-5.5,5.5L83,12.2l5.5-5.5c6-6,15.8-6,21.9,0l10.9,10.9C127.3,23.7,127.3,33.5,121.3,39.5z M44.8,105.1
		c-1.5,1.5-1.5,4,0,5.5c1.5,1.5,4,1.5,5.5,0l60.1-60.1l-5.5-5.5L44.8,105.1z M17.5,77.7c-1.5,1.5-1.5,4,0,5.5c1.5,1.5,4,1.5,5.5,0
		L83,23.1l-5.5-5.5L17.5,77.7z M88.5,28.6L28.4,88.7c-3,3-3,7.9,0,10.9c3,3,7.9,3,10.9,0l60.1-60.1L88.5,28.6z M39.3,116
		c-1.8-1.9-2.7-4.2-3.1-6.6c-0.8,0.1-1.6,0.2-2.4,0.2c-4.1,0-8-1.6-10.9-4.5c-2.9-2.9-4.5-6.8-4.5-10.9c0-0.8,0.1-1.5,0.2-2.2
		c-2.5-0.3-4.8-1.4-6.6-3.2c-0.2-0.2-0.2-0.4-0.4-0.6l-9.4,37.8l37.7-9.4C39.7,116.3,39.5,116.1,39.3,116z"/>
</g>
</svg>
