<?xml version="1.0" encoding="utf-8"?>
<!-- Generator: Adobe Illustrator 23.0.0, SVG Export Plug-In . SVG Version: 6.00 Build 0)  -->
<svg version="1.1" id="Layer_1" xmlns="http://www.w3.org/2000/svg" xmlns:xlink="http://www.w3.org/1999/xlink" x="0px" y="0px"
	 viewBox="0 0 128 128" style="enable-background:new 0 0 128 128;" xml:space="preserve">
<path d="M126.9,72c0,1.4-0.7,2.9-2.1,4.4L102.3,103c-1.9,2.3-4.6,4.2-8.1,5.8c-3.5,1.6-6.7,2.4-9.6,2.4H11.8c-1.5,0-2.9-0.3-4-0.9
	c-1.2-0.6-1.8-1.5-1.8-2.9c0-1.4,0.7-2.9,2.1-4.4l22.5-26.5c1.9-2.3,4.6-4.2,8.1-5.8c3.5-1.6,6.7-2.4,9.6-2.4h72.8
	c1.5,0,2.9,0.3,4,0.9C126.3,69.7,126.9,70.7,126.9,72z M103.9,49v10.7H48.2c-4.2,0-8.6,1.1-13.2,3.2s-8.3,4.8-11,8L1.5,97.4
	l-0.3,0.4c0-0.2,0-0.5,0-0.8s0-0.7,0-0.8V31.9c0-4.1,1.5-7.6,4.4-10.6s6.5-4.4,10.6-4.4h21.4c4.1,0,7.6,1.5,10.6,4.4
	c2.9,2.9,4.4,6.5,4.4,10.6V34h36.4c4.1,0,7.6,1.5,10.6,4.4C102.5,41.4,103.9,44.9,103.9,49z"/>
</svg>
