<?xml version="1.0" encoding="utf-8"?>
<!-- Generator: Adobe Illustrator 23.0.0, SVG Export Plug-In . SVG Version: 6.00 Build 0)  -->
<svg version="1.1" id="Layer_1" xmlns="http://www.w3.org/2000/svg" xmlns:xlink="http://www.w3.org/1999/xlink" x="0px" y="0px"
	 viewBox="0 0 128 128" style="enable-background:new 0 0 128 128;" xml:space="preserve">
<path d="M113.3,58.9c-0.9-1.5-2.4-2.4-4.3-2.4c-3.5,0-7.8,1.4-11.1,3.6c-3,2.1-7.5,5.9-11.2,12.4c-0.7,1.2-1.8,2.1-3.1,2.2
	c0-0.3,0-0.6,0-0.9c0-0.7,0-1.4,0-2.3V24.8c0-4.7-3.8-8.5-8.5-8.5c-4.7,0-8.5,3.8-8.5,8.5v32.8c0,0.6-0.5,1.1-1.1,1.1
	s-1.1-0.5-1.1-1.1V10c0-4.7-3.8-8.5-8.5-8.5s-8.5,3.8-8.5,8.5v47.6c0,0.6-0.5,1.1-1.1,1.1c-0.6,0-1.1-0.5-1.1-1.1V19.5
	c0-4.1-3.3-7.4-7.4-7.4s-7.4,3.3-7.4,7.4v42.3c0,0.6-0.5,1.1-1.1,1.1c-0.6,0-1.1-0.5-1.1-1.1V35.4c0-4.1-3.3-7.4-7.4-7.4
	c-4.1,0-7.4,3.3-7.4,7.4l0,57.5c2,29.6,20.2,33.6,37.7,33.6c14.5,0,27.5-7.2,33.9-18.7c0.8-1.3,3.1-4.8,5.7-9
	c6.6-10.4,12.2-19.1,13-20.7c1.8-3.5,3.9-6.2,5.9-7.8c1.8-1.5,3-3.4,3.9-5.1C114.3,64.4,114.7,61.2,113.3,58.9z"/>
</svg>
