<?xml version="1.0" encoding="utf-8"?>
<!-- Generator: Adobe Illustrator 23.0.0, SVG Export Plug-In . SVG Version: 6.00 Build 0)  -->
<svg version="1.1" id="Layer_1" xmlns="http://www.w3.org/2000/svg" xmlns:xlink="http://www.w3.org/1999/xlink" x="0px" y="0px"
	 viewBox="0 0 128 128" style="enable-background:new 0 0 128 128;" xml:space="preserve">
<g transform="translate(1 1)">
	<g>
		<g>
			<path d="M124.8,61.1c0-0.1,0.1-0.1,0.1-0.2c0.1-0.1,0.1-0.1,0.2-0.2c0-0.1,0.1-0.2,0.1-0.2c0-0.1,0.1-0.1,0.1-0.2
				c0-0.1,0.1-0.2,0.1-0.2c0-0.1,0.1-0.1,0.1-0.2c0-0.1,0.1-0.2,0.1-0.2c0-0.1,0.1-0.2,0.1-0.2c0-0.1,0-0.2,0.1-0.2
				c0-0.1,0-0.2,0.1-0.3c0-0.1,0-0.2,0-0.3c0-0.1,0-0.2,0-0.2c0-0.3,0-0.7,0-1c0-0.1,0-0.2,0-0.2c0-0.1,0-0.2,0-0.3
				c0-0.1,0-0.2-0.1-0.3c0-0.1,0-0.2-0.1-0.2c0-0.1-0.1-0.2-0.1-0.2c0-0.1-0.1-0.2-0.1-0.2c0-0.1-0.1-0.2-0.1-0.2
				c0-0.1-0.1-0.2-0.1-0.2c0-0.1-0.1-0.1-0.1-0.2c0-0.1-0.1-0.2-0.1-0.2c-0.1-0.1-0.1-0.2-0.2-0.2c0-0.1-0.1-0.1-0.1-0.2
				c-0.1-0.1-0.2-0.3-0.3-0.4c0,0,0,0,0,0l-15.8-15.8c-2.1-2.1-5.4-2.1-7.4,0c-2.1,2.1-2.1,5.4,0,7.4l6.8,6.8H78.8
				c-2.9,0-5.3,2.4-5.3,5.3c0,2.9,2.4,5.3,5.3,5.3h29.3l-6.8,6.8c-2.1,2.1-2.1,5.4,0,7.4s5.4,2.1,7.4,0l15.8-15.8c0,0,0,0,0,0
				C124.6,61.3,124.7,61.2,124.8,61.1z"/>
			<path d="M89.3,73.5c-2.9,0-5.3,2.4-5.3,5.3V105H63V21v0c0-2.3-1.5-4.4-3.7-5L41,10.5h43v26.3c0,2.9,2.4,5.3,5.3,5.3
				c2.9,0,5.3-2.4,5.3-5.3V5.2c0-2.9-2.4-5.3-5.3-5.3h-84c0,0,0,0,0,0C5.1,0,4.9,0,4.8,0c-2.4,0.2-4,1.8-4.5,3.7
				c0,0.1-0.1,0.2-0.1,0.4c0,0,0,0,0,0c0,0.1-0.1,0.3-0.1,0.4c0,0,0,0,0,0.1c0,0.1,0,0.2,0,0.4C0,5,0,5.2,0,5.4v104.8
				c0,2.5,1.8,4.7,4.2,5.1l52.5,10.5c3.2,0.6,6.3-1.8,6.3-5.1v-5.3h26.3c2.9,0,5.3-2.4,5.3-5.3V78.8C94.5,75.9,92.2,73.5,89.3,73.5z
				 M52.5,114.4l-42-8.4V12.3l42,12.6v85.4L52.5,114.4L52.5,114.4z"/>
		</g>
	</g>
</g>
</svg>
