<?xml version="1.0" encoding="utf-8"?>
<!-- Generator: Adobe Illustrator 20.1.0, SVG Export Plug-In . SVG Version: 6.00 Build 0)  -->
<svg version="1.1" id="Layer_1" xmlns="http://www.w3.org/2000/svg" xmlns:xlink="http://www.w3.org/1999/xlink" x="0px" y="0px"
	 viewBox="0 0 128 128" style="enable-background:new 0 0 128 128;" xml:space="preserve">
<g>
	<g>
		<g>
			<path d="M125,16.8L113.8,5.6c-1.2-1.2-2.7-1.7-4.2-1.7c-1.5,0-3,0.6-4.2,1.7l-9,9L116,34.1l9-9C127.3,22.9,127.3,19.1,125,16.8z"
				/>
			<polygon points="38.1,72.7 57.7,92.3 111.8,38.3 92.2,18.7 			"/>
			<polygon points="33.9,76.9 29.7,100.7 53.5,96.5 			"/>
			<path d="M88.1,111.3h-74v-74h52.2l12.9-12.9H9.6c-4.6,0-8.3,3.7-8.3,8.3v83.1c0,4.6,3.7,8.3,8.3,8.3h83.1c4.6,0,8.3-3.7,8.3-8.3
				V56.4L88.1,69.2L88.1,111.3L88.1,111.3z"/>
		</g>
	</g>
</g>
</svg>
