<?xml version="1.0" encoding="utf-8"?>
<!-- Generator: Adobe Illustrator 23.0.0, SVG Export Plug-In . SVG Version: 6.00 Build 0)  -->
<svg version="1.1" id="Layer_1" xmlns="http://www.w3.org/2000/svg" xmlns:xlink="http://www.w3.org/1999/xlink" x="0px" y="0px"
	 viewBox="0 0 128 128" style="enable-background:new 0 0 128 128;" xml:space="preserve">
<g>
	<g>
		<g>
			<path d="M83.6,58.2c0-2.7-2.2-4.9-4.9-4.9H28.4c-2.7,0-4.9,2.2-4.9,4.9c0,2.7,2.2,4.9,4.9,4.9h50.3
				C81.4,63.1,83.6,60.9,83.6,58.2z"/>
			<path d="M28.4,75.9c-2.7,0-4.9,2.2-4.9,4.9c0,2.7,2.2,4.9,4.9,4.9h20.6c2.7,0,4.9-2.2,4.9-4.9c0-2.7-2.2-4.9-4.9-4.9H28.4z"/>
			<path d="M59.8,116.8H23.5c-5.4,0-9.8-4.4-9.8-9.8V21c0-5.4,4.4-9.8,9.8-9.8h60.1c5.4,0,9.8,4.4,9.8,9.8v32c0,2.7,2.2,4.9,4.9,4.9
				c2.7,0,4.9-2.2,4.9-4.9V21c0-10.8-8.8-19.5-19.5-19.5H23.5C12.7,1.5,4,10.2,4,21v86c0,10.8,8.8,19.5,19.5,19.5h36.3
				c2.7,0,4.9-2.2,4.9-4.9C64.7,119,62.5,116.8,59.8,116.8z"/>
			<path d="M78.7,30.8H28.4c-2.7,0-4.9,2.2-4.9,4.9c0,2.7,2.2,4.9,4.9,4.9h50.3c2.7,0,4.9-2.2,4.9-4.9C83.6,33,81.4,30.8,78.7,30.8z
				"/>
		</g>
	</g>
</g>
<g>
	<path d="M123.9,90.3c-0.8-0.8-1.7-1.2-2.8-1.2h-17.3V71.8c0-1.1-0.4-2.1-1.2-2.8c-0.8-0.8-1.7-1.2-2.8-1.2h-8
		c-1.1,0-2.1,0.4-2.8,1.2c-0.8,0.8-1.2,1.7-1.2,2.8v17.3H70.5c-1.1,0-2.1,0.4-2.8,1.2s-1.2,1.7-1.2,2.8v8c0,1.1,0.4,2.1,1.2,2.8
		c0.8,0.8,1.7,1.2,2.8,1.2h17.3v17.3c0,1.1,0.4,2.1,1.2,2.8c0.8,0.8,1.7,1.2,2.8,1.2h8c1.1,0,2.1-0.4,2.8-1.2
		c0.8-0.8,1.2-1.7,1.2-2.8v-17.3h17.3c1.1,0,2.1-0.4,2.8-1.2c0.8-0.8,1.2-1.7,1.2-2.8v-8C125.1,92,124.7,91.1,123.9,90.3z"/>
</g>
</svg>
