<?xml version="1.0" encoding="utf-8"?>
<!-- Generator: Adobe Illustrator 20.1.0, SVG Export Plug-In . SVG Version: 6.00 Build 0)  -->
<svg version="1.0" id="Layer_1" xmlns="http://www.w3.org/2000/svg" xmlns:xlink="http://www.w3.org/1999/xlink" x="0px" y="0px"
	 viewBox="0 0 128 128" style="enable-background:new 0 0 128 128;" xml:space="preserve">
<g>
	<g>
		<path d="M100.1,69.9c0-7.8-6.4-14.2-14.2-14.2c-7.8,0-14.2,6.4-14.2,14.2c0,7.8,6.4,14.2,14.2,14.2
			C93.8,84.1,100.1,77.8,100.1,69.9z M82,73h1v-5.3c0,0.1-0.4,0.1-1,0.1c-0.2,0,0,0,0,0v-3c0,0,0.1,0,0.2,0c0.9,0,1.6,0.3,2.4,0
			c0.8-0.3,1.2-0.7,1.6-0.7H88v9h1v4h-7V73z"/>
		<circle cx="65.3" cy="70.6" r="3.9"/>
		<circle cx="106.6" cy="70.6" r="3.9"/>
		<path d="M117.3,46H55.5c-3.6,0-6.5,3.7-6.5,7.2v21.6c1,0,1.6-0.1,2.6-0.1c0.9,0,2.4,0,2.4,0.1V60.2c1,0.1,1.3,0.2,1.9,0.2
			c3.6,0,6.7-2.6,6.7-6.2c0-0.6,0.1-1.2-0.1-1.2h48.1c-0.1,0-0.1,0.4-0.1,0.8c0,3.6,3.3,6.4,6.9,6.4c0.4,0,0.5-0.2,1.5-0.3v19.9
			c-1-0.1-1.1-0.1-1.5-0.1c-3.6,0-6.7,3.2-6.7,6.8c0,0.4-0.1,0.4-0.1,1.4H76c0,0,0-0.2,0-0.1c0,0.1,0,0.1,0,0.2V93h41.3
			c3.6,0,6.7-2.9,6.7-6.4V53.2C124,49.7,120.9,46,117.3,46z"/>
		<path d="M11.2,78.4c3.6,1.3,8.3,2.1,13.3,2.1c2.6,0,5.2-0.2,7.5-0.6c1.3-1,2.8-1.9,4.9-2.7c2.1-0.8,5.1-1.4,7.1-1.8v-3.5
			c0,0,0-0.1,0-0.1c0,0,0-0.1,0-0.1v-8.3c0,0,0-0.1,0-0.1c0,0,0-0.1,0-0.1v-8.3c0,0,0-0.1,0-0.1c0-1.9-1-4.7-6.4-6.7
			c-3.6-1.4-8.2-2.1-13.2-2.1s-10,0.7-13.5,2.1c-5.4,2-6.8,4.8-6.8,6.7V63c0,0,0,0.1,0,0.1v8.5c0,0,0,0.1,0,0.1v0.1v8.4v0.1
			c0,0,0,0.1,0,0.1v8.5c0,0,0,0.1,0,0.1v8.5c0,1.9,1.4,4.7,6.9,6.7c3.6,1.3,8.1,2.1,13.1,2.1c1.1,0,2,0,3-0.1v-0.8v-0.1c0,0,0,0,0,0
			c0,0,0,0,0,0v-3.3c-1,0.1-1.8,0.1-2.9,0.1c-4.5,0-8.5-0.6-11.5-1.8C9.5,98.8,9,97.7,9,97.4v-2.8c1,0.3,1.4,0.7,2.2,1
			c3.6,1.3,8,2.1,12.9,2.1c1.1,0,1.9,0,2.9-0.1v-1.1c0,0,0,0,0,0c0,0,0,0,0,0v-3.3c-1,0.1-1.8,0.1-2.9,0.1c-4.5,0-8.5-0.6-11.5-1.8
			C9.5,90.3,9,89.1,9,88.8v-2.7c1,0.3,1.4,0.7,2.2,1c3.6,1.3,8,2.1,12.9,2.1c1.1,0,1.9,0,2.9-0.1V88c0-1,0.5-2.2,1-3.6
			c-1.3,0.1-2.4,0.2-3.8,0.2c-4.5,0-8.5-0.6-11.6-1.8C9.6,81.6,9,80.5,9,80.2v-2.7C10,77.7,10.4,78.1,11.2,78.4z M39,71.6L39,71.6
			c0,0.4-0.3,1.5-3.3,2.6c-3.1,1.1-7,1.8-11.5,1.8c-4.5,0-8.5-0.6-11.6-1.8C9.6,73,9,71.9,9,71.6v-2.7c1,0.3,1.4,0.7,2.2,1
			c3.6,1.3,8.3,2.1,13.3,2.1s9.2-0.7,12.8-2.1c0.8-0.3,1.8-0.6,1.8-1V71.6z M39,63L39,63c0,0.4-0.3,1.5-3.3,2.6
			c-3.1,1.1-7,1.8-11.5,1.8c-4.5,0-8.5-0.6-11.6-1.8C9.6,64.4,9,63.3,9,63v-2.7c1,0.3,1.4,0.7,2.2,1c3.6,1.3,8.3,2.1,13.3,2.1
			s9.2-0.7,12.8-2.1c0.8-0.3,1.8-0.6,1.8-1V63z M12.7,52c3.1-1.1,7.3-1.8,11.7-1.8c4.5,0,8.2,0.6,11.3,1.8c3,1.1,3.3,2.2,3.3,2.6
			v0.1c0,0.4-0.3,1.5-3.3,2.6c-3.1,1.1-7.1,1.8-11.5,1.8c-4.5,0-8.5-0.6-11.6-1.8c-3.1-1.1-3.7-2.3-3.7-2.6
			C8.9,54.3,9.7,53.1,12.7,52z"/>
		<path d="M64.8,81.3c-3.6-1.3-8.1-2.1-13.1-2.1c-5,0-9.6,0.7-13.2,2.1C33.1,83.3,32,86,32,88v8.5c0,0,0,0.1,0,0.1v8.5
			c0,0,0,0.1,0,0.1v0.1v8.4v0.1c0,1.9,1.2,4.7,6.6,6.7c3.6,1.3,8.3,2.1,13.3,2.1c5,0,9.3-0.7,12.9-2.1c5.4-2,6.2-4.8,6.2-6.7v-0.1
			v-8.3c0,0,0-0.1,0-0.1c0,0,0-0.1,0-0.1v-8.3c0,0,0-0.1,0-0.1c0,0,0-0.1,0-0.1v-8.3c0,0,0-0.1,0-0.1C71,86,70.2,83.3,64.8,81.3z
			 M40.1,85.4c3.1-1.1,7.3-1.8,11.7-1.8c4.5,0,9,0.6,12.1,1.8c3,1.1,4.1,2.2,4.1,2.6V88c0,0.4-1.1,1.5-4.1,2.6
			c-3.1,1.1-7.4,1.8-11.9,1.8c-4.5,0-8.7-0.6-11.8-1.8c-3.1-1.1-3.8-2.3-3.8-2.6C36.4,87.7,37.1,86.5,40.1,85.4z M68,113.6
			c0,0.3-1,1.4-4.1,2.6c-3.1,1.1-7.4,1.8-11.9,1.8c-4.5,0-8.4-0.6-11.5-1.8c-3.1-1.1-3.5-2.3-3.5-2.6v-2.7c0,0.3,1.1,0.7,1.9,1
			c3.6,1.3,8.1,2.1,13.1,2.1c5,0,9.9-0.7,13.5-2.1c0.8-0.3,0.5-0.6,2.5-1V113.6z M68,105L68,105c0,0.4-1.1,1.5-4.1,2.6
			c-3.1,1.1-7.4,1.8-11.9,1.8c-4.5,0-8.4-0.6-11.5-1.8c-3.1-1.1-3.5-2.3-3.5-2.6v-2.7c0,0.3,1.1,0.7,1.9,1c3.6,1.3,8.1,2.1,13.1,2.1
			c5,0,9.6-0.7,13.2-2.1c0.8-0.3,1.8-0.6,2.5-1L68,105z M68,96.4L68,96.4c0,0.4-1.1,1.5-4.1,2.6c-3.1,1.1-7.4,1.8-11.9,1.8
			c-4.5,0-8.4-0.6-11.5-1.8c-3.1-1.1-3.5-2.3-3.5-2.6v-2.7c0,0.3,1.1,0.7,1.9,1c3.6,1.3,8.1,2.1,13.1,2.1c5,0,9.6-0.7,13.2-2.1
			c0.8-0.3,1.8-0.6,2.5-1L68,96.4z"/>
	</g>
	<g>
		<path d="M106.1,5.9l17.5,15.9c0.3,0.3,0.5,0.6,0.5,1c0,0.4-0.2,0.8-0.5,1.1l-17.5,16.1c-0.5,0.4-1,0.5-1.6,0.2
			c-0.5-0.2-0.9-0.7-0.9-1.3V28.9H83.6c-0.8,0-1.5-0.6-1.5-1.5v-8.7c0-0.8,0.6-1.5,1.5-1.5h20.1V7c0-0.6,0.3-1.1,0.9-1.3
			C105.1,5.5,105.7,5.6,106.1,5.9z"/>
	</g>
</g>
<g>
</g>
<g>
</g>
<g>
</g>
<g>
</g>
<g>
</g>
<g>
</g>
<g>
</g>
<g>
</g>
<g>
</g>
<g>
</g>
<g>
</g>
<g>
</g>
<g>
</g>
<g>
</g>
<g>
</g>
</svg>
