<?xml version="1.0" encoding="utf-8"?>
<!-- Generator: Adobe Illustrator 20.1.0, SVG Export Plug-In . SVG Version: 6.00 Build 0)  -->
<svg version="1.0" id="Layer_1" xmlns="http://www.w3.org/2000/svg" xmlns:xlink="http://www.w3.org/1999/xlink" x="0px" y="0px"
	 viewBox="0 0 128 128" style="enable-background:new 0 0 128 128;" xml:space="preserve">
<g>
	<g>
		<path d="M100.4,71.7c0-7.9-6.4-14.2-14.2-14.2c-7.9,0-14.2,6.4-14.2,14.2c0,7.9,6.4,14.2,14.2,14.2C94,85.9,100.4,79.6,100.4,71.7
			z M82,75h2v-5.6c0,0.1-0.9,0.1-1.5,0.1c-0.2,0-0.5,0-0.5,0v-3c0,0,0.2,0,0.3,0c0.9,0,1.7-0.1,2.4-0.4c0.8-0.3,1.3-1.1,1.6-1.1H88
			v10h2v4h-8V75z"/>
		<circle cx="65.5" cy="72.4" r="3.9"/>
		<circle cx="106.9" cy="72.4" r="3.9"/>
		<path d="M117.6,48h-62C52,48,49,51.4,49,55v21.7c2,0,1.6-0.1,2.6-0.1c0.9,0,2.4,0,2.4,0.1V62c1,0.1,1.4,0.2,2,0.2
			c3.6,0,6.8-2.9,6.8-6.6c0-0.6,0.1-1.6,0-1.6H111c-0.1,0-0.1,0.8-0.1,1.2c0,3.6,3.1,6.6,6.8,6.6c0.4,0,0.4-0.1,1.4-0.1v20
			c-1-0.1-1-0.1-1.4-0.1c-3.6,0-6.7,3.3-6.7,6.9c0,0.4-0.1,0.5,0,1.5H76c0,0,0-0.4,0-0.2c0,0.1,0,0.1,0,0.2v5h41.6
			c3.6,0,6.4-3,6.4-6.6V55C124,51.4,121.2,48,117.6,48z"/>
		<path d="M11.2,80.2c3.6,1.3,8.3,2.1,13.3,2.1c2.6,0,5.2-0.2,7.6-0.6c1.3-1,2.8-1.9,4.9-2.7c2.1-0.8,5-1.4,7-1.8v-3.6
			c0,0,0-0.1,0-0.1c0,0,0-0.1,0-0.1v-8.3c0,0,0-0.1,0-0.1c0,0,0-0.1,0-0.1v-8.3c0,0,0-0.1,0-0.1c0-1.9-0.9-4.7-6.4-6.7
			c-3.6-1.4-8.2-2.1-13.2-2.1s-10,0.7-13.5,2.1c-5.5,2-6.9,4.8-6.9,6.7v8.5c0,0,0,0.1,0,0.1v8.5c0,0,0,0.1,0,0.1v0.1v8.4V82
			c0,0,0,0.1,0,0.1v8.5c0,0,0,0.1,0,0.1v8.5c0,1.9,1.4,4.7,6.9,6.7c3.6,1.3,8.1,2.1,13.1,2.1c1.1,0,2,0,3-0.1v-0.8V107c0,0,0,0,0,0
			c0,0,0,0,0,0v-3.4c-1,0.1-1.8,0.1-2.8,0.1c-4.5,0-8.5-0.6-11.6-1.8C9.5,100.7,9,99.5,9,99.3v-2.8c1,0.3,1.4,0.7,2.2,1
			c3.6,1.3,8,2.1,13,2.1c1.1,0,1.8,0,2.8-0.1v-1.1c0,0,0,0,0,0c0,0,0,0,0,0v-3.4c-1,0.1-1.8,0.1-2.8,0.1c-4.5,0-8.5-0.6-11.6-1.8
			C9.5,92.1,9,91,9,90.7v-2.7c1,0.3,1.4,0.7,2.2,1c3.6,1.3,8,2.1,13,2.1c1.1,0,1.8,0,2.8-0.1v-1.1c0-1,0.5-2.3,1.1-3.6
			c-1.3,0.1-2.4,0.2-3.7,0.2c-4.5,0-8.6-0.6-11.7-1.8C9.6,83.5,9,82.3,9,82v-2.7C10,79.5,10.4,79.9,11.2,80.2z M40,73.4L40,73.4
			c0,0.4-0.8,1.5-3.7,2.6c-3.1,1.2-7.3,1.8-11.8,1.8c-4.5,0-8.7-0.6-11.7-1.8C9.7,74.8,9,73.7,9,73.4v-2.7c1,0.3,1.4,0.7,2.2,1
			c3.6,1.3,8.3,2.1,13.3,2.1s9.7-0.7,13.3-2.1c0.8-0.3,2.2-0.6,2.2-1V73.4z M40,64.8L40,64.8c0,0.4-0.8,1.5-3.7,2.6
			c-3.1,1.2-7.3,1.8-11.8,1.8c-4.5,0-8.7-0.6-11.7-1.8C9.7,66.2,9,65.1,9,64.8V62c1,0.3,1.4,0.7,2.2,1c3.6,1.3,8.3,2.1,13.3,2.1
			s9.7-0.7,13.3-2.1c0.8-0.3,2.2-0.6,2.2-1V64.8z M12.7,53.7c3.1-1.2,7.3-1.8,11.8-1.8c4.5,0,8.7,0.6,11.8,1.8
			c3,1.1,3.7,2.2,3.7,2.6v0.1c0,0.4-0.8,1.5-3.7,2.6c-3.1,1.2-7.3,1.8-11.8,1.8c-4.5,0-8.7-0.6-11.8-1.8C9.7,57.8,9,56.6,9,56.3
			C9,56,9.7,54.8,12.7,53.7z"/>
		<path d="M64.8,83.1c-3.6-1.3-8.1-2.1-13.1-2.1c-5,0-9.7,0.7-13.2,2.1c-5.5,2-6.5,4.8-6.5,6.7v8.5c0,0,0,0.1,0,0.1v8.5
			c0,0,0,0.1,0,0.1v0.1v8.4v0.1c0,1.9,1.2,4.7,6.7,6.7c3.6,1.3,8.3,2.1,13.3,2.1c5,0,9.3-0.7,12.9-2.1c5.5-2,6.2-4.8,6.2-6.7v-0.1
			v-8.3c0,0,0-0.1,0-0.1c0,0,0-0.1,0-0.1v-8.3c0,0,0-0.1,0-0.1c0,0,0-0.1,0-0.1v-8.3c0,0,0-0.1,0-0.1C71,87.9,70.3,85.1,64.8,83.1z
			 M40.2,87.2c3.1-1.2,7.3-1.8,11.8-1.8c4.5,0,8.9,0.6,12,1.8c3,1.1,4,2.2,4,2.6v0.1c0,0.4-1,1.5-4,2.6c-3.1,1.2-7.4,1.8-11.9,1.8
			c-4.5,0-8.7-0.6-11.8-1.8c-3.1-1.2-3.8-2.3-3.8-2.6C36.5,89.5,37.2,88.3,40.2,87.2z M68,115.5c0,0.3-0.9,1.4-4,2.6
			c-3.1,1.2-7.4,1.8-11.9,1.8c-4.5,0-8.5-0.6-11.6-1.8c-3.1-1.2-3.6-2.3-3.6-2.6v-2.7c0,0.3,1.1,0.7,2,1c3.6,1.3,8.2,2.1,13.2,2.1
			c5,0,9.9-0.7,13.5-2.1c0.8-0.3,0.4-0.6,2.4-1V115.5z M68,106.9L68,106.9c0,0.4-1,1.5-4,2.6c-3.1,1.2-7.4,1.8-11.9,1.8
			c-4.5,0-8.5-0.6-11.6-1.8c-3.1-1.2-3.6-2.3-3.6-2.6v-2.7c0,0.3,1.1,0.7,2,1c3.6,1.3,8.2,2.1,13.2,2.1c5,0,9.7-0.7,13.2-2.1
			c0.8-0.3,1.8-0.6,2.4-1L68,106.9z M68,98.3L68,98.3c0,0.4-1,1.5-4,2.6c-3.1,1.2-7.4,1.8-11.9,1.8c-4.5,0-8.5-0.6-11.6-1.8
			c-3.1-1.2-3.6-2.3-3.6-2.6v-2.7c0,0.3,1.1,0.7,2,1c3.6,1.3,8.2,2.1,13.2,2.1c5,0,9.7-0.7,13.2-2.1c0.8-0.3,1.8-0.6,2.4-1L68,98.3z
			"/>
	</g>
	<g>
		<path d="M68.3,27.8l-16,17.5c-0.3,0.3-0.6,0.5-1,0.5c-0.4,0-0.8-0.2-1.1-0.5L34,27.8c-0.4-0.5-0.5-1-0.2-1.6
			c0.2-0.5,0.7-0.9,1.3-0.9h10.2V5.1c0-0.8,0.6-1.5,1.5-1.5h8.8c0.8,0,1.5,0.6,1.5,1.5v20.2h10.2c0.6,0,1.1,0.3,1.3,0.9
			C68.7,26.7,68.6,27.3,68.3,27.8z"/>
	</g>
</g>
<g>
</g>
<g>
</g>
<g>
</g>
<g>
</g>
<g>
</g>
<g>
</g>
<g>
</g>
<g>
</g>
<g>
</g>
<g>
</g>
<g>
</g>
<g>
</g>
<g>
</g>
<g>
</g>
<g>
</g>
</svg>
