<?xml version="1.0" encoding="utf-8"?>
<!-- Generator: Adobe Illustrator 20.1.0, SVG Export Plug-In . SVG Version: 6.00 Build 0)  -->
<svg version="1.1" id="Layer_1" xmlns="http://www.w3.org/2000/svg" xmlns:xlink="http://www.w3.org/1999/xlink" x="0px" y="0px"
	 viewBox="0 0 128 128" style="enable-background:new 0 0 128 128;" xml:space="preserve">
<g>
	<g>
		<g>
			<path d="M117.8,12.7H31.1c-5.2,0-9.4,4.3-9.4,9.4V76c0,5.2,4.3,9.4,9.4,9.4h59.8L104.4,99c0.6,0.6,1.3,0.9,2.1,0.9
				c1.6,0,3-1.3,3-3V85.3h8.3c5.2,0,9.4-4.3,9.4-9.4V22.1C127.2,16.9,122.9,12.7,117.8,12.7z M44.4,59.1c-4.7,0-8.7-3.9-8.7-8.7
				s3.9-8.7,8.7-8.7s8.7,3.9,8.7,8.7S49.3,59.1,44.4,59.1z M74.8,59.1c-4.7,0-8.7-3.9-8.7-8.7s3.9-8.7,8.7-8.7
				c4.7,0,8.7,3.9,8.7,8.7S79.5,59.1,74.8,59.1z M105.1,59.1c-4.7,0-8.7-3.9-8.7-8.7s3.9-8.7,8.7-8.7s8.7,3.9,8.7,8.7
				S109.8,59.1,105.1,59.1z"/>
			<path d="M16.4,76.2V57.8H7c-3.4,0-6.1,2.8-6.1,6.1v35.4c-0.1,3.6,2.7,6.4,6.1,6.4h5.4v7.6c0,1,0.9,2,2,2c0.6,0,1-0.2,1.4-0.6
				l8.9-8.9h39.3c3.4,0,6.1-2.8,6.1-6.1v-8.8h-39C23,90.9,16.4,84.3,16.4,76.2z"/>
		</g>
	</g>
</g>
</svg>
