<?xml version="1.0" encoding="utf-8"?>
<!-- Generator: Adobe Illustrator 23.0.0, SVG Export Plug-In . SVG Version: 6.00 Build 0)  -->
<svg version="1.1" id="Layer_1" xmlns="http://www.w3.org/2000/svg" xmlns:xlink="http://www.w3.org/1999/xlink" x="0px" y="0px"
	 viewBox="0 0 128 128" style="enable-background:new 0 0 128 128;" xml:space="preserve">
<g>
	<path d="M74.8,64l47.8-47.8c3-3,3-7.8,0-10.7c-3-3-7.8-3-10.7,0L64,53.3L16.2,5.4c-3-3-7.8-3-10.7,0c-3,3-3,7.8,0,10.7L53.3,64
		L5.4,111.8c-3,3-3,7.8,0,10.7c1.5,1.5,3.4,2.2,5.4,2.2s3.9-0.7,5.4-2.2L64,74.7l47.8,47.8c1.5,1.5,3.4,2.2,5.4,2.2
		c1.9,0,3.9-0.7,5.4-2.2c3-3,3-7.8,0-10.7L74.8,64z"/>
</g>
</svg>
