<?xml version="1.0" encoding="utf-8"?>
<!-- Generator: Adobe Illustrator 23.0.0, SVG Export Plug-In . SVG Version: 6.00 Build 0)  -->
<svg version="1.1" id="Layer_1" xmlns="http://www.w3.org/2000/svg" xmlns:xlink="http://www.w3.org/1999/xlink" x="0px" y="0px"
	 viewBox="0 0 128 128" style="enable-background:new 0 0 128 128;" xml:space="preserve">
<g>
	<g id="Layer_1_66_">
		<g>
			<path d="M106.5,1.7h-85c-3.1,0-5.7,2.5-5.7,5.7v113.3c0,3.1,2.5,5.7,5.7,5.7h85c3.1,0,5.7-2.5,5.7-5.7V7.4
				C112.1,4.2,109.6,1.7,106.5,1.7z M100.8,13v17H27.2V13H100.8z M27.2,115V41.3h73.6V115L27.2,115L27.2,115z"/>
			<path d="M47.4,46.4H35.7c-1.6,0-2.8,1.3-2.8,2.8v11.8c0,1.6,1.3,2.8,2.8,2.8h11.8c1.6,0,2.8-1.3,2.8-2.8V49.2
				C50.3,47.6,49,46.4,47.4,46.4z"/>
			<path d="M69.9,46.4H58.1c-1.6,0-2.8,1.3-2.8,2.8v11.8c0,1.6,1.3,2.8,2.8,2.8h11.8c1.6,0,2.8-1.3,2.8-2.8V49.2
				C72.7,47.6,71.4,46.4,69.9,46.4z"/>
			<path d="M92.3,46.4H80.6c-1.6,0-2.8,1.3-2.8,2.8v11.8c0,1.6,1.3,2.8,2.8,2.8h11.8c1.6,0,2.8-1.3,2.8-2.8V49.2
				C95.2,47.6,93.9,46.4,92.3,46.4z"/>
			<path d="M47.4,69.4H35.7c-1.6,0-2.8,1.3-2.8,2.8V84c0,1.6,1.3,2.8,2.8,2.8h11.8c1.6,0,2.8-1.3,2.8-2.8V72.3
				C50.3,70.7,49,69.4,47.4,69.4z"/>
			<path d="M69.9,69.4H58.1c-1.6,0-2.8,1.3-2.8,2.8V84c0,1.6,1.3,2.8,2.8,2.8h11.8c1.6,0,2.8-1.3,2.8-2.8V72.3
				C72.7,70.7,71.4,69.4,69.9,69.4z"/>
			<path d="M47.4,92.5H35.7c-1.6,0-2.8,1.3-2.8,2.8v11.8c0,1.6,1.3,2.8,2.8,2.8h11.8c1.6,0,2.8-1.3,2.8-2.8V95.4
				C50.3,93.8,49,92.5,47.4,92.5z"/>
			<path d="M69.9,92.5H58.1c-1.6,0-2.8,1.3-2.8,2.8v11.8c0,1.6,1.3,2.8,2.8,2.8h11.8c1.6,0,2.8-1.3,2.8-2.8V95.4
				C72.7,93.8,71.4,92.5,69.9,92.5z"/>
			<path d="M92.3,69.4H80.6c-1.6,0-2.8,1.3-2.8,2.8v34.9c0,1.6,1.3,2.8,2.8,2.8h11.8c1.6,0,2.8-1.3,2.8-2.8V72.3
				C95.2,70.7,93.9,69.4,92.3,69.4z"/>
		</g>
	</g>
</g>
</svg>
