<?xml version="1.0" encoding="utf-8"?>
<!-- Generator: Adobe Illustrator 23.0.0, SVG Export Plug-In . SVG Version: 6.00 Build 0)  -->
<svg version="1.1" id="Layer_1" xmlns="http://www.w3.org/2000/svg" xmlns:xlink="http://www.w3.org/1999/xlink" x="0px" y="0px"
	 viewBox="0 0 128 128" style="enable-background:new 0 0 128 128;" xml:space="preserve">
<style type="text/css">
	.st0{fill-rule:evenodd;clip-rule:evenodd;}
</style>
<g id="Search">
	<path class="st0" d="M124,109.1L96.6,81.7c-0.1-0.1-0.3-0.2-0.5-0.4c5.4-8.2,8.5-18,8.5-28.5c0-28.7-23.2-51.9-51.9-51.9
		S0.9,24.1,0.9,52.8c0,28.6,23.2,51.9,51.9,51.9c10.5,0,20.3-3.1,28.5-8.5c0.1,0.2,0.2,0.3,0.4,0.5l27.4,27.4
		c4.1,4.1,10.8,4.1,14.9,0C128.1,119.9,128.1,113.2,124,109.1z M52.8,86.7c-18.7,0-33.9-15.2-33.9-33.9c0-18.7,15.2-33.9,33.9-33.9
		c18.7,0,33.9,15.2,33.9,33.9S71.5,86.7,52.8,86.7z"/>
</g>
</svg>
