<?xml version="1.0" encoding="utf-8"?>
<!-- Generator: Adobe Illustrator 20.1.0, SVG Export Plug-In . SVG Version: 6.00 Build 0)  -->
<svg version="1.0" id="Layer_1" xmlns="http://www.w3.org/2000/svg" xmlns:xlink="http://www.w3.org/1999/xlink" x="0px" y="0px"
	 viewBox="0 0 128 128" style="enable-background:new 0 0 128 128;" xml:space="preserve">
<g>
	<path d="M48.1,15H15.6c-0.9,0-1.6,1.1-1.6,2c0,0.9,0.7,2,1.6,2h32.5c0.9,0,1.6-1.1,1.6-2C49.7,16.1,48.9,15,48.1,15z"/>
	<path d="M49.4,26c0-0.9-0.7-2-1.6-2H15.6c-0.9,0-1.6,1.1-1.6,2c0,0.9,0.7,2,1.6,2h32.1C48.6,28,49.4,26.9,49.4,26z"/>
	<path d="M26.8,34c0-0.9-0.7-2-1.6-2h-9.5c-0.9,0-1.6,1.1-1.6,2c0,0.9,0.7,2,1.6,2h9.5C26,36,26.8,34.9,26.8,34z"/>
	<path d="M24.2,45c0.9,0,1.6-1.1,1.6-2c0-0.9-0.7-2-1.6-2h-8.6c-0.9,0-1.6,1.1-1.6,2c0,0.9,0.7,2,1.6,2H24.2z"/>
	<path d="M25.9,51c0-0.9-0.7-2-1.6-2h-8.6c-0.9,0-1.6,1.1-1.6,2c0,0.9,0.7,2,1.6,2h8.6C25.1,53,25.9,51.9,25.9,51z"/>
	<path d="M23.3,58h-7.7c-0.9,0-1.6,1.1-1.6,2c0,0.9,0.7,2,1.6,2h7.7c0.9,0,1.6-1.1,1.6-2C25,59.1,24.2,58,23.3,58z"/>
	<path d="M93.3,62h5.6c0.9,0,1.6-1.1,1.6-2c0-0.9-0.8-2-1.6-2h-5.6c-0.9,0-1.6,1.1-1.6,2C91.6,60.9,92.3,62,93.3,62z"/>
	<path d="M93.3,70h5.3c0.9,0,1.6-1.1,1.6-2c0-0.9-0.7-2-1.6-2h-5.3c-0.9,0-1.6,1.1-1.6,2C91.6,68.9,92.3,70,93.3,70z"/>
	<path d="M98.9,74h-5.3c-0.9,0-1.6,1.6-1.6,2.5c0,0.9,0.7,2.5,1.6,2.5h5.3c0.9,0,1.6-1.6,1.6-2.5C100.6,75.6,99.8,74,98.9,74z"/>
	<path d="M93.1,87h5.8c0.9,0,1.6-1.1,1.6-2c0-0.9-0.7-2-1.6-2h-5.8c-0.9,0-1.6,1.1-1.6,2C91.5,85.9,92.2,87,93.1,87z"/>
	<path d="M93.1,96h5.8c0.9,0,1.6-1.6,1.6-2.5c0-0.9-0.7-2.5-1.6-2.5h-5.8c-0.9,0-1.6,1.6-1.6,2.5C91.5,94.4,92.2,96,93.1,96z"/>
	<path d="M65.8,100c-0.9,0-1.6,1.1-1.6,2c0,0.9,0.7,2,1.6,2h33.1c0.9,0,1.6-1.1,1.6-2c0-0.9-0.7-2-1.6-2H65.8z"/>
	<path d="M115.5,47.1c-0.4-0.3-1-0.5-1.6-0.4c-0.2,0-0.7,0-1,0.1l-19,0v3.9l11.9,0.1c-1.1,1.9-1.9,4.5-1.9,7.2v9.1
		c0,0.2,0,0.3,0,0.5v3.9v38.1v5.6l-4.2-4.5c-0.8-0.8-2.1-0.8-2.9,0l-6.7,6.8l-6.7-6.8c-0.4-0.4-0.9-0.6-1.5-0.6
		c-0.6,0-1.1,0.2-1.6,0.6l-6.7,6.8l-6.7-6.8c-0.4-0.4-0.9-0.6-1.6-0.6c-0.5,0-1.2,0.2-1.7,0.6l-4.7,4.6V101h-4v19.8
		c0,0.8,0.5,1.7,1.4,2c0.8,0.3,1.8,0.1,2.3-0.4l6.8-6.6l6.8,6.8c0.4,0.4,0.9,0.6,1.6,0.6c0.6,0,1.1-0.2,1.6-0.6l6.8-6.8l6.8,6.8
		c0.4,0.4,0.9,0.6,1.6,0.6s1.1-0.2,1.6-0.6l6.8-6.8l6.6,6.6c0.6,0.6,2.1,0.8,2.8,0.4c0.8-0.3,1.9-1.1,1.9-2v-11V71.6V70h11.4
		c1.1,0,2.6-1,2.6-2.3V58C124,53,120.2,48.5,115.5,47.1z M120,65h-0.9H110v-7.1c0-1.5,0.2-6.1,4.3-7c3.3,0.6,5.7,3.5,5.7,7V65z"/>
	<path d="M31.3,67.9c-0.6,0-1.2,0.2-1.6,0.6l-6.8,6.8l-6.8-6.8c-0.4-0.4-0.9-0.6-1.6-0.6c-0.5,0-1.3,0.2-1.8,0.6L8,73.1V15.7
		C8,12,11.3,8,14.9,8C15,8,15,8,15.1,8l40.1,0.4C54.1,10.3,53,13,53,15.7v9.1c0,0.1,0,7.2,0,16.2h6V29.3V28h11.6
		c1.1,0,2.4-1.4,2.4-2.6v-9.7c0-5.1-3.7-9.6-8.4-10.9c-0.4-0.3-1-0.5-1.5-0.4c-0.2,0-0.4,0-0.6,0.1L14.8,4.4c-0.2,0-0.5,0-0.6,0.1
		C8.5,5.1,4,10,4,15.8v62.6c0,0.8,0.6,1.7,1.5,2c0.8,0.3,1.8,0.1,2.3-0.4l6.8-6.6l6.8,6.8c0.4,0.4,0.9,0.6,1.6,0.6
		c0.6,0,1.1-0.2,1.6-0.6l7.2-6.8l2.3,1.9V69l-0.9-0.5C32.7,68.2,31.9,67.9,31.3,67.9z M59,15.6c0-1.5,0.2-6.1,4.3-7
		c3.3,0.6,5.7,3.5,5.7,7V22h-0.7H59V15.6z"/>
	<polygon points="41.6,45 47.8,39 31,39 31,55.7 36.8,49.7 48.3,61.2 53.1,56.4 	"/>
	<polygon points="63.5,65.4 58.6,60.6 53,66.2 57.9,71 	"/>
	<polygon points="62.9,75.8 74.4,87.2 68.4,93 86,93 86,76.3 79.5,82.5 67.9,71 	"/>
</g>
<g>
</g>
<g>
</g>
<g>
</g>
<g>
</g>
<g>
</g>
<g>
</g>
<g>
</g>
<g>
</g>
<g>
</g>
<g>
</g>
<g>
</g>
<g>
</g>
<g>
</g>
<g>
</g>
<g>
</g>
</svg>
