<?xml version="1.0" encoding="utf-8"?>
<!-- Generator: Adobe Illustrator 20.1.0, SVG Export Plug-In . SVG Version: 6.00 Build 0)  -->
<svg version="1.0" id="Layer_1" xmlns="http://www.w3.org/2000/svg" xmlns:xlink="http://www.w3.org/1999/xlink" x="0px" y="0px"
	 viewBox="0 0 128 128" style="enable-background:new 0 0 128 128;" xml:space="preserve">
<g>
	<g>
		<g>
			<path d="M84,102.5v10.3c0,2.8-0.9,3.3-3.8,3.3H13.8c-2.8,0-3.8-0.4-3.8-3.3V15.7c0-2.8,1-3.7,3.8-3.7H59v21.5
				c0,1.4,1.9,2.5,3.4,2.5H84v8.3V62h6V44.3V33.6c0,0,0,0,0,0v-0.1c0-0.8-0.2-1.5-0.8-2l-25-24.8C63.8,6.1,63.2,6,62.4,6h-0.1
				c0,0,0,0,0,0H13.8C8.2,6,4,10,4,15.7v97.1c0,5.6,4.2,9.3,9.8,9.3h66.4c5.6,0,9.8-3.6,9.8-9.3v-10.3V98h-6V102.5z M65,14.1
				L81.8,31H65V14.1z"/>
		</g>
		<path d="M50.2,97H24c-1.4,0-2.6,1.1-2.6,2.5c0,1.4,1.1,2.5,2.6,2.5h26.1c1.4,0,2.6-1.1,2.6-2.5C52.7,98.1,51.6,97,50.2,97z"/>
		<path d="M24,89h21.9c1.4,0,2.6-1.6,2.6-3c0-1.4-1.1-3-2.6-3H24c-1.4,0-2.6,1.6-2.6,3C21.5,87.4,22.6,89,24,89z"/>
		<path d="M24,74h20.4c1.4,0,2.6-1.6,2.6-3c0-1.4-1.1-3-2.6-3H24c-1.4,0-2.6,1.6-2.6,3C21.5,72.4,22.6,74,24,74z"/>
		<path d="M24,60h27.5c1.4,0,2.6-1.6,2.6-3c0-1.4-1.1-3-2.6-3H24c-1.4,0-2.6,1.6-2.6,3C21.5,58.4,22.6,60,24,60z"/>
		<path d="M24,46h43.1c1.4,0,2.6-1.6,2.6-3c0-1.4-1.1-3-2.6-3H24c-1.4,0-2.6,1.6-2.6,3C21.5,44.4,22.6,46,24,46z"/>
	</g>
	<g>
		<path d="M87,117c-20.5,0-37.1-16.6-37.1-37.1S66.5,42.9,87,42.9s37.1,16.6,37.1,37.1S107.5,117,87,117z M104.5,88.7L95.7,80
			l8.7-8.7c0.6-0.6,0.9-1.4,0.9-2.2c0-0.8-0.3-1.6-0.9-2.2l-4.3-4.3c-0.6-0.6-1.4-0.9-2.2-0.9c-0.8,0-1.6,0.3-2.2,0.9L87,71.2
			l-8.7-8.7c-0.6-0.6-1.4-0.9-2.2-0.9c-0.8,0-1.6,0.3-2.2,0.9l-4.3,4.3c-0.6,0.6-0.9,1.4-0.9,2.2c0,0.8,0.3,1.6,0.9,2.2l8.7,8.7
			l-8.7,8.7c-0.6,0.6-0.9,1.4-0.9,2.2c0,0.8,0.3,1.6,0.9,2.2l4.3,4.3c0.6,0.6,1.4,0.9,2.2,0.9c0.8,0,1.6-0.3,2.2-0.9l8.7-8.7
			l8.7,8.7c0.6,0.6,1.4,0.9,2.2,0.9c0.8,0,1.6-0.3,2.2-0.9l4.3-4.3c0.6-0.6,0.9-1.4,0.9-2.2C105.4,90.1,105,89.3,104.5,88.7z"/>
	</g>
</g>
<g>
</g>
<g>
</g>
<g>
</g>
<g>
</g>
<g>
</g>
<g>
</g>
<g>
</g>
<g>
</g>
<g>
</g>
<g>
</g>
<g>
</g>
<g>
</g>
<g>
</g>
<g>
</g>
<g>
</g>
</svg>
