<?xml version="1.0" encoding="utf-8"?>
<!-- Generator: Adobe Illustrator 23.0.0, SVG Export Plug-In . SVG Version: 6.00 Build 0)  -->
<svg version="1.1" id="Layer_1" xmlns="http://www.w3.org/2000/svg" xmlns:xlink="http://www.w3.org/1999/xlink" x="0px" y="0px"
	 viewBox="0 0 128 128" style="enable-background:new 0 0 128 128;" xml:space="preserve">
<g>
	<path id="settings_1_" d="M122.2,54.9l-12.4-2.1c-0.9-3.7-2.2-7.2-3.9-10.5l8-9.9c1.7-2.1,1.6-5.1-0.2-7.1l-4.9-5.6
		c-1.8-2-4.8-2.4-7-1L91,25.4c-4.7-3.3-10-5.7-15.7-7.1L73.2,5.8c-0.4-2.6-2.7-4.6-5.4-4.6h-7.5c-2.7,0-5,1.9-5.4,4.6l-2.1,12.5
		c-4.7,1.2-9.2,3-13.2,5.5l-10.1-7.2c-2.2-1.6-5.2-1.3-7.1,0.6l-5.3,5.3c-1.9,1.9-2.1,4.9-0.6,7.1l7.2,10.1c-2.4,4-4.3,8.4-5.4,13.1
		L5.8,54.9c-2.6,0.4-4.6,2.7-4.6,5.4v7.4c0,2.7,1.9,5,4.6,5.4l12.6,2.1c1,3.9,2.3,7.5,4.2,10.9L14.6,96c-1.7,2.1-1.6,5.1,0.2,7.1
		l4.9,5.6c1.8,2,4.8,2.4,7,1l10.8-6.8c4.6,3.1,9.7,5.4,15.3,6.8l2.1,12.5c0.4,2.6,2.7,4.6,5.4,4.6h7.5c2.7,0,5-1.9,5.4-4.6l2.1-12.5
		c4.7-1.1,9-3,13-5.4l10.5,7.5c2.2,1.6,5.2,1.3,7.1-0.6l5.3-5.3c1.9-1.9,2.2-4.9,0.6-7.1l-7.5-10.5c2.4-4,4.3-8.4,5.5-13.1l12.4-2.1
		c2.7-0.4,4.6-2.7,4.6-5.4v-7.4C126.8,57.6,124.8,55.3,122.2,54.9z M64.2,87.5c-13,0-23.5-10.5-23.5-23.5c0-13,10.5-23.5,23.5-23.5
		c13,0,23.5,10.5,23.5,23.5C87.7,77,77.2,87.5,64.2,87.5z"/>
</g>
</svg>
